<svg xmlns="http://www.w3.org/2000/svg" viewBox="0 0 124.36 75.23"><g id="Layer_2" data-name="Layer 2"><g id="Layer_1-2" data-name="Layer 1"><path d="M36.12,6.4c-2.31-.13-4.62-.25-6.94-.41a33.79,33.79,0,0,1-3.88-.4,1.75,1.75,0,0,1-1.15-1A4.17,4.17,0,0,1,24.82.71c.81-1.07,1.81-.64,2.79-.54.24,0,.47.09.71.12,3.2.34,6.4.85,9.61,1A14.79,14.79,0,0,0,44.2.46,3.15,3.15,0,0,1,45.43.34c1.91,0,3.82,0,5.73.12,1.06,0,2.11.17,3.16.31a2.34,2.34,0,0,1,1.94,2.09c.6,2.56-1.11,4-3.68,3.49a41.56,41.56,0,0,0-6-.48c-.94,0-1.9.08-2.84,0-1.41-.07-1.42-.1-1.78,1.34-.49,2-1,4.06-1.45,6.1-.39,1.72-.74,3.45-1.13,5.29,1.34.14,2.46.27,3.58.36,2.27.18,4.56.2,6.8.52,5.51.77,11,1.46,16.57,1.69q3.67.15,7.36.24c.38,0,1,0,1.13-.25.69-1,2.58-1,2.25-2.84,0-.13.31-.32.46-.49.28-.34.55-.69.9-1.13a15.57,15.57,0,0,0-1.5-.59,29,29,0,0,1-3.12-.77c-2-.78-4.06-1.38-5.78-2.78a1.32,1.32,0,0,1-.49-1.84c.38-.72.91-1.37,1.35-2.06a2.6,2.6,0,0,1,2.25-1.2C74.64,7.31,78,8.42,81.37,9c2.42.41,4.8,1,7.13-.31,1-.57,2-.16,3,.12a4.14,4.14,0,0,1,3.06,4.12,8.06,8.06,0,0,1-2.74,5.27,2.15,2.15,0,0,1-2,.63,10.74,10.74,0,0,0-2.45.12c-.23-1.48-1.51-1.07-2.55-1.58a6.91,6.91,0,0,0-.71,1c-.62,1.23-1.26,2.45-1.76,3.72a1.9,1.9,0,0,0,.2,1.48c.88,1.41,1.81,2.8,2.82,4.12,2.11,2.74,4.28,5.43,6.37,8.06,2.52-.53,4.78-1,7.06-1.49a20.13,20.13,0,0,1,3.34-.58c2,0,3.93,0,5.89.18a29,29,0,0,1,4,.53,3.44,3.44,0,0,1,1.87,1,8.37,8.37,0,0,0,2.71,2A11.77,11.77,0,0,1,121,41.92a33.45,33.45,0,0,1,2.28,5.2c.86,2.3,1.76,4.63.18,7a2.24,2.24,0,0,0-.09,1.37,17,17,0,0,1,.45,3.34,33.76,33.76,0,0,1-1.94,7.77c-.41,1.21-1,1.47-2.21,1.24-.45-.08-.91-.18-1.34-.27-.39.72-.58,1.52-1.09,1.92-2.08,1.66-4.09,3.52-6.82,4a12.77,12.77,0,0,0-3.18,1,4.57,4.57,0,0,1-2.59.39,17,17,0,0,0-3.76.16,8,8,0,0,1-5.51-1C93.7,73,91.75,72.5,90,71.61a12.09,12.09,0,0,1-2.63-1.42c-2.08-1.8-4-3.72-6-5.61a3.46,3.46,0,0,1-.66-1c-.36-.82-.7-1.65-1-2.49-.69-2-1.46-4.08.57-5.9a2.31,2.31,0,0,0-.58-.21c-3.45-.25-6.91-.47-10.37-.73-1.06-.08-2.11-.32-3.17-.44s-2.23-.12-3.34-.27c-.44-.06-1.19-.31-1.23-.57-.21-1.3-1.34-1.77-2.06-2.61-2.42-2.8-4.83-5.6-7.26-8.4-1-1.12-2-2.21-3-3.33-.74-.85-1.45-1.73-2.17-2.6a46.28,46.28,0,0,0-4.51-5.31A27.7,27.7,0,0,1,39.14,27c-.69-.87-1.33-1.78-2.06-2.77l-.78,2.42c1.47,1.54,2.93,2.95,4.25,4.47a17.57,17.57,0,0,1,3.07,4.14,44.6,44.6,0,0,1,2.59,7.8,25.51,25.51,0,0,1,.08,8.63c-.28,2.64-2.19,4.65-2.79,7.16,0,.05-.09.08-.13.12l-3.29,2.67c-.17.14-.48.28-.49.42,0,1-.8,1.24-1.5,1.58a26.67,26.67,0,0,0-2.39,1.2,9.6,9.6,0,0,1-5.18,1.69,4.17,4.17,0,0,0-1,.2c-2.25.6-4.42,1.62-6.86,1-2-.53-4.06-.9-6-1.49-1.54-.46-3-1.23-4.51-1.71a16.41,16.41,0,0,1-5.17-2.72,9.45,9.45,0,0,1-3.12-3.4,36.06,36.06,0,0,0-2-3.58c-1.49-2.48-2.56-5-1-7.85a1.54,1.54,0,0,0,.13-1.13A4.58,4.58,0,0,1,1,42.4a50.67,50.67,0,0,0,2.37-6.54C3.7,34.54,4,33.13,5,32.39c1.55-1.2,2.52-2.9,4-4.05,2-1.56,4.18-2.9,6.3-4.31.21-.15.69-.24.83-.12.82.75,1.43,0,2.12-.2a40.23,40.23,0,0,1,4.08-1.3,5.31,5.31,0,0,1,2.31.08c1.62.36,3.2.85,4.77,1.28C31.08,20.85,36,8.25,36.12,6.4Zm68.82,44.69c.26.77.7,1.41-.2,2.23-.54.49-.58,1.55-.94,2.65a8.22,8.22,0,0,1,.46,5.88,8.82,8.82,0,0,0-.23,2.46c0,.3.5.86.67.83,2.17-.44,4.54.13,6.74-1.23a9.21,9.21,0,0,0-.86-1.09c-.93-.93-1.9-1.82-2.86-2.73-.21-.2-.58-.41-.6-.63a4.79,4.79,0,0,0-1.24-3.19c2.91,1.61,5.17,3.94,7.67,5.93,1.19-1.15,1.19-1.15,1.75-5.28h-1.36c-1.3,0-2.6,0-3.9-.08-.35,0-.47-.31-.68-.52A10,10,0,0,0,106.93,55c3-.32,5.58.63,8.23.43a2.63,2.63,0,0,0,.23-2.68,1.94,1.94,0,0,1-.24-1.19c.41-1.2-.53-1.52-1.07-2.17-1,1-1.91,1.83-2.84,2.65a3.56,3.56,0,0,1-3.54,1l5.78-5.6a5.6,5.6,0,0,0-4.26-4.72c-1,2-2,4-3,5.94a1.53,1.53,0,0,1-1.73.95c.37-.93.73-1.86,1.11-2.79.09-.22.27-.4.34-.63a10.2,10.2,0,0,1,3.21-4.73,5,5,0,0,0-2.57-.86c-1.18-.19-2.38-.24-3.57-.38a4.73,4.73,0,0,0-4.65,1.68,6.16,6.16,0,0,1-1,.79c-.23-.83-.17-1.45.49-1.9a7.52,7.52,0,0,1,2.13-1.26c2.05-.5,4.14-.91,6.25-.11.6.23,1.33.16,1.93.39,1.09.42,2.29.69,2.89,1.92.16.34.62.53.94.79a8.38,8.38,0,0,1,3,4.57,7.84,7.84,0,0,0,.88,1.73c.36.67.74,1.34,1.1,2,1,1.88.55,3.87.36,5.81a20.78,20.78,0,0,1-1,4.16,4.84,4.84,0,0,1-1.06,2c-1.58,1.51-3.17,3.06-5.5,3.42a7.78,7.78,0,0,0-1.34.5,3,3,0,0,1-1.17.35c-2-.26-3.89.42-5.82.62a23.31,23.31,0,0,1-4.08-.21,18.72,18.72,0,0,1-2.12-.34c-.34-.07-.84-.12-1-.35-.48-.82-1.27-1-2-1.25-.47-.18-.78-.82-1.11-1.28s-.49-1.1-.91-1.44a7,7,0,0,1-2.69-7.07c0-.1-.06-.22-.18-.56l-5.92-.33c-.7,1.89,0,3.38.58,4.86a18.08,18.08,0,0,0,8,9.32,21,21,0,0,0,11.59,3.22c1,0,2,0,3,.07a3.11,3.11,0,0,0,2.4-.81,4.37,4.37,0,0,1,2.51-.67,6.5,6.5,0,0,0,3.5-1.21,3.32,3.32,0,0,1,1.06-.6,3.06,3.06,0,0,0,2.15-1.7,4.27,4.27,0,0,1,2.52-2.18c1.49-.42,1.75-1.65,2.27-2.75.22-.47.27-1,.46-1.51a5.85,5.85,0,0,0,.28-4.67,3.09,3.09,0,0,1,.1-2.61,4.53,4.53,0,0,0-.48-4.59,12.32,12.32,0,0,1-1.74-5,5.81,5.81,0,0,0-2.15-3.74c-.86-.73-1.93-1.21-2.81-1.92s-1.71-1.6-2.59-2.44l-1.08.67c-.19-.08-.34-.1-.39-.18A3.35,3.35,0,0,0,108,35.09c-2.32-.28-4.7-.9-7-.23-2.54.73-5.24,1.06-7.5,2.57,1.52,2.36,3,4.64,4.45,6.9s3,4.43,4.55,6.75c1.06-1,.31-1.85,0-2.59-.63-1.86-1.42-3.66-2.06-5.51-.38-1.11-.3-1.13.78-2.35.33.7.67,1.29.9,1.92.84,2.34,1.65,4.7,2.48,7.06C104.7,50.1,104.79,50.61,104.94,51.09ZM13.49,27.54c-1,.63-1.94,1.2-2.83,1.9s-1.88,1.23-2.17,2.48c-.1.43-.7.74-1.07,1.1-.73.72-1.87,1.18-1.5,2.55a.4.4,0,0,1-.06.34c-1.33,1.31-1.23,3.2-2,4.75a9.14,9.14,0,0,0-1,2.64,10.87,10.87,0,0,0,.43,2.84c.06-.18.05,0-.06.15C1.63,48,1.94,49.9,2.82,51.75a53.74,53.74,0,0,0,3.26,6,11.33,11.33,0,0,0,5.08,4.16c2.13.93,4.31,1.76,6.44,2.69a13.85,13.85,0,0,0,7.69,1,30.85,30.85,0,0,0,9.37-2.61,7.5,7.5,0,0,0,2.83-2.06,10.12,10.12,0,0,1,2.06-1.72,12.42,12.42,0,0,0,4.2-5.43,15.14,15.14,0,0,0,1-4.32c.16-1.58-.18-3.21,0-4.78.25-2-.8-3.58-1.17-5.37-.79-3.76-3.28-6.56-5.68-9.37a9.29,9.29,0,0,0-2-1.41c-1.33,1.16-1.45,2.7-2,4,.2.17.31.34.47.4,2,.88,3,2.6,3.61,4.6.3,1,.79,1.83,1.09,2.78.22.73.23,1.52.45,2.25a11.94,11.94,0,0,1-.37,8,1.27,1.27,0,0,0-.12.52c.24,2.14-1.12,3.34-2.58,4.5a2.07,2.07,0,0,0-.69.81A3.24,3.24,0,0,1,33.85,58a2.94,2.94,0,0,0-1.07.64c-1.54,1.88-3.77,1.74-5.84,2.05a43,43,0,0,1-4.8.56,12.19,12.19,0,0,1-3.86-.37,36,36,0,0,1-4.76-2,4.84,4.84,0,0,1-1.08-.91l-1.75-1.63A2.59,2.59,0,0,0,9.55,54.2a4.12,4.12,0,0,1-1.3-2.29,44.74,44.74,0,0,1-.83-4.48c0-.17.13-.39.06-.52-1-2,.27-3.75.49-5.6.08-.76.76-1.45,1.16-2.15l-.48-1.84,2,.22c.57-.75,1.18-1.61,1.85-2.43a21.25,21.25,0,0,1,1.81-2c1-.89,2-1.71,3-2.54.73-.6,1.44-1.34,2.52-.92s2-2.12,3.27-.3l3.81.5C28.11,28.62,28,26.76,29,25c-.91-.09-1.59-.19-2.28-.21-1.53,0-3.07,0-4.6-.1-.31,0-.61-.34-.92-.52l2,.31,0-.35-1.95.08A18.28,18.28,0,0,0,13.49,27.54ZM101,52.16a6.39,6.39,0,0,1-2.55-2.65,13.59,13.59,0,0,0-1.45-2c-.42-.63-.76-1.33-1.18-2s-.71-.94-1.06-1.42a11,11,0,0,1-1.5-2.53l-1.2-.38a3.34,3.34,0,0,0-.85-3c-2.14-2.49-4.17-5.07-6.32-7.56-1.36-1.58-2.83-3.06-4.27-4.58a2.84,2.84,0,0,1,.06-4.37,10.4,10.4,0,0,0,2.39-4l-3.5-.61c-.3.71-.54,1.25-.75,1.8a7.89,7.89,0,0,1-3.71,4.11,3,3,0,0,1-1.37.24c-2.93,0-5.87.07-8.79-.08A58.91,58.91,0,0,1,54.8,22.05a48.52,48.52,0,0,0-5.66-.82c-3-.32-6-.53-8.91-.89-1.19-.15-2.54-.28-2.88-1.85a3,3,0,0,1-.1-1.18c.52-2.45,1.13-4.88,1.64-7.34a28.8,28.8,0,0,1,2.47-6.71H36.59c.48.63,1.24,1.23,1.39,2a4.79,4.79,0,0,1-.51,2.36c-.79,2.18-1.69,4.32-2.45,6.5a144,144,0,0,1-5.34,13.68c-1.2,2.58-2,5.35-3,8-1.16,3-2.38,6-3.58,9-.11.26-.24.51-.36.75,1.82,1.25,2.24,1.24,3.1-.49,1-2,1.76-4,2.61-6.08.72-1.71,1.41-3.42,2.12-5.13.09-.22.16-.51.34-.63,1.91-1.36,2-3.69,2.95-5.55s1.63-3.57,2.47-5.36a9.53,9.53,0,0,1,.84-1.19c3,3.93,5.92,7.74,8.91,11.46,1.44,1.81,3.07,3.47,4.64,5.19,1.21,1.32,2.46,2.6,3.65,3.93,2.39,2.68,4.75,5.38,7.11,8.08a4.83,4.83,0,0,0,3.46,1.64l8.24.49c1.13.07,2.25.21,3.39.28,2.8.18,5.61.29,8.41.51,3.51.27,7,.55,10.52,1,1.7.21,3.36.76,5,1.13,1.13.25,1.84-.17,2.45-1.44C102.31,52.94,101.62,52.6,101,52.16ZM16.81,58a8.64,8.64,0,0,1,.76-1.14c.36-.38.5-1.22,1.37-.74.07,0,.4-.33.57-.54a8.76,8.76,0,0,1,2-2l-2,5.1h4.24a15.34,15.34,0,0,0,.76-5.19c0-1.32.39-1.94,1.87-3.08.21,2.65.82,5.12,0,7.86,2.15-.07,4.17,0,5.89-1.53-.35-1.84-2.1-2.59-2.88-4s-1.68-2.82-2.4-4a21.24,21.24,0,0,1-3.33-.4,5.74,5.74,0,0,1-3.12-2.84c-.73-1.21-.39-2,1-2.58l.55-.22.73-2.14c-1.5-2.22-1.95-2.41-4.26-1.82-1.68-1.14-2.18-2.86-2.25-5-1.84,1.11-2.2,3.13-3.84,4.5l5.73,2.42c-1.49,1.18-1.87,1.12-7-1C9.07,40.88,9.67,42.92,9.63,45a16,16,0,0,1,9.17-.8,5.15,5.15,0,0,1-3.14.7A12,12,0,0,0,10.82,46,2.13,2.13,0,0,0,9.64,48.4a11,11,0,0,0,1.84,4.83,9.57,9.57,0,0,0,4.12-3.68c.63-.92,1.13-1.82,2.42-1.87.37,0,.7-.41,1.07-.6s.69-.31,1.08-.49C19,48.17,18,49.73,16.83,51.09s-2.66,2.53-4.3,4.06ZM36.52,38.64c-2.18,1.2-4.39,2.42-6.59,3.67a1.45,1.45,0,0,0-.56.66c-.73,1.57-1.42,3.14-2.17,4.83l6.35,8.49.79-1c.38-.51.67-1.28,1.18-1.48,1.14-.44,1.35-1.36,1.79-2.48C34.55,50.75,32,50,30,47.9L37.21,50c1.36-3.21,1.43-3.81.5-5.14-1.86,2-4.33,1.93-6.76,2a8.62,8.62,0,0,1-2-.43l0-.47a39.29,39.29,0,0,0,4.48-.65,40.69,40.69,0,0,0,4.32-1.62C37.6,42,37.77,40.25,36.52,38.64Zm59,26.12a30.65,30.65,0,0,0,1.74-2.68c.63-1.2,2.11-1.92,1.85-3.71l1.31.53c0,2.39-1.17,4.32-2.45,6.26l3.14.25c.69,0,1.22-.2,1.29-.93.27-2.7,1.51-5.33.45-8.15a3.85,3.85,0,0,1-3-.24c-.51-.27-1.38.2-2.07.14-1.76-.16-3.51-.44-5.27-.63-1.18-.13-2.37-.18-3.73-.28.14,1.51.25,2.83.38,4.26l7.07-2c-.12.53-.1,1-.28,1.08a14,14,0,0,1-2.52,1.3c-1,.38-2.17.6-3.54,1A9.54,9.54,0,0,0,95.52,64.76ZM54.25,4.16c.37-1,.37-1-.26-1.95L42.87,3.45l1.88.63-.32.67c3.13.79,6.18.38,9.24,0l-4.39-.24V4.4ZM24,30.62c-1.2,1.29-1.19,1.29-1.15,3.1,0,1,0,1.92,0,2.88a4.1,4.1,0,0,0,.68,1.91c1.08-2.55,2.17-5.1,3.25-7.64l-.23-.36C25.68,31.17,24.8,31.41,24,30.62ZM36.31,36.9c-.2-1.54-1.56-2.2-3-3-.9,2-1.8,3.88-2.7,5.81l.29.23ZM20.72,31.43c-2,.11-2.7,1-2.08,2.61.42,1.1.9,2.19,1.37,3.27.08.18.27.3.67.74C21,35.6,20.64,33.52,20.72,31.43ZM27.42,2c-.54,0-1.18-.13-1.25.61s.49.9,1.06.91c1.35,0,2.7,0,4.45,0A5.57,5.57,0,0,0,27.42,2Z"/><path d="M80.25,29.17c1.31,1.74,3,3.15,4.43,4.83,3.23,3.89,6.39,7.84,9.53,11.81a9.41,9.41,0,0,1,1.41,2.46,1.94,1.94,0,0,1-2.17,2.49c-2.6-.3-5.22-.48-7.83-.74a23.09,23.09,0,0,1-3.72-.48,28.74,28.74,0,0,0-6.72-.88,24.72,24.72,0,0,1-2.81-.41c-.58-.08-1.17-.12-1.76-.21-.82-.12-1.66-.21-2.46-.41a1.11,1.11,0,0,1-.72-.68,3.1,3.1,0,0,1,.31-2.69c1.77-2.47,3.38-5,5-7.63s3.17-5.19,4.76-7.78c.24-.39.57-.73.9-1.16A3.76,3.76,0,0,1,80.25,29.17Zm-.79,1.2a52.16,52.16,0,0,0-4.88,7.71c-1.47,2.52-3.17,4.9-4.93,7.58,4.35.72,8.49.91,12.64,1.45.17-2.48,1-4.43,3.13-5.62A12.61,12.61,0,0,0,87,40.33c-1.35-1.77-2.47-3.29-3.66-4.75-.44-.54-1-.92-1-1.75,0-.32-.51-.62-.79-.93l-.7-.94Zm10.7,14.2-1.8-2.47c-2,1.48-3.88,2.89-5.17,5.31l4.8.21Zm.5,3.23H93L91.43,46Z"/><path d="M59.52,42.88c-2.65-2.74-5.33-5.46-7.89-8.29s-4.84-5.59-7.2-8.43A1.68,1.68,0,0,1,44,24.1c4.95.56,9.9,1.25,14.87,1.65s9.94,1.16,15.27.63c-3,6.75-6.93,12.61-10.91,18.43A5.34,5.34,0,0,1,59.52,42.88Zm5.42-15.12c-2.33.12-4.62-.06-6.93-.16-2.68-.11-5.36-.42-8-.73A16.68,16.68,0,0,1,47.32,26c5.12,5.84,9.77,11.53,15.4,16.65.88-1.57,1.7-3,2.54-4.52,1.13-2,2.2-4,3.45-5.86C69.3,31.42,70.44,31,71,30c.24-.46.45-.93.77-1.59A46.16,46.16,0,0,0,64.94,27.76Z"/><path d="M80.79,32c-.63.11-.57.51-.26.85s.57.93,1,.09Z"/></g></g></svg>