<svg xmlns="http://www.w3.org/2000/svg" viewBox="0 0 219.64 162.8"><defs><style>.cls-1{fill:#a34b2a;}</style></defs><g id="Layer_2" data-name="Layer 2"><g id="Layer_1-2" data-name="Layer 1"><path class="cls-1" d="M203.44,93.71l-4.67,5.52c-3.78-.9-7.8-2.5-11.7.42.43.81.86,1.63,1.27,2.39-.09.3-.09.59-.23.73a40.62,40.62,0,0,1-12.29,8.07,3.3,3.3,0,0,1-3.31-.48c-2.6-1.57-5-.11-7.46.53-.32.08-.52.7-.74,1.1s-.31,1.09-.61,1.18c-2.45.79-3.56,3.58-6,4.14a43.05,43.05,0,0,1-7.58,1c-2.06.08-2.43-.51-3.07-3.17l-8.41,2.07c.67,3.21-.3,5-3.79,5.32-3.18.31-5.62,2.1-8.42,3.1-3.16,1.13-4.49.89-5.71-2.1-.65-1.59-2.25-2.32-4.7-2.07-1.73.18-3,1.14-3,2.9,0,3-1.52,4-4.27,4.47s-5.48,1.92-8.27,2.73a15,15,0,0,1-5.52.86,9.24,9.24,0,0,1-4.17-2.2,8.43,8.43,0,0,1-1.65-2.41c-2.6-.35-5-.63-7.38-1A2.42,2.42,0,0,0,79,128c-.26.39-.71.73-.8,1.16-.93,4.15-4.55,4.68-7.69,6.19-4.14,2-8.59,2.74-12.82,4.22a11.13,11.13,0,0,1-6.58.53c-4.67-1-5.62-5.1-6.87-8.59-1-2.79-1.35-5.85.36-8.9,1-1.78.54-4-.72-6A132.39,132.39,0,0,1,32.13,92.81c-1.26-3.31-2.34-6.69-3.3-10.09A55.82,55.82,0,0,0,20.54,66a48.23,48.23,0,0,1-6.62-14,59.08,59.08,0,0,1-2.13-15c0-1.4-.35-2.79-.53-4.2-.79-.33-1.48-.89-2.08-.81-2.74.41-3.72-1.32-4.63-3.39A57.3,57.3,0,0,1,.16,14.18c-.58-3.76.46-6.71,1.89-9.75,1.32-2.8,3-3,5-.57a20.37,20.37,0,0,1,3.09,5.45c1.07,2.7,1.78,5.55,2.84,9,1.09-1,1.83-1.64,2.5-2.33s1.38-2.15,2.31-2.42A16,16,0,0,1,23.33,13a8.14,8.14,0,0,1,4.82,2.46c2.43,2.21,4.87,4.44,7.49,6.41a11,11,0,0,0,8.51,2.41,5.53,5.53,0,0,0,3.41-1.47C52.25,18.18,56.93,13.58,60.63,8A42.47,42.47,0,0,1,66.5,1.46c2.13-2.08,6.76-1.92,8.63.37a24.84,24.84,0,0,1,3.06,5.51,42,42,0,0,1,1.66,5C81,16,82.07,19.72,83.15,23.28c1.71,1.44,3.71,2.71,5.11,4.46.82,1,.68,2.84.95,4.24l-2.06.74,1.38,5.67A7.62,7.62,0,0,1,95.1,44c.31.91-.29,2.13-.56,3.74.82,1.55,2.28,2.23,4.86,1.6,1.91-.47,4.1.24,6.26.44a18.94,18.94,0,0,0,.45,2.78c.2.64.52,1.54,1,1.73,2.32.87,4.46,2.67,7.24,1.48,3.61-1.55,5.7,1.31,8,3.11.65.52.44,2.12.69,3.57a11.13,11.13,0,0,0,2.6-.43c1.46-.6,2.58-2,4.53-1.27,2.54,1,5.4,1.63,6.64,4.27,1,2,2.46,2.58,4.45,2.84,1-2.57,3.47-2.81,5.75-3.23a8.4,8.4,0,0,1,2.83,0c4.75.78,4.64.15,5.91,5,3.93.06,8-.23,12.06.27s7.43-1.07,11-2.58c5.61-2.37,9.44-.85,12.74,3.49,2.82,3.72,5.26,7.79,5.29,12.78a4.47,4.47,0,0,0,1.48,3A80.28,80.28,0,0,1,203.44,93.71ZM26.64,66.13c.92,3.26,1.74,6.28,2.64,9.28.15.5.7.87,1,1.33a11.15,11.15,0,0,1,1.36,2c1.57,3.65,3.11,7.31,4.59,11,1.13,2.85,2,5.79,3.26,8.59,1.45,3.34,3.12,6.59,4.74,9.86.71,1.44,1.53,2.83,2.52,4.63,6.76-3.89,13.48-6.91,20.64-8A95.81,95.81,0,0,1,96.52,66.12L91,63.33c-.5,1.7-.91,3.09-2.75,3.38-1.68.25-3.31.5-4.71-.55a6.26,6.26,0,0,1-2.65-4c-.44-2.73,1.88-3.77,3.21-5.11-1.34-1.47-2.38-2.71-3.52-3.85-.64-.63-1.51-1.6-2.17-1.53-2.68.28-4.45-1.44-6.41-2.6a4,4,0,0,1-.76-6.33,13.09,13.09,0,0,1,1.91-1.38c-.9-2.24-1.75-4.38-2.6-6.5a16.92,16.92,0,0,1-2.69,0c-3.81-.65-4.4-2.39-3.52-5,.36-1.1.84-2.17,1-2.65L61,13.88c-1.92,2.4-3.63,4.32-5.09,6.42a4.07,4.07,0,0,0,.16,5.48,12.28,12.28,0,0,1,1.74,3.79c.9,2.43,1.84,4.85,2.51,7.35.85,3.18,1.5,6.42,2.11,9.65A3.43,3.43,0,0,1,62,48.88c-2.53,3.81-4.8,7.88-7.86,11.23a60.72,60.72,0,0,0-8.54,11.53c-2.43,4.36-6,4.49-8.65.29a59.61,59.61,0,0,1-3.32-6.88Zm44.6,37.77a4.74,4.74,0,0,0,1.25.1c5.54-1.43,11.23-1.17,16.87-1.52,4.12-.25,8.26-.21,12.38-.43,7.52-.41,15-.85,22.55-1.38,3.88-.27,7.76-.63,11.6-1.18,7.55-1.07,15.06-2.31,23-3.53.57-1.69,1.19-3.58,1.85-5.46,1.41-4,2.69-8,4.33-11.93.79-1.88,2.28-3.46,3.41-5.12l-14.09-.88a18.74,18.74,0,0,1-1.55,2.89,11.36,11.36,0,0,0-2.75,6,3.3,3.3,0,0,1-1.72,2,7.77,7.77,0,0,1-11-3.93c-.64-.17-1.31-.39-2-.52-2.51-.47-5.26-2.18-7.08,1.3-.08.16-.39.26-.6.28-3.25.31-6.42,1.76-10.31.44-.29-1.4-.65-3.12-1-5l-4.47-2.39c-2.35,2.21-5.07,2.58-8,2.24-3.27-.38-4.51-2.87-5.48-5.56C90.75,75.07,72.67,97.48,71.24,103.9Zm86.83,5.48a13.24,13.24,0,0,1,1.25-1c3.62-2.22,7.76-2.61,11.82-3.28a2.23,2.23,0,0,1,1.62.45c1.85,1.65,3.56,1.17,5.37,0a25.16,25.16,0,0,1,2.85-1.41c3.47-1.73,3.49-1.79,2.76-6.1,2.6-.83,5.3-1.57,7.9-2.59,1.26-.5,2.24-.91,3.62-.19s2-.55,2.53-1.63L192.85,88c-4.06,2.75-8.25,5.38-13.14,6.6-.67.17-1.23.7-1.89.93-1.65.58-3.31,1.18-5,1.6-2.16.55-4.49.61-6.51,1.45-6.28,2.62-13.05,2.83-19.59,4.12-4.57.89-9.28,1-13.92,1.52-1.52.17-3,.56-4.53.66-3.77.25-7.53.53-11.3.52-5,0-10,1.05-15-.17a5.53,5.53,0,0,0-1.74.14c-5.61.56-11.22,1.15-16.83,1.69-3.86.36-7.74.6-11.59,1-1.23.14-2.72.28-3.15,1.84-.37,1.37-1,2.84-.8,4.14.52,3.14-.39,6-1,8.93s-.84,5.74-1.24,8.7a9.63,9.63,0,0,0,8.27-5.06,4.57,4.57,0,0,1,4.28-2.51c3.4-.2,6.79-.7,10.2-.87,3-.15,6-.13,6.66,3.67,4.31.91,7.36-2.1,11.06-2.39.09-.81.13-1.4.23-2a4.25,4.25,0,0,1,4.55-3.94c3.62.1,7.25.29,10.87.41a2.54,2.54,0,0,1,2.57,1.46,8.88,8.88,0,0,0,1.35,1.61l7.78-3c-.4-1.27-.73-2.13-.93-3-.38-1.75.11-2.32,1.88-2.61,3.94-.64,7.86-1.37,11.8-2,1.44-.23,2.91-.24,4.49-.35-.29,1.5-.49,2.54-.73,3.75,3.8.44,6.38-1.54,9.29-2.73C158.78,111.13,158.48,110.38,158.07,109.38Zm-128.33-85C31.9,36.42,35.36,48,38.43,59.52c.86,0,1.22.08,1.56.07,5.95-.3,11.92-.55,14.67-7.3a2.88,2.88,0,0,1,.69-.8A7.42,7.42,0,0,0,57.19,44c-.86-3.42-1.32-6.94-2.2-10.36-.83-3.25-2-6.42-3.15-10.08-3.75,2.44-6.79,5.45-11,5.26A18.14,18.14,0,0,1,29.74,24.36Zm2.78,36Q29.92,50.23,27.31,40c-.23-.91-.43-1.82-.59-2.74-.26-1.49-.48-3-.73-4.49-.62-3.81-1.79-7.56-1.3-11.5a4.63,4.63,0,0,0-2.59-4.76c-1.42-.55-3,.44-4,2.63a8,8,0,0,0-1,3c0,5.45-1.87,10.92.22,16.38a22.23,22.23,0,0,1,.9,4.85,58,58,0,0,0,5.92,18.91C29.61,62.22,29.62,62.22,32.52,60.37ZM161.44,95c11.13-2.42,21.66-5.47,31.2-12.16-2.16-3.25-3.12-7.2-6-10.08a5.15,5.15,0,0,0-1.67-1.3c-1.17-.43-2.55-1.13-3.63-.87-6.18,1.52-11.36,4.59-14.11,10.64C165.2,85.7,163.43,90.27,161.44,95ZM66.11,110.26c-3.72-.08-15.33,3.91-17.42,5.89a2.14,2.14,0,0,0-.71,1.16c-.35,3-.63,6-.9,9a2.5,2.5,0,0,0,.36,1c1.19,2.75,2.38,5.51,3.69,8.51,3.27-.87,6.22-1.55,9.08-2.49a3.14,3.14,0,0,0,1.5-2.07c.75-3.21,1.28-6.47,1.95-9.7C64.44,117.82,65.28,114.08,66.11,110.26ZM80,24.12C77.27,18,74.77,12.33,72.12,6.69c-.56-1.18-1.31-2.6-3.12-2.35-1.25,1.45-2.45,2.9-3.7,4.3a4,4,0,0,0-.92,4.51c1.56,4,2.89,8.15,4.42,12.54Zm38.9,54.35c2.49.47,4.53,0,5.76-1.64,2.86-3.79,5.83-7.55,8-12.12l-3.56-1.55C124.23,67.34,122.06,73,118.9,78.47ZM8.91,26.56a68.89,68.89,0,0,1-2.41-8c-.44-2.46-1.87-4.91-.73-8.36C8.89,15,8.5,20.48,12.31,24,9.6,17.88,9.25,10.93,5.75,4.86,2.2,9.33,4,21.69,8.91,26.56Zm75,12.9a26.74,26.74,0,0,0-.5-4.39,2.28,2.28,0,0,0-1.67-1.4c-2.51,0-5,.36-8.06.62.8,2.61,1.45,4.74,2.09,6.85ZM67.05,29.33c.21,3,1.92,2.55,3.19,2.42,3.05-.33,6.06-1,9.11-1.22,2-.16,3.93-.22,5.89-1.6-.41-.9-.82-1.78-1.19-2.6Zm36.11,41.86.49,1c1.4-.41,3.21-.41,4.13-1.31,3.21-3.12,6.12-6.56,9.14-9.88-1.3-.32-2.58.41-3,.06-2.34-1.84-2.69.29-3.52,1.54a29.47,29.47,0,0,1-2,3.09C106.67,67.55,104.89,69.35,103.16,71.19Zm4.57-12.76L103,55.37c-2.66,1.86-5.62,3.25-6.73,6.37,2.84,3.13,5.34,1.87,7.81-.36C105.09,60.44,106.24,59.61,107.73,58.43Zm35,20.54,1.16.71c3.77-3.08,5.7-7.37,7.54-12A8.61,8.61,0,0,0,145.09,69a43.48,43.48,0,0,1-.61,5.29A39.48,39.48,0,0,1,142.75,79ZM73.3,45.2c1.76,2.16,3.12,3.34,5.06,2.52C82,46.2,85.5,44.49,89,42.79c.27-.13.29-.8.63-1.8-2.51.62-4.59,1.11-6.66,1.64C80,43.42,77,44.23,73.3,45.2Zm10.18,5.92c4.13,4.64,6,5.79,10.79-.2l-2.78-3.34ZM41.68,70l.83.16,5.9-9.26c-3.38.83-6.24,1.16-8.58,3.28C40.48,66.23,41.08,68.13,41.68,70Zm72.59,1.4,5.32.43c1.09-1.77,2.17-3.5,3.24-5.23C119.43,64.34,117.67,65.32,114.27,71.42Zm26.63-.09-5-2.44c-1,1.83-1.94,3.5-3.17,5.69l5.63.77ZM101.15,51.92l-.51-.61c-.22,0-.51-.14-.65-.05-3.47,2.37-6.9,4.79-10.4,7.12-1.4.94-1.89,2.2-2,4.18C92.67,59.3,96.79,55.46,101.15,51.92Z"/><path class="cls-1" d="M66.21,146.31c-1.4,1.37-3,2.73-4.37,4.29-1.93,2.21-3.77,4.52-5.52,6.88a9.62,9.62,0,0,1-5.29,3.9c-3.63,1-7.2,1.84-11.1,1.19A103.7,103.7,0,0,1,25.26,159c-3.29-1-4.84-3.63-5.36-6.88a72.38,72.38,0,0,0-4.15-16A18.16,18.16,0,0,1,16,122.27c1.06-2.73,2.14-5.46,3.3-8.14,3.34-7.69,9-8.19,15.75-5.7,1,.35,1.62,1.51,2.41,2.29l-.36.75c-1.68-.34-3.35-.8-5-1a17.11,17.11,0,0,0-5.1,0c-2.6.52-2.92,3.27-3.78,5.13a58.15,58.15,0,0,0-3.75,11,13.16,13.16,0,0,0,.09,6.91,123.6,123.6,0,0,1,4.72,19.86,11.06,11.06,0,0,0,.35,1.36c5,1.13,9.79,2.51,14.63,3.19,4.62.65,9,.18,12.41-4.06,3.76-4.66,7.94-9,13.85-11.22,1-.35,1.62-1.58,2.36-2.45.53-.63.92-1.38,1.45-2,.87-1.06,1.59-2.55,3.41-1.66,1,.48,1.64,2.62,1.1,4.06a41.24,41.24,0,0,1-1.94,3.88,6.48,6.48,0,0,0,2.29.84c7.69-.49,14.49,2.32,21.44,5.66,1.8-.88,3.84-1.79,5.8-2.85,4.23-2.31,8.52-4.52,12.59-7.1,3.61-2.28,6.55-5.29,7.76-9.65a20.65,20.65,0,0,1,1.69-3.48c4.25,2.51,4.94,4.94,2.73,9-3.15,5.73-8.2,9.27-13.82,12.2-2.91,1.52-5.65,3.47-8.68,4.67s-5.92,3.56-9.58,2.16a7.46,7.46,0,0,1-2-.75c-4.67-3.77-10.07-5.34-16-5.59C70.91,149.31,70.78,149.25,66.21,146.31Z"/><path class="cls-1" d="M196.14,115.49c-.37-3.53.16-6.32,2-8.79a2.73,2.73,0,0,0,.71-1.2c.39-4.3,4.46-4.87,7-6.91a3.43,3.43,0,0,1,2.66-.38,17.66,17.66,0,0,1,4.15,1.83,3.07,3.07,0,0,1,1.77,3.5c-.47,2.26-.77,4.57-1.19,6.85-.19,1-.62,2-.76,3.06-.36,2.69-2,4.33-4.55,4C204.1,117,200.23,116.18,196.14,115.49Zm2.81-2.88c2.49.36,4.52.71,6.56.92a3,3,0,0,0,3.31-2.12,46.34,46.34,0,0,0,1.56-7.49c.22-1.65-.79-2.52-2.54-2.62-3.16-.18-4.06.37-5.49,3.51-.64,1.39-1.43,2.69-2.06,4.08C199.83,109.91,199.52,111,199,112.61Z"/><path class="cls-1" d="M187.62,118.25c.29,2.25-.53,3.38-1.66,4.9-3.09,4.17-7.22,6.75-11.58,9.08s-8.62,4.25-13.25,6.51l-2.9-4Z"/><path class="cls-1" d="M206.46,76.53c-1.63-2.51-2.44-5.34-5.27-6.87,1.63-2.5,4-4.13,6.37-5.73,2-1.37,4.32-.64,6.43.22,1.19.48,2.33,1.1,3.48,1.7,2.18,1.14,2.95,4.23,1.2,6C215.29,75.12,211.25,77,206.46,76.53Zm2-2.46c3.18-1.32,6.43-1.47,7.25-5-3.17-3-4.68-3.06-9.14,0Z"/><path class="cls-1" d="M30.39,117.19c-1.48,4.1-3,8-4.25,12a7.18,7.18,0,0,0,.86,6.1,17.69,17.69,0,0,1,2.53,10.58c-1.54-2.86-3.18-5.44-4.37-8.22-2.43-5.71-1.46-11.31,1.12-16.73a29.08,29.08,0,0,1,2.08-3.69C28.89,116.39,29.64,116.13,30.39,117.19Z"/><path class="cls-1" d="M191.47,132l1.38,1.72c-3.21,5-7,9.34-13.49,10.12-.75-1.25.29-2.12,1.12-2.85,3.25-2.87,6.58-5.64,9.9-8.43A6.33,6.33,0,0,1,191.47,132Z"/><path class="cls-1" d="M112.47,138.58c-3.28,4.14-8,5.13-12.67,6.11a7.31,7.31,0,0,1-2.64-.49l0-.76c1.61-.87,3.2-1.79,4.85-2.59a24,24,0,0,1,5.18-2.15C108.79,138.35,110.56,136.7,112.47,138.58Z"/><path class="cls-1" d="M105,136.85c1.88-4.55,5.57-5.33,9-2.21-.29.33-.54.91-.88,1C110.46,136.06,107.86,136.41,105,136.85Z"/><path class="cls-1" d="M30.49,133.67c2.11,1.87,2.11,1.87,1.48,4.38Z"/></g></g></svg>