<svg xmlns="http://www.w3.org/2000/svg" viewBox="0 0 142 234.52"><defs><style>.cls-1{opacity:0.9;}.cls-2{fill:#fbb040;}</style></defs><g id="Layer_2" data-name="Layer 2"><g id="Layer_1-2" data-name="Layer 1"><g class="cls-1"><path class="cls-2" d="M110.67,164.49l10.5,7.65a15.9,15.9,0,0,0,2.45,1.78c4.34,2,7.6,5.48,11.68,7.83a5.84,5.84,0,0,1,1.67,1.91c.72,1.1,1.18,2.37,2,3.4,3,3.83,3.38,8.14,2.86,12.69a26.13,26.13,0,0,1-3.06,10.57c-2.73,4.59-7.11,7.34-12,9.72-4.34,2.13-8.56,1.16-12.85.52a8.26,8.26,0,0,1-5.22-2.88c-2-2.44-4.91-3.81-7.71-5.29-1.89-1-3.65-2.2-5.48-3.29-5.08-3-10.16-6-15.27-9-1.15-.68-2.4-1.2-4-1.95-1.12,1.32-2.33,2.72-3.5,4.15L54.93,224.21c-.28.33-.64.81-1,.84-2.64.22-3.84,2.22-5.53,3.73a12.76,12.76,0,0,1-4.89,2.84,128.79,128.79,0,0,1-12.92,2.85c-1.36.23-2.88-.37-4.33-.63-5.86-1-11.1-3.3-14.8-7.91-3.26-4.07-5.45-8.42-5.44-14,0-6,2.69-10.69,6-15.16a84.74,84.74,0,0,1,15.46-16c2.23-1.79,3.95-4.17,6.17-6.57a10.57,10.57,0,0,0-2.44-1.78c-3.58-1.2-6.7-3.17-9.94-5-5.08-2.88-10.32-5.52-15.42-8.38C1.09,156.4-1,150.93.49,145.36A35.9,35.9,0,0,1,11,128c3.1-2.82,7.12-4.54,11-6.43,4.49-2.2,8.67-1.71,12.94-.09,3.69,1.4,7.56,2.59,10.33,5.67.56.62,1.73.75,2.62,1.09a11.33,11.33,0,0,1,1.57.6c5.71,3.44,11.4,6.92,17.13,10.33,2,1.22,3.11,1.12,4.77-.54,3.55-3.53,6.89-7.27,10.56-10.67,2.6-2.41,5.33-5,8.51-6.47a24.11,24.11,0,0,1,21.46.13c2.73,1.32,5.37,2.81,8,4.22a1.08,1.08,0,0,1,.3.16c4.31,4.14,8.42,8.51,8.32,14.8-.08,5.49-1.9,10.48-6.43,14.23ZM122.16,178c-1.19-.81-2-1.77-2.85-1.84-2.66-.24-4.18-2.11-6.06-3.44-4-2.85-7.94-5.85-12-8.56-3.65-2.41-7.53-4.49-11.26-6.78-2.58-1.59-5-3.38-7.64-4.95-3-1.79-6.07-3.4-9.07-5.17-7.65-4.52-15.26-9.11-22.93-13.61-1.64-1-3.8-1.31-5.13-2.53-4.38-4-10.13-5.22-15.34-7.5a4.22,4.22,0,0,0-5,.74c-1.6,1.77-3.65,2.68-5.75,3.74-6.38,3.23-10.51,8.56-13.64,14.63a24.38,24.38,0,0,0-1.88,4.91,6.92,6.92,0,0,0-.16,3.84c.27.74,1.78,1.07,2.71,1.61.39.23.7.57,1.08.8,2.51,1.52,4.95,3.16,7.56,4.5,8.79,4.52,17.67,8.86,26.45,13.4,6.41,3.32,12.68,6.87,19,10.29,7.34,3.94,14.71,7.83,22,11.8A65.84,65.84,0,0,1,88,197.43c4.65,3.13,9.23,6.35,13.87,9.5,1.12.77,2.35,1.39,4,2.37-1.65-4.08-2.69-7.68-1.54-11.4.64-2.07,2-3.93,2.61-6a10.32,10.32,0,0,1,3.68-5.33c3.1-2.49,5.64-5.66,9.51-7.23A15,15,0,0,0,122.16,178ZM103.29,160c2.93,2.25,3,2.4,5.64.52a122.21,122.21,0,0,0,10.46-8.31c2.64-2.41,5-5.4,3.89-9.2a76.73,76.73,0,0,0-3.94-9.68,9.37,9.37,0,0,0-2-3c-1.77-1.64-3.5-3.6-5.67-4.51a37.76,37.76,0,0,0-9.82-2.48c-2.71-.34-5.48-.9-8.31.49a29.59,29.59,0,0,0-10.65,8.38c-1.78,2.28-3.57,4.4-6.37,5.7-1.42.66-2.45,2.09-4,3.51L77,144.72,87.26,137l.57.67L79,145.52a25.37,25.37,0,0,0,2,1.55c2.64,1.64,3.19,1.42,5.6-.59,4.8-4,9.74-7.81,14.65-11.68a19,19,0,0,1,2.18-1.25c.11.6.4,1.14.23,1.38-1.08,1.62-2,3.46-3.47,4.68-3.16,2.63-6.63,4.93-9.94,7.39-1.15.86-2.23,1.81-3.54,2.88,1.08.86,2,1.51,2.79,2.23a3,3,0,0,0,4.27.16c2-1.63,4.55-3,5.72-5,2.82-5,7.63-7.69,11.9-11.07,1.08-.85,2.08-.91,2.94.18s.52,2-.52,2.84c-1.32,1-2.56,2.18-4,3.1a17.63,17.63,0,0,0-5.43,4.79c-1.11,1.69-3,2.9-4.64,4.26s-3.2,2.59-5.21,4.2l6.56,3.43L112.5,148.5c0,1.34.16,2-.08,2.53C110.47,155,106.54,157.15,103.29,160ZM49.34,213.84l.75.08c-.39-3.08-.42-6.26-1.26-9.24-1.09-3.9-3-7.51-7.36-9.12-2.1-.77-4.18-1.86-6.36-2.15-2.64-.36-5.62-.65-8,.19-2.76,1-5,3.21-7.5,4.91-.8.55-1.56,1.14-2.35,1.7a19.69,19.69,0,0,0-7,8.11,3.16,3.16,0,0,0-.45,1.54c.66,4.21.93,8.3,3.83,12.14,4,5.32,15.27,9.06,20.65,7.5a30.14,30.14,0,0,0,9-4.42C47.15,222.36,50.58,219.31,49.34,213.84Zm73.1,2.49c1.26-.44,3.14-1.07,5-1.76.63-.23,1.16-.72,1.8-.93,3.56-1.17,5.42-3.82,6.72-7,.42-1,.76-2.07,1.26-3,2.47-4.8,1.33-9.56-.13-14.32a4.71,4.71,0,0,0-.54-.83c-2.14-3.47-5.86-4.25-9.52-5.06-4.11-.92-7.32.62-10.56,3.08-4,3.05-6.09,7.23-8.35,11.34a7.37,7.37,0,0,0-.31,6,28.23,28.23,0,0,0,3.33,6.4C113.6,214.15,117.42,215.39,122.44,216.33ZM54.73,185.88c-.74-.47-1.45-1-2.21-1.41-2.14-1.18-2.2-1.11-3.87.78-1.33,1.49-2.83,2.85-4.19,4.32-.81.87-1.64.78-2.89.39l6.48-8-4.78-3c-1.79,1.54-3.45,3-5.11,4.43s-2.91,3.45-6.09,3.77c2.52-3.71,4.86-6.8,8.47-8.88-4-3-4.47-3-7.34.41a38.93,38.93,0,0,1-2.54,3c-4.07,3.94-8.2,7.82-12.3,11.73a17.45,17.45,0,0,0-1.15,1.53c2.37-1.43,4.1-2.53,5.9-3.53a5.28,5.28,0,0,1,2.48-.88c3.92.14,7.82-.62,11.78.69s8,2.53,10.9,5.45c1.88,1.9,3.07,4.46,4.34,6.84.24.44-.59,1.41-1,2.24l2.56.88,11.64-14.62c-.69-1.09-1.43-1.56-2.22-.55-2.6,3.36-5.11,6.76-7.82,10.36l-2.94-.5c1.44-5.2,7.35-7.2,8.58-12.39l-3.08-1.68c-1.46,2.37-3.4,3.51-6.1,2.76C51.48,187.78,53.85,187.37,54.73,185.88Zm14,7.42c-.78.85-1.41,1.46-2,2.14-4.11,5.08-8,10.33-12.37,15.2-2.19,2.44-1.76,4.89-2,7.44l.66.13c.25-1,.5-2,.77-3.14l1.05,1.5L71.9,195.19Z"/><path class="cls-2" d="M53.84.57c4.37-1,6.17-.7,8.88,1.26a2.59,2.59,0,0,0,.59.32c6.36,2.3,10.58,7.39,15.75,11.23a26.43,26.43,0,0,1,3.57,3.95c6.92,7.86,9.83,17.11,9.93,27.22,0,2.68-1,5.36-1.22,8.07A17.47,17.47,0,0,0,93.43,63c1,1.74,2.45,3.38,4.86,3a5.12,5.12,0,0,0,4.28-4.21c.76-3.52,1.35-7.08,2-10.61.46-2.37.89-4.74,1.41-7.09a24.65,24.65,0,0,1,6.5-11.72c2.91-3.07,5.86-6.09,9.94-8.14.78,1.18,1.55,2.34,2.37,3.56-.93,2.29-2,4.56-2.75,6.93-1.54,5.09-.66,10.14.4,15.23,1.51,7.27,2.9,14.57,3.92,21.92.32,2.25-.59,4.73-1.24,7a74.83,74.83,0,0,1-2.69,7.42c-1.56,3.88-4.56,6.74-7.58,9.58-4.57,4.31-9.92,7.65-15.13,11.16-2.51,1.7-4.79,4-7.58,5-4.87,1.59-8.47,5.69-14.7,6.28,3.15-2.62,5.64-4.89,8.34-6.89,5.74-4.27,11.62-8.36,17.38-12.6,2.15-1.59,4.68-3,6.09-5.14,3.2-4.76,7.29-9,8.68-14.88a37.46,37.46,0,0,0,1.11-13.9c-.93-7-1.49-14.13-1.9-21.21a103.45,103.45,0,0,1,.41-10.79c-1.21.37-1.73,1.62-2.31,2.66-4,7.2-4.82,15.14-5.85,23a22.56,22.56,0,0,1-1.92,6.57C106,68.38,99.94,71,96.15,70.21A14.31,14.31,0,0,1,84.64,55c.17-3,.14-6.1.17-9.15a46.87,46.87,0,0,0-2.69-17,13.53,13.53,0,0,0-2.76-4.66,25.45,25.45,0,0,1-2-3c-.86-1.25-1.76-2.48-2.82-4,.48,3.09.77,5.83,1.33,8.51,1.35,6.44-.28,12.6-1.67,18.79a28,28,0,0,1-1.68,5.66,17,17,0,0,1-3.58,5.47c-3.11,2.79-6.38,5.56-10.65,6.73a7.4,7.4,0,0,1-2.93.08c-6.42-1-9.81-5-11.42-10.71-.38-1.37-.68-2.76-1-4.14-1-4-3.31-7.2-6.32-10.8a24.67,24.67,0,0,0,0,3.5c.58,3.81-.47,7.3-1.66,10.89-2.88,8.73-8.23,16-14,23.09-3.35,4.16-5.52,9-4.75,14.29.55,3.79,1,7.82,3.9,10.94a26.13,26.13,0,0,0,2.45,2.25c2.74,2.28,5.55,4.49,8.23,6.83a3.21,3.21,0,0,1,.35,4.36c-3-1.94-5.87-4-9-5.77a14.65,14.65,0,0,1-5.85-5.36,41.94,41.94,0,0,1-2.39-5.3c-.73-1.94-1.72-3.92-1.8-5.91A23.13,23.13,0,0,1,13,82.44c1.13-3.49,1.89-7.11,4.43-10.17a93.9,93.9,0,0,0,7.92-11.4c3.24-5.39,6.32-11,6.75-17.33.24-3.65-.56-7.38-1.06-11.06a6.36,6.36,0,0,0-1.41-2.59c-1.64-2.21-3.4-4.34-5-6.57a5.5,5.5,0,0,1-.51-2l.65-.4c1.6,1.45,3.2,2.91,4.82,4.35A19.38,19.38,0,0,0,32.92,28a34,34,0,0,1,10.89,9.69,29.06,29.06,0,0,1,5.44,12.46A14.86,14.86,0,0,0,52.16,56c2.5,3.31,6.11,3.24,9.4.73,5.25-4,6.88-9.64,8.2-15.42a37,37,0,0,0,1-13.34,26.82,26.82,0,0,0-1.22-6.42C67,15.13,63.67,9,58.46,4.07,57.21,2.9,55.71,2,53.84.57Z"/><path class="cls-2" d="M70.52,63c2.34,2.37,2.2,4.38,1.17,6.71a34.54,34.54,0,0,0-2.78,10.08c-.4,3.31.81,6,2.31,8.69a2.49,2.49,0,0,0,4.41-.17c1.61-3,3.38-6,1.23-9.53a1.79,1.79,0,0,1-.13-1,3.1,3.1,0,0,1,.36-.78,8.65,8.65,0,0,1,5,2.64c4.1,4.15,7,9,7.18,14.8.12,4.4-.83,8.66-5.31,11.31-1.51.89-2.66,2.15-4.7,2.32-1.14.09-2.17,1.37-3.68,1.83,1.45-2.48,3-4.92,4.33-7.46a49.16,49.16,0,0,0,3-6.57,6,6,0,0,0-1.12-6.33,12.71,12.71,0,0,0-1.28,1.51,6,6,0,0,1-6.2,3.16c-3-.26-5.61-1-7.28-3.55A19.11,19.11,0,0,1,63.7,80.54c0-1-.1-2-.17-3.22A6.49,6.49,0,0,0,62,78a45.36,45.36,0,0,1-11.16,6.9c-5.44,2.52-8.14,7.2-9.84,12.38a9.2,9.2,0,0,0,.37,5.47c1.68,4.88,3.87,9.52,8.35,12.81.69.51.6,2,.83,2.84-1.59,1.81-3.28,1.73-4.67.46-4.37-4-7.74-8.64-9-14.39s.8-10.8,3.87-15.53a23.68,23.68,0,0,1,11.38-9.47c2.86-1.15,5.33-3.29,7.81-5.19a51.27,51.27,0,0,0,5.68-5.14A48,48,0,0,0,68.68,65C69.19,64.29,69.82,63.72,70.52,63Z"/><path class="cls-2" d="M61.76,227a95.38,95.38,0,0,0,12.69-2.6c.82-4,.63-4.38-3.57-7a23.48,23.48,0,0,1,3,0c4.33.6,6.82,5,4.85,8.72a3.45,3.45,0,0,1-2,1.5c-3.73.94-7.48,1.82-11.26,2.51a6,6,0,0,1-3.55-.55c-4.29-2.24-3.82-4.9-.57-8.07,1.51-1.47,3.83-2.23,5.87-3.13,1.25-.56,1.32-.41,2.7,1.06a25.52,25.52,0,0,1-4.55,2.75C63.08,222.91,62.1,224.32,61.76,227Z"/><path class="cls-2" d="M101.55,219.44c1,.49,2,.86,2.81,1.38,1.46.88,1.5,1.81.16,2.79-1.06.76-2.19,1.42-3.58,2.32a6.43,6.43,0,0,0-4.72.25c-1.71.66-4-.18-6-.35-1-6.41,4.14-9,10.57-6.5-3,1.49-7.23.37-8.9,4.19,1.69,1.07,3.18,1.81,5,.3.45-.38,1.29-.33,1.93-.51C101.29,222.58,101.68,222,101.55,219.44Z"/><path class="cls-2" d="M81,215.73c4.1-.13,4.45-.45,4.43-3.52l2.75,1.92c.33,2.3-1.45,2.69-3,3.26s-3.32.9-4.83-.33a3.67,3.67,0,0,1-.34-4.81c.8-1.15,1.52-1.2,3.82-.2Z"/><path class="cls-2" d="M108.31,179.39a5.07,5.07,0,0,1-1.76-.3c-1.16-.69-2.2-1.56-3.29-2.34-5-3.57-9.8-7.6-15.19-10.57-4.18-2.3-7.87-5.18-11.91-7.58-3.16-1.87-6.69-3.16-10-4.81a64.49,64.49,0,0,1-14.6-9.58A48,48,0,0,0,45,139.6c-2.18-1.36-4.47-2.57-6.74-3.8a4.87,4.87,0,0,0-1.89-.72c-4.89-.37-8-3.71-12-6.23a3.94,3.94,0,0,1,4.41-.2c.88.5,1.75,1.33,2.67,1.4,4.75.36,8.49,3,12.5,5,2.89,1.4,5.42,3.5,8.06,5.35,1.91,1.33,3.63,2.95,5.63,4.13,4.06,2.41,8.25,4.61,12.39,6.9a1.93,1.93,0,0,0,.61.3c5.22.78,8.27,4.67,12,7.63A45.71,45.71,0,0,0,87,162.18c3.63,2.25,7.37,4.36,10.87,6.77a90.38,90.38,0,0,1,8.11,6.49,25.7,25.7,0,0,1,2.77,3.42Z"/><path class="cls-2" d="M81,186.75a9.79,9.79,0,0,1-6.79-2.46,7,7,0,0,0-3.17-1.8c-4.46-.71-7.77-3.5-11.57-5.42-1.69-.86-3.42-1.66-5.14-2.49-.1,0-.23,0-.33-.08-5.85-2.9-11.8-5.64-17.51-8.78-4.83-2.66-9.34-5.86-14.08-8.69-2.7-1.62-5.6-2.92-8.34-4.48-1.33-.76-2.51-1.76-4.38-3.09,1.35-.2,2-.52,2.47-.33,5,2.19,10.2,4.21,15,6.78,3.73,2,6.93,4.86,10.55,7,4.51,2.73,9.15,5.25,13.84,7.68,6.51,3.38,13.3,6.28,19.59,10,3.3,1.93,7.29,3,9.74,6.24Z"/><path class="cls-2" d="M12.19,140.12c1.74-1.62,3-1.84,4.73-1.06a41.26,41.26,0,0,1,11.16,6.79c2.2,2,5,3.35,7.59,4.93C40.75,153.89,45.86,157,51,160a12.13,12.13,0,0,0,2,1.17,13,13,0,0,1,7.55,6.46c-1.14-.6-2.28-1.18-3.41-1.79-4.06-2.21-8.18-4.32-12.16-6.67-6.29-3.7-12.46-7.6-18.73-11.35-2.12-1.26-4.34-2.38-6.57-3.44A32.06,32.06,0,0,1,12.19,140.12Z"/><path class="cls-2" d="M29.64,141.4c2-1,3.33,0,4.63.69,3.26,1.75,6.17,4.09,9.89,5,2.92,3.3,8.2,3.95,10.1,8.34C48,155.15,32.27,146.28,29.64,141.4Z"/><path class="cls-2" d="M72.88,165.13a22.61,22.61,0,0,1,3,1.3c4.18,2.59,8.26,5.35,12.5,7.86,2.88,1.71,6,3.12,9,4.61,1.39.69,3,1.14,3.46,3.29-3.34-1.1-6.64-1.58-9.1-3.8-3.71-3.34-8.1-5.63-12.49-8-1.8-1-3.55-2-5.26-3.07a9.73,9.73,0,0,1-1.56-1.58Z"/><path class="cls-2" d="M80.94,186.85a45.47,45.47,0,0,1,10.28,5.53c2.78,1.85,5.64,3.6,8.54,5.45-.3,1.55-1.28,1.64-2.44,1-2.25-1.28-4.47-2.62-6.67-4s-4.47-3-6.79-4.31c-1.54-.89-2.7-1.93-2.83-3.75Z"/><path class="cls-2" d="M84.53,180.57l-7.72-4.91A15.88,15.88,0,0,1,84.53,180.57Z"/><path class="cls-2" d="M89.22,184.31c1.27.13,2.73,0,2.64,2.42Z"/><path class="cls-2" d="M86.3,181.23l1.77,1.4-.3.36L86,181.6Z"/><path class="cls-2" d="M103.13,125.68A6.65,6.65,0,0,1,99,128.84l-.45-.53,3.92-3.41Z"/><path class="cls-2" d="M39.64,205.61c-2.36-.87-4.42-1.74-6.56-2.38-3.34-1-7.3,0-9,2.34-1.28,1.8-1.65,3.94-1.95,6.94A53.18,53.18,0,0,0,27,208.15c1.34-1.56,2.73-1.82,4.76-1.46a11.3,11.3,0,0,1,7.65,4.95,6.36,6.36,0,0,1,.59,6.79c-1.86,4.09-6.72,7.53-13.51,4.67-3.11-1.31-4.57-3.8-6.47-5.9-1.14-1.26-1.35-3.75-1.13-5.6.45-3.74,1-7.67,4.68-10a11.41,11.41,0,0,1,4.89-2,15.86,15.86,0,0,1,10.9,2.9C40.45,203.3,40.82,204.26,39.64,205.61Zm-15,11.07c3.83,3.43,6.41,3.68,9.35,1.24,1.42-1.18,1.7-2.71.4-4A13.8,13.8,0,0,0,31,211.85c-2.28-1.2-4.32-.33-4.08,2C27.13,215.64,26.28,216.13,24.66,216.68Z"/><path class="cls-2" d="M133.84,197.9c-2.7,1.15-3.75-.81-5.15-1.74l-1.06,1.08a7.72,7.72,0,0,0,.58.79c.85,1,2.28,1.83,2.45,2.88a6.4,6.4,0,0,1-1.51,5.84c-1.26,1.24-2.71,2.29-3.92,3.56a4.14,4.14,0,0,1-4.74.83c-4.41-1.6-8.45-5.58-6.66-11a22.25,22.25,0,0,1,3-6.14c1.68-2.26,4.53-2.41,7.17-2.19s5.24.33,6.62,3.19C131.1,196.08,132.47,196.74,133.84,197.9ZM127,202.37c-1.28.15-2.41.36-3.54.38-.93,0-2.32.55-2.49-.88a2.78,2.78,0,0,1,1.23-2,49.63,49.63,0,0,1,4.4-2.63c0-.25-.1-.5-.16-.75a40.51,40.51,0,0,0-4.53-.21c-3.11.19-4.69,2.11-4.34,5.06.3,2.45,1.89,3.88,4.15,4.73C124.14,207,126.35,205.59,127,202.37Z"/><path class="cls-2" d="M50.87,190.8l2.21,1.84C51.33,193.57,51.33,193.57,50.87,190.8Z"/></g></g></g></svg>