<svg xmlns="http://www.w3.org/2000/svg" data-name="Your Icon" viewBox="0 0 89.81 66.9" x="0px" y="0px"><title>camping_Tent_01</title><path d="M94.13,76.76a0.77,0.77,0,0,1-.6-0.28L59,34.35,24.48,76.48a0.78,0.78,0,1,1-1.19-1L58.35,32.72a0.77,0.77,0,0,1,.6-0.28,1,1,0,0,1,.72.28L94.73,75.5A0.77,0.77,0,0,1,94.13,76.76Z" transform="translate(-5.1 -23.24)"/><path d="M82.58,76.76H35.44A0.77,0.77,0,0,1,34.67,76V62a0.77,0.77,0,1,1,1.54,0h0V75.22h45.6V62a0.77,0.77,0,1,1,1.54,0h0V76A0.77,0.77,0,0,1,82.58,76.76Z" transform="translate(-5.1 -23.24)"/><path d="M59.07,51.4a0.77,0.77,0,0,1-.77-0.77h0V33.21a0.77,0.77,0,0,1,1.54,0V50.62a0.77,0.77,0,0,1-.76.78h0Z" transform="translate(-5.1 -23.24)"/><rect x="66.96" y="52.12" width="1.54" height="27.03" transform="translate(-31.43 35.47) rotate(-39.89)"/><path d="M59.07,76.76A0.77,0.77,0,0,1,58.3,76V50.62a0.77,0.77,0,1,1,1.54,0V76A0.77,0.77,0,0,1,59.07,76.76Z" transform="translate(-5.1 -23.24)"/><path d="M34.48,55.34a0.77,0.77,0,0,1-.77-0.77h0V24a0.77,0.77,0,0,1,1.54,0V54.56a0.77,0.77,0,0,1-.76.78h0Z" transform="translate(-5.1 -23.24)"/><path d="M27.68,31.47a0.77,0.77,0,0,1-.55-1.32l6.66-6.66a0.77,0.77,0,1,1,1.09,1.09l-6.66,6.66A0.77,0.77,0,0,1,27.68,31.47Z" transform="translate(-5.1 -23.24)"/><path d="M27.68,37.65a0.77,0.77,0,0,1-.55-1.32l6.66-6.66a0.77,0.77,0,0,1,1.09,1.09l-6.66,6.66A0.77,0.77,0,0,1,27.68,37.65Z" transform="translate(-5.1 -23.24)"/><path d="M27.68,43.82a0.77,0.77,0,0,1-.55-1.32l6.66-6.66a0.77,0.77,0,1,1,1.09,1.09l-6.66,6.66A0.77,0.77,0,0,1,27.68,43.82Z" transform="translate(-5.1 -23.24)"/><path d="M41.28,31.47a0.77,0.77,0,0,1-.55-0.23l-6.66-6.66a0.77,0.77,0,1,1,1.09-1.09l6.66,6.66A0.77,0.77,0,0,1,41.28,31.47Z" transform="translate(-5.1 -23.24)"/><path d="M41.28,37.65a0.77,0.77,0,0,1-.55-0.23l-6.66-6.66a0.77,0.77,0,0,1,1.09-1.09l6.66,6.66A0.77,0.77,0,0,1,41.28,37.65Z" transform="translate(-5.1 -23.24)"/><path d="M41.28,43.82a0.77,0.77,0,0,1-.55-0.23l-6.66-6.66a0.77,0.77,0,1,1,1.09-1.09l6.66,6.66A0.77,0.77,0,0,1,41.28,43.82Z" transform="translate(-5.1 -23.24)"/><path d="M17.22,63a0.77,0.77,0,0,1-.77-0.77h0V37.72a0.77,0.77,0,0,1,1.54,0V62.28A0.77,0.77,0,0,1,17.22,63Z" transform="translate(-5.1 -23.24)"/><path d="M12.25,43.37A0.77,0.77,0,0,1,11.7,42l4.86-4.86a0.77,0.77,0,1,1,1.09,1.09L12.79,43.1A0.77,0.77,0,0,1,12.25,43.37Z" transform="translate(-5.1 -23.24)"/><path d="M12.25,49.42a0.77,0.77,0,0,1-.55-1.32l4.86-4.86a0.77,0.77,0,0,1,1.09,1.09l-4.86,4.86A0.77,0.77,0,0,1,12.25,49.42Z" transform="translate(-5.1 -23.24)"/><path d="M22.18,43.37a0.77,0.77,0,0,1-.55-0.23l-4.86-4.86a0.77,0.77,0,0,1,1.09-1.09L22.73,42A0.77,0.77,0,0,1,22.18,43.37Z" transform="translate(-5.1 -23.24)"/><path d="M22.18,49.42a0.77,0.77,0,0,1-.55-0.23l-4.86-4.86a0.77,0.77,0,0,1,1.09-1.09h0l4.86,4.86A0.77,0.77,0,0,1,22.18,49.42Z" transform="translate(-5.1 -23.24)"/><path d="M34.48,63H5.87a0.77,0.77,0,0,1,0-1.54H34.48A0.77,0.77,0,0,1,34.48,63Z" transform="translate(-5.1 -23.24)"/><polygon points="53.97 31.44 53.97 52.17 70.72 52.17 53.97 31.44"/><text x="0" y="68.52000000000001" fill="#000000" font-size="5px" font-weight="bold" font-family="'Helvetica Neue', Helvetica, Arial-Unicode, Arial, Sans-serif">Created by Simone Fernandes</text><text x="0" y="73.52000000000001" fill="#000000" font-size="5px" font-weight="bold" font-family="'Helvetica Neue', Helvetica, Arial-Unicode, Arial, Sans-serif">from the Noun Project</text></svg>