<svg xmlns="http://www.w3.org/2000/svg" viewBox="0 0 217.78 192.03"><defs><style>.cls-1{fill:#0b242b;}</style></defs><g id="Layer_2" data-name="Layer 2"><g id="Layer_1-2" data-name="Layer 1"><path class="cls-1" d="M56.54,24.71a8.71,8.71,0,0,1,9.33-8c2.62.27,3.82-.85,5.54-2.34a114.25,114.25,0,0,1,10.3-7.54,4.72,4.72,0,0,1,2.75-.65c3.53.18,7,.53,11.21.87a2.8,2.8,0,0,0,1.08-.77C99.34,2.91,103,1.75,106.93.61A13,13,0,0,1,119.31,3c2.6,2.17,5,2,7.57,1.64,3.26-.42,6.45-1.42,9.7-2,3.46-.58,6.54,0,8.64,3.32a11.14,11.14,0,0,0,9.85,5.51,14,14,0,0,1,10.43,5.11,6.87,6.87,0,0,1,1,3c.47,2.38,1.66,4.06,4.08,4.72.66.18,1.29.49,2,.65,7.18,1.7,10.16,7,11.7,13.56a3.48,3.48,0,0,1-.17,2c-1.26,2.91.16,4.73,2.36,6.33,4.91,3.57,6,8.52,4.38,14-1.19,4.13-1,4.42,3.19,5.81,4.75,1.55,6.94,4.65,7.2,10.36l-.92-.56c-1.13,3.61-.93,3.5,1,7,1.73,3.11,2.59,6.65,0,9.7s-2.24,6-.31,9.33a14.9,14.9,0,0,1,1.84,6.27c.33,4.87-4.16,10.85-8.94,12.47-2,.67-3.45,2-3.51,4.15-.15,5.38-3.86,8.27-7.59,11.16a13,13,0,0,1-2.43,1.52c-4.83,2.23-7.15,5.93-7.45,11.29-.08,1.44-1.66,3.22-3,4.07a21,21,0,0,1-7.21,2.92,10.62,10.62,0,0,0-6.22,3.69c-4.85,5.26-10.47,8.33-18,6.57a25.07,25.07,0,0,0-7.4-.23c-.95.06-1.93,1-2.76,1.62-5.08,4.11-10.12,3.87-14.43.76-2.65-1.91-5.81-3-9.3-1.32-6.35,3-11.91,1.25-16.56-3.52a8.91,8.91,0,0,0-6.17-2.72,28.36,28.36,0,0,0-2.9-.17c-5.51.2-9-2.7-11.56-7.25-.2-.36-.48-.67-.93-1.29-1.77.07-3.66.24-5.54.18a6.69,6.69,0,0,1-3-.75,19.33,19.33,0,0,1-8-9.19,9.22,9.22,0,0,0-4.63-4.87c-4.06-2.1-6.32-6-7-10.65A13.77,13.77,0,0,1,38,124.8c.27-5.44-2.93-9.1-6.69-12.19-1.33-1.09-2.1-2-2.21-3.58a13.83,13.83,0,0,1-.29-3.29c1.18-6.31-1.66-11.51-4.19-16.9-.72-1.54-.46-3.71-.18-5.52a13,13,0,0,1,1.76-4.18C28,76,29.09,72.84,28,69c-.8-2.87.42-5.92,2.44-8.08,2.21-2.36,2.64-5,2.58-8-.08-3.61,1.83-6.74,4-9.18a14.89,14.89,0,0,0,3.78-7.56c.66-3.86,2.79-5.12,6.93-6.6a44.39,44.39,0,0,0,5.7-3.18C54.43,25.83,55.48,25.28,56.54,24.71Zm-27.31,63A42.8,42.8,0,0,0,30.58,92c1.88,4.41,4.35,8.59,3.57,13.77a6.18,6.18,0,0,0,2.45,5.85,14.76,14.76,0,0,1,5,7.93c.74,2.93,1.38,5.89,2.22,8.79.76,2.6,1.43,5,4.89,5.84,2.94.73,5.65,2.68,6.13,6.44.19,1.43,1.18,2.77,1.87,4.12.95,1.88,2.59,3.09,4.63,2.8,5-.72,8.49,2,11,5.32s5.23,3.92,8.92,3.7A10.24,10.24,0,0,1,90,160.11c3.53,4,7.78,6.3,13,3.18,4.5-2.65,8.41-1.12,12.32,1.23a3.94,3.94,0,0,1,.64.52c2.61,2.35,5.32,1.59,8,.18,1-.51,1.81-1.26,2.75-1.83a13.88,13.88,0,0,1,10.71-2c5.48,1.47,9.5-.74,13.09-4.09,3.22-3,6.58-5.33,11-6.22,4.22-.86,7.23-3.3,8.42-7.64,1-3.57,3.55-5.82,6.46-7.8a53,53,0,0,0,6.38-4.56c1.34-1.24,3-3.12,3-4.7,0-4.1,2-6.39,5.12-8.34a17.09,17.09,0,0,0,2.56-2.11c4.62-4.33,5.12-7.11,2.35-12.81-.42-.87-.84-1.74-1.23-2.62a7.2,7.2,0,0,1,.64-7.46c.55-.8.93-1.71,1.51-2.47a3.78,3.78,0,0,0,.3-4.65c-1.92-2.9-1.84-5.91-1.32-9.15.63-4-.76-6.09-4.51-7.76-2.94-1.32-3.75-3.39-3.39-6.64.28-2.51.47-5.34-.43-7.58a14.13,14.13,0,0,0-5-6c-3.47-2.4-4.42-5.26-3.76-9.22.51-3.08-1.29-5.62-2.94-8A8.3,8.3,0,0,0,169.59,28a9.93,9.93,0,0,1-8.38-7c-1.45-4.3-4.12-6-8.92-6-3.53,0-6.52-.7-9-3.77C141,8.4,138,6.31,133.81,7.74c-2.32.79-4.89.82-7.33,1.3A11.9,11.9,0,0,1,116,6.8c-4.39-3.42-10.71-3.31-14.29.66-3.39,3.77-7.27,5.13-12.27,3.47a10.18,10.18,0,0,0-9.15,1.3,39.36,39.36,0,0,0-5.84,4.57,10.09,10.09,0,0,1-6.59,3.11,9.34,9.34,0,0,0-8.68,6.32c-1.48,3.56-4.76,5.28-8.34,6s-5.67,2.49-6.2,5.89c-.62,4-2.11,7.48-5.59,9.76C36.5,49.6,35.47,51.55,36,54.84c.63,3.92.52,7.92-2.4,11.36a5.89,5.89,0,0,0-.79,4.29,20.55,20.55,0,0,1-2.17,12.85A35.28,35.28,0,0,0,29.23,87.73Z"/><path class="cls-1" d="M62.38,162.22a15.63,15.63,0,0,0-3.1.7c-5.22,2.46-9.82.59-11.61-4.77-.75-2.23-1.6-4.43-2.34-6.66a5.16,5.16,0,0,0-7.45-3c-2,1.2-3.83,2.77-5.92,3.78-4.22,2.05-8.57,3.83-12.85,5.74-2.53,1.13-5,2.31-7.53,3.47l-7,3.28c-.06,2.69,2.42,2.42,3.62,3.51-.59,4-1.53,4.49-4.88,2.58-4.37-2.49-4.28-6.36-.51-9.41,7.34-5.93,16-9.06,24.5-12.55a45.31,45.31,0,0,0,8.13-4.84c4.82-3.32,8.51-2.8,11.43,2.19A109.5,109.5,0,0,1,52.14,157c1,2.15,1.85,2.73,4.07,1.9,1-.38,2-1,3-1.31,4.51-1.46,9.13,1.54,8.68,7.72-.05.67-.25,1.33-.44,2.36,3.68.48,7.19,1.13,10.73,1.37,6,.42,11.69,1.55,16.82,4.87,1.15.74,2.49,1.2,3.65,1.93,3,1.93,2.93,5.31-.31,6.8-2.68,1.23-5.4,3-8.62,1.25-.51-.28-1.35,0-2,.06a26.25,26.25,0,0,1-4.11.46c-2.44-.14-4.87-.53-7.3-.81-1.26,2.86-4.1,1.83-6.05,2a56.13,56.13,0,0,1-13.59-.46c-5.53-1-11-.52-16.41-.08a29.36,29.36,0,0,1-12.83-2.21,9.91,9.91,0,0,0-9,.82,42.23,42.23,0,0,1-5.23,2.46c-2.91,1.09-4.88.07-5.75-2.81-1.51-5-.3-9.52,2.29-13.83.91-1.5,2-1.11,3.44-.27l-.71,8.77c.9,1.31,2.23,1.3,4,.25a18.91,18.91,0,0,1,11.42-3.1c2.71.21,5.38.93,8.07,1.37s5.14.86,7.72,1.15c6.45.75,12.9,1.53,19.37,2.06a51.43,51.43,0,0,0,9.45-.11,17.55,17.55,0,0,1,6.91.47c4.18,1.21,8.3-.26,13.27-.62-3.38-3.09-6.84-3.34-10.09-3.9-4.76-.81-9.59-1.22-14.38-1.9a7.06,7.06,0,0,1-5.45-5.51C62.48,166.32,62.51,164.53,62.38,162.22Z"/><path class="cls-1" d="M111.29,178.31c1.41-.68,2.56-1.15,3.64-1.76,2-1.14,4-2.41,6-3.54,3.64-2,7.39-1.67,11.15-.32,3.59,1.29,7.43,2,10.61,4.31,1.1.81,2.33,1.46,3.39,2.32a3.6,3.6,0,0,1,1.3,4.39,4.35,4.35,0,0,1-4,3.12,8.15,8.15,0,0,1-2.47-.17c-4.55-1.24-8.36.48-12.09,2.78-1.71,1.06-3.67,2.75-5.35,2.57a23.37,23.37,0,0,1-8.91-2.9C110.76,186.9,110,183.14,111.29,178.31Zm2.52,4.54c1.73,1.15,3,2.06,4.41,2.92,2.55,1.61,4.8,1.65,7.54-.23,3.39-2.32,6.5-5.68,11.33-5-6.45-2.93-12.74-3.15-18.83.83-.27-1.2-.43-1.92-.75-3.4Z"/><path class="cls-1" d="M183.06,172.45l-2.68-1.92c-.57-2-1-3.81-1.61-5.6-2.54-8.16-.81-12.09,6.08-16.89,4.8-3.34,9.53-1.78,14.11.73,1.21.66,2.36,1.42,3.51,2.18,6.14,4.1,7.54,11.7-.39,16.16-3.8,2.13-7.62,4.35-12.39,4C187.58,171,185.39,171.94,183.06,172.45Zm1.79-5.54c4.87-1.63,9.84-2.28,13.87-5.52,3.88-3.12,3.87-5.91-.28-8.39a6.39,6.39,0,0,0-2.34-.67,12.17,12.17,0,0,0-9.6,3C182.39,158.78,181.9,162.11,184.85,166.91Z"/><path class="cls-1" d="M199.86,176.9c-.45,3.59-1.94,5.06-4.62,5.36-3.14.36-6.32.56-9.42,1.13-5.56,1-11.07,2.25-16.6,3.42-3.41.73-5.64-.15-8.22-3.41,6.45-1.38,12.8-3,19.25-4.06S193,177.73,199.86,176.9Z"/><path class="cls-1" d="M203.3,63.72a28.48,28.48,0,0,1-.24-3.55A10.74,10.74,0,0,0,199,50.71c-.75-.61-1.46-1.27-2.17-1.92A10.87,10.87,0,0,1,193,41.27c-.14-2.46-.31-4.91-.53-7.35-.16-1.79-.49-3.47-2.12-4.69a25.51,25.51,0,0,1-3-3.37c6,1.11,7.23,2.09,8.08,6.57a52.84,52.84,0,0,1,.86,7.73,8.55,8.55,0,0,0,2.65,6.27,59.11,59.11,0,0,1,4.61,4.76c2.52,3,3.7,6.47,2.38,10.37A10.13,10.13,0,0,1,204.13,64Z"/><path class="cls-1" d="M18.09,99.21c.6,1.45,1.28,2.3,1.23,3.11-.21,3,1.54,5.57,1.37,8.66a20,20,0,0,0,6,15.32c.92,1,1.69,2.06,2.75,3.37-6.86-1.17-10.75-4.68-12-10.87A39.7,39.7,0,0,1,18.09,99.21Z"/><path class="cls-1" d="M202.68,30.43c1.94-.21,3.1.41,3.18,2.11.14,2.83,1.66,3.79,4.28,4.58a9.11,9.11,0,0,1,6.72,7.68c.27,1.77.69,3.53.9,5.3a2.31,2.31,0,0,1-2.11,2.62c-1.43.33-2-.65-2.32-1.78a29.54,29.54,0,0,1-1.61-5.56A4.3,4.3,0,0,0,209,41.65C204.46,39.4,202.23,35.77,202.68,30.43Z"/><path class="cls-1" d="M5.6,91.5c.16.77.27,1.56.5,2.31.92,2.9,2.1,5.73,2.77,8.69,1.15,5.11.62,10.25-.59,15.4C5.2,109.37,5.08,100.49,5.6,91.5Z"/><path class="cls-1" d="M155.67,172.62l14.22-6.37a12.41,12.41,0,0,1-.14,1.58c-.33,1.52-.22,3.63-1.18,4.4-1.75,1.41-4.12,2.08-6.28,2.94C161.48,175.49,156.71,173.7,155.67,172.62Z"/><path class="cls-1" d="M53.18,79c1.77-5.65,3.51-11.3,5.33-16.94.5-1.57,1.23-3.07,1.84-4.6A38.12,38.12,0,0,1,77,38.09c3.58-2.08,7-4.4,10.77-6.19A58.56,58.56,0,0,1,116,26.4c3,.12,6.07.18,9.1.33,5.38.26,10.31,2.36,14.75,5,4,2.37,8.32,4.18,12.13,6.67,4.35,2.83,8.45,6.12,10.37,11.79,2.14,6.32,6,12,8.67,18.2,1.9,4.39,4.26,8.74,4.36,13.71,0,2.2,2.07,4.35.19,6.59.43.31,1.2.57,1.25.93a19.45,19.45,0,0,1,.46,5.7c-1.21,7.65-3,15.18-6.31,22.24-1.18,2.47-2.1,5.08-3.49,7.43-.76,1.28-2.29,3.06-3.38,3-2.05-.13-2.11,1.69-3.3,2.27a24.58,24.58,0,0,0-4.08,2.76c-2.14,1.64-4.19,3.38-6.32,5a6.85,6.85,0,0,1-2.08,1.19c-5.91,1.89-11.85,3.73-17.78,5.55a6,6,0,0,1-2.45.39c-3.86-.57-7.36,1.39-11.11,1.44a39.18,39.18,0,0,1-6.5-.34,66.89,66.89,0,0,1-7.63-1.76c-4.47-1.24-9.14-2.1-13.29-4.06-4.38-2.07-8-5.61-13.2-6.14-.67-.07-1.32-.91-1.86-1.51-1.64-1.85-3.22-3.77-4.83-5.65-3-3.52-6.26-6.89-9.07-10.59a25.34,25.34,0,0,1-5-13.42c-.63-7.3-1.34-14.58-2-21.88a13.07,13.07,0,0,1,.15-2.06Zm3.73-1a14.14,14.14,0,0,0,2.76.46,16.09,16.09,0,0,1,8.51,1,6.12,6.12,0,0,0,2,.17c7.7.59,15.41,1.15,23.1,1.81,2.12.18,4.21.65,6.39,1l1.62-4.11c-2.65-2.66-4.95-5-7.31-7.34-3-3-5.83-6.3-9.22-8.8-4.35-3.21-8.53-6.41-11.51-11-.83-1.28-2.36-2.11-4-3.48C62.84,57.1,59.66,67.19,56.91,78ZM71.84,44.89c1.28,1,1.85,1.39,2.38,1.84,4,3.49,7.52,7.61,12.33,10.23a25.42,25.42,0,0,1,6.3,4.59c3.84,4.08,7.35,8.46,11.24,13l4.78-3.11c-.93-4.49-1.84-8.8-2.7-13.11s-1.89-8.9-2.56-13.4c-.64-4.25-.93-8.56-1.38-12.92C90.82,33.35,81.9,39,71.84,44.89Zm85.64,3.32c-5.69,5-11.29,9.94-16.79,14.94A48.15,48.15,0,0,0,136,68.28c-1.56,1.93-2.85,4-5.36,5a2.77,2.77,0,0,0-1.32,2.19c.13,2.26.61,4.49,1,6.79,13.68-1.36,26.38-6.93,40.53-6.57-1.06-2.93-1.88-5.4-2.84-7.81-1.07-2.69-2.54-5.24-3.33-8C163.35,55.24,160.54,51.63,157.48,48.21ZM132.41,32.08c-7.33-2.75-18-3-26.41-.68-.6,4.56,1,8.87,1.84,13.27,1.57,8.22,3.25,16.43,5,25l6.45-1.7C123,55.55,129.31,44.39,132.41,32.08Zm24,95.11c5.92-2.08,10.61-14.14,12.55-22.58-5-1.47-10.15-2.54-14.91-4.54a65.66,65.66,0,0,0-10.51-3.47c-4.64-1.1-9.21-2.51-14.07-3.85-.67,1.62-1.27,3.06-1.92,4.6,2.21,1,4.24.92,5.58,3a57.92,57.92,0,0,0,12.4,13.19A9.56,9.56,0,0,1,147,115C150.15,119.11,153.33,123.2,156.43,127.19Zm-79.21,2.14c10.42-9.24,18.52-20.32,27.32-31.09l-3.21-2.31C88,101,74.91,106.42,61.39,112.06c1.86,2.68,3.08,5,4.86,6.89C69.68,122.51,73.42,125.77,77.22,129.33Zm33.62-27.09-1.19-.5c-10.77,9.15-20.12,19.64-29.11,30.42,7.37,5.34,15.43,7.64,24.4,8.43C106.93,127.65,108.89,114.94,110.84,102.24ZM59.67,107.7l40.2-17.42c-.37-2-.71-3.88-1-5.68a33.07,33.07,0,0,1-5.57,1.22,93.72,93.72,0,0,1-11.49,0c-6.18-.48-12.34-1.32-18.51-2-1.56-.16-3.14-.12-5.21-.19C59.56,91.87,57.68,99.65,59.67,107.7Zm67.5-35.1,27-28a9.33,9.33,0,0,0-6.09-5.85,68.76,68.76,0,0,1-6.2-3.21c-1.43-.71-2.93-1.25-4.66-2-.79,1.82-1.41,3.18-2,4.58-1.6,3.95-2.49,8.4-4.92,11.74-3,4.11-4.18,8.88-6.51,13.19a40,40,0,0,0-2.14,6Zm6.52,65.67c8-1.73,14.8-4.87,18.44-8.59-7.77-11.15-17.69-20.5-26.12-31L120.78,101c1.39,4,2.6,7.67,3.93,11.26a27.2,27.2,0,0,0,1.73,3.11,19.17,19.17,0,0,1,1.72,3.64c1.41,5.18,2.66,10.4,4.05,15.59A31.39,31.39,0,0,0,133.69,138.27ZM170,100.43c2.21-4.53,2.5-16.5.42-21.41l-38.74,6.72c-.76,3.89-.56,4.21,3,4.71a47.33,47.33,0,0,1,6.55.88c6,1.71,12.43,2.38,17.92,5.81a6.3,6.3,0,0,0,1.56.56Zm-40.59,39.16a31.2,31.2,0,0,1-1.67-3.85c-2.71-10.05-5.33-20.12-8-30.17a32.73,32.73,0,0,0-1.77-4.12c-2.16,1.41-2.15,3.16-2.37,4.71-.8,5.45-1.38,10.94-2.3,16.37-.4,2.38-1.83,4.61-2.08,7-.43,4-.29,8.09-.39,12.35C117.24,142.36,123.22,140.89,129.41,139.59ZM127,85.5c.08-5-.16-9-4.83-10.82-.61-.24-1-1-1.62-1.25-1.49-.52-3.09-1.32-4.57-1.17-6.64.65-10.51,4-12.23,10.41a15.89,15.89,0,0,0-.77,6.07c.83,5.88,8.24,10.78,14,9.18,3-.85,6.68-1.4,7.86-5.27C125.64,90,126.42,87.35,127,85.5Z"/><path class="cls-1" d="M169.69,58.25c1.22.46,1.43.47,1.47.56,3.68,7,7.57,14,10.4,21.46a7.09,7.09,0,0,1,.67,2.8c-.47,7.33,2,14.7-.65,22-1,2.89-.86,6.2-1.57,9.23-1.88,8-7.53,13.31-13.4,18.4-2.59,2.26-5.48,4.18-8.12,6.39-1.08.91-2.52,1.51-2.74,3.38-.1.83-1.36,1.74-2.3,2.23-4,2.09-8,4.22-12.19,6a17.37,17.37,0,0,1-10.57,1.11c-5.24-1.11-10.39.53-15.6.52q-5.57,0-11.13-.15c-7.61-.2-14.49-3.23-21.2-6.28C79,144.19,75.91,141,72.57,138.4c-1.26-1-2.36-2.15-3.58-3.27,2.31.1,2.28.13,3.69,1.24,2.76,2.18,5.38,4.62,8.4,6.36,2,1.19,4.68,1.36,7.06,2,3.56,1,7.07,2.45,10.68,2.78,7.85.71,15.69,1.69,23.64,0,3.36-.72,7.07.22,10.62.45a15.29,15.29,0,0,0,10-2.94,7.36,7.36,0,0,1,2.48-1.46c6.05-1.14,10.19-5.35,14.62-9,3.05-2.54,6.06-5.16,8.84-8,5.46-5.54,7.82-12.63,8.92-20.06a170.8,170.8,0,0,0,1.81-20.57c.07-2.9-1.24-5.91-2.28-8.74-1.51-4.13-3.34-8.14-5-12.2C171.61,63,170.82,61,169.69,58.25Z"/><path class="cls-1" d="M89.06,27a44.55,44.55,0,0,1,21.68-7.09c3.59-.23,7.18-.47,10.78-.56,5.61-.14,10.82,2,16.11,3.36,6.7,1.78,12.25,5.61,17.08,10.76,2.53,2.7,5.47,5,7.29,8.33a13.31,13.31,0,0,1,.54,1.9c-1.47-1.09-2.71-1.57-3.22-2.47-1.3-2.3-3.31-3.63-5.47-4.91a9.74,9.74,0,0,1-2.8-2.42c-2.29-3.07-5.55-4.9-8.58-7s-6.66-2.36-10.21-2.81c-1.62-.2-3.19-.73-4.8-1a24.49,24.49,0,0,0-4.35-.44c-5.77.07-11.53.2-17.3.42a18.39,18.39,0,0,0-3.59.81c-.27.07-.5.3-.76.33-2.17.21-4.44.07-6.48.68s-3.73,1.92-5.57,2.93Z"/><path class="cls-1" d="M70.4,36.06c-.09.25-.1.62-.28.74C61.5,42.4,57.74,51.47,53.85,60.27c-2.15,4.86-3.21,10.22-4.57,15.41a32.82,32.82,0,0,0-1.57,8.85c.08,4.38.95,8.75,1.44,13.13,0,.19-.32.42-1,1.27-.89-4.51-2.2-8.51-2.31-12.55a80.06,80.06,0,0,1,.29-13.56c1.28-9.09,5.27-16.9,10-24.29,2.67-4.16,6.91-7.34,10.59-10.8.92-.87,2.43-1.13,3.66-1.67Z"/><path class="cls-1" d="M51.72,108l8.4,14.51-1,.63c-1.58-2.4-3.27-4.74-4.72-7.23s-3.66-4.58-3.75-7.58Z"/><path class="cls-1" d="M166.74,48.86,168,51.22l-.77.42L166,49.27Z"/><path class="cls-1" d="M70.4,36.06l2.75-2.38.57.88-3.32,1.5Z"/><path class="cls-1" d="M115.09,90.86c-3.91.17-6-3.19-5.73-7,.18-2.8,4.25-5.14,8-4.67,2.46.3,4.74,3.31,4.47,5.9C121.53,88.09,117.92,91.16,115.09,90.86Zm.59-2.8c2.63-3.31,2.87-4.49,1.3-5.69s-3.4-1.12-4.23.35C111.68,84.62,112.66,86.53,115.68,88.06Z"/></g></g></svg>