<svg xmlns="http://www.w3.org/2000/svg" viewBox="0 0 162.36 169.38"><defs><style>.cls-1{fill:#cc6032;}</style></defs><g id="Layer_2" data-name="Layer 2"><g id="Layer_1-2" data-name="Layer 1"><path class="cls-1" d="M103.51,4.27C99.26,1,94.65-.58,90.93.19,80.27,1.15,71.27,2,62.69,5.12c-2.41.88-4.54,3.07-6.94,3.32-6.53.7-11.1,5.12-16,8.37-3.41,2.24-6.42,5.33-9.86,7.85-3.94,2.88-8.25,5.9-10.77,10.69-1.9,3.63-5.1,6.55-7.35,10-4.51,7-6.38,15-8.44,22.93C1.37,75.74-.47,83.26.11,91c.62,8.21,2.22,16.19,5.95,23.7,2.87,5.77,5.2,11.85,9.67,16.65,4.89,5.24,6,13,11.88,17.56a36.93,36.93,0,0,1,6.13,5.56c3.28,4,6.87,4.38,11.44,2.37,3.81-1.68,6.07-4.93,5-8.9A30.9,30.9,0,0,0,48,142.65c-1.85-3.84-3.32-7.84-2.67-12.12a50.8,50.8,0,0,1,8.49-21.7C58,102.92,62.66,97.25,69,93.13a56.34,56.34,0,0,0,10.8-9.68A27.16,27.16,0,0,1,92.53,75a15.61,15.61,0,0,0,6.11-3.63,20.7,20.7,0,0,0,6.52-14.92c.25-7.65,1.83-15.28,1.77-22.9-.06-7.24-1.26-14.45.17-21.7C107.75,8.6,106.08,6.23,103.51,4.27ZM57.42,64.6a13.12,13.12,0,0,1-14.91-7.75c-.18-.28-.36-.56-.52-.86-2.31-4.19-1.61-7.41.56-9.64,1.69-4.43,5.16-7.79,9.2-8C66.17,33.39,73.11,61.53,57.42,64.6Z"/><path class="cls-1" d="M94.1,169.33c-3.79,0-8.29.15-12.76-.05-3.63-.16-7.58,0-10.77-1.34-4.28-1.85-8-5-11.85-7.79-1-.73-1.4-2.35-1.85-3.65-2-5.76-1.52-11.69-.93-17.6.48-4.85,1-9.69,1.54-14.53.61-5.31,3.24-9.81,6.5-13.8,6.79-8.31,16-13.89,24.06-20.8,7-6,14.47-11.46,20.23-18.74C112,66.37,112.6,60.45,114,54.9c.43-1.68.27-3.52.78-5.17,1.28-4.18.25-7.92-1.73-11.56a37.3,37.3,0,0,1-2.48-4.61c-1.59-4.25.05-7.65,4.31-9.06,2.47-.81,5-1.4,7.5-2.14,5-1.48,8.19,1.4,11.16,4.65,3.37,3.68,6.77,7.35,9.91,11.22,2.49,3.09,5.46,6.19,6.69,9.81,1.53,4.53,4.59,7.84,7.24,11.39a21.19,21.19,0,0,1,3.86,10.1c.62,4.71,1.82,9.54.5,14.42-.34,1.27.14,2.74.1,4.12q-.1,3.06-.42,6.11c-.14,1.38-.72,2.76-.62,4.11.59,8.23-2,15.69-5,23.17a127.26,127.26,0,0,1-6.86,14c-4,7.36-9.79,13-15.68,18.67-4.18,4.06-9.27,6.53-14,9.7-1.89,1.28-4.71,1.12-6.84,2.16C106.85,168.71,100.74,168.28,94.1,169.33Zm59.56-87.1c.45-5.22-.84-12.41-3.56-19.15-2-5.07-5.21-9.7-8-14.48a25.5,25.5,0,0,0-3.46-5.07c-4.42-4.59-8.92-9.1-13.61-13.39a4.58,4.58,0,0,0-4.18-.67c-.88.46-1.4,2.64-1.18,3.9.32,1.83,1.69,3.45,2.17,5.28.79,3,2.11,6.22,1.64,9.1-1.12,7-3.07,13.9-4.84,20.8a9.23,9.23,0,0,1-2.13,4C112,77.34,108.1,82.8,102.24,86.21a13.71,13.71,0,0,0-1.9,1.77c-4,3.6-7.83,7.45-12.09,10.74-8.49,6.57-16.13,13.67-20.23,24-4,10.09-5.88,20.36-4.06,31.15.75,4.49,1.55,5.11,5.79,6.15,9.31,2.27,18.63,1.85,28.06.88A53.35,53.35,0,0,0,117.62,155a60.76,60.76,0,0,0,30.51-36.71C151.59,107.28,153.36,96,153.66,82.23Z"/><path class="cls-1" d="M99.44,112.8a21.6,21.6,0,0,1,12.26,3.9c2.74,1.87,3.16,5.25,3.45,8.2a15.31,15.31,0,0,1-5.15,13c-1.65,1.55-3.45,2.94-5,4.54a6.52,6.52,0,0,1-5.79,1.7c-6.83-.87-12.83-2.93-17.71-8.48-2.7-3.07-3-5.64-1.79-8.9A36.49,36.49,0,0,1,83,119.42c2.11-3.22,5.76-4.4,9.22-5.48A47.39,47.39,0,0,1,99.44,112.8Z"/></g></g></svg>