<svg version="1.1" id="Layer_1" xmlns="http://www.w3.org/2000/svg" xmlns:xlink="http://www.w3.org/1999/xlink" x="0" y="0" viewBox="0 0 500 265.6" xml:space="preserve"><style>.st2{fill:#503557}.st3{enable-background:new}.st25{fill:#fff}</style><g id="XMLID_23242_"><g id="XMLID_39035_"><path id="XMLID_39036_" class="st2" d="M468.1 196.5l-12 10.9-21.7-7.4 12-10.8z"/></g><g id="XMLID_39033_"><path id="XMLID_39034_" class="st2" d="M446.4 189.2l-12 10.8 5.9-95.1 12-10.9z"/></g><g id="XMLID_39026_" class="st3"><path id="XMLID_39029_" class="st2" d="M464.2 234.1l-12 10.9c-2.4 2.1-5.4 3.2-8.6 2.7-1-.1-2.1-.4-3.1-.9-7.4-3.1-12-12.9-10.5-21.9.7-3.7 2.3-6.7 4.5-8.7l12-10.9c-2.2 2-3.8 5-4.5 8.7-1.6 8.9 3.1 18.7 10.5 21.9 1.1.4 2.1.7 3.1.9 3.2.5 6.3-.5 8.6-2.7z"/><defs><path id="SVGID_1_" d="M464.2 234.1l-12 10.9c-2.4 2.1-5.4 3.2-8.6 2.7-1-.1-2.1-.4-3.1-.9-7.4-3.1-12-12.9-10.5-21.9.7-3.7 2.3-6.7 4.5-8.7l12-10.9c-2.2 2-3.8 5-4.5 8.7-1.6 8.9 3.1 18.7 10.5 21.9 1.1.4 2.1.7 3.1.9 3.2.5 6.3-.5 8.6-2.7z"/></defs><clipPath id="SVGID_2_"><use xlink:href="#SVGID_1_" overflow="visible"/></clipPath><g id="XMLID_39027_" clip-path="url(#SVGID_2_)"><path id="XMLID_39028_" class="st2" d="M464.2 234.1l-12 10.9c-2.4 2.1-5.4 3.2-8.6 2.7-1-.1-2.1-.4-3.1-.9-7.4-3.1-12-12.9-10.5-21.9.7-3.7 2.3-6.7 4.5-8.7l12-10.9c-2.2 2-3.8 5-4.5 8.7-1.6 8.9 3.1 18.7 10.5 21.9 1.1.4 2.1.7 3.1.9 3.2.5 6.3-.5 8.6-2.7"/></g></g><g id="XMLID_39021_" class="st3"><path id="XMLID_39024_" class="st2" d="M388.1 137.1l12-10.9c1.4-1.3 2.9-1.8 4.5-1.6.1 0 .2 0 .4.1 5.9 1.2 7.7 11 5.4 29.5l-12 10.9c2.3-18.5.5-28.3-5.4-29.5-.1 0-.2 0-.4-.1-1.6-.2-3.1.3-4.5 1.6z"/><defs><path id="SVGID_3_" d="M388.1 137.1l12-10.9c1.4-1.3 2.9-1.8 4.5-1.6.1 0 .2 0 .4.1 5.9 1.2 7.7 11 5.4 29.5l-12 10.9c2.3-18.5.5-28.3-5.4-29.5-.1 0-.2 0-.4-.1-1.6-.2-3.1.3-4.5 1.6z"/></defs><clipPath id="SVGID_4_"><use xlink:href="#SVGID_3_" overflow="visible"/></clipPath><g id="XMLID_39022_" clip-path="url(#SVGID_4_)"><path id="XMLID_39023_" class="st2" d="M410.4 154.2l-12 10.9c2.3-18.5.5-28.3-5.4-29.5-.1 0-.2 0-.4-.1-1.6-.2-3.1.3-4.5 1.6l12-10.9c1.4-1.3 2.9-1.8 4.5-1.6.1 0 .2 0 .4.1 5.8 1.2 7.6 11 5.4 29.5"/></g></g><g id="XMLID_39017_" class="st3"><path id="XMLID_39020_" class="st2" d="M402.4 177.4l-12 10.9c1.1-1 2-2.4 3-4.2 2.3-4.3 3.9-10.7 4.9-19l12-10.9c-1 8.3-2.7 14.7-4.9 19-.9 1.8-1.9 3.2-3 4.2z"/><defs><path id="SVGID_5_" d="M402.4 177.4l-12 10.9c1.1-1 2-2.4 3-4.2 2.3-4.3 3.9-10.7 4.9-19l12-10.9c-1 8.3-2.7 14.7-4.9 19-.9 1.8-1.9 3.2-3 4.2z"/></defs><clipPath id="SVGID_6_"><use xlink:href="#SVGID_5_" overflow="visible"/></clipPath><g id="XMLID_39018_" clip-path="url(#SVGID_6_)"><path id="XMLID_39019_" class="st2" d="M402.4 177.4l-12 10.9c1.1-1 2-2.4 3-4.2 2.3-4.3 3.9-10.7 4.9-19l12-10.9c-1 8.3-2.7 14.7-4.9 19-.9 1.8-1.9 3.2-3 4.2"/></g></g><g id="XMLID_39013_" class="st3"><path id="XMLID_39016_" class="st2" d="M419.4 197.2l-12 10.9c-6.4 5.8-13.8 8.2-22 7.1-.7-.1-1.4-.2-2.2-.4-9.1-1.8-16.4-7.1-22-15.8-7-11-9.4-25.7-7.1-44.3 2.1-16.7 7.4-28.9 16.1-36.7l12-10.9c-8.6 7.8-14 20.1-16.1 36.7-2.3 18.6 0 33.4 7.1 44.3 5.6 8.7 12.9 13.9 22 15.8.7.1 1.5.3 2.2.4 8.3 1.1 15.6-1.2 22-7.1z"/><defs><path id="SVGID_7_" d="M419.4 197.2l-12 10.9c-6.4 5.8-13.8 8.2-22 7.1-.7-.1-1.4-.2-2.2-.4-9.1-1.8-16.4-7.1-22-15.8-7-11-9.4-25.7-7.1-44.3 2.1-16.7 7.4-28.9 16.1-36.7l12-10.9c-8.6 7.8-14 20.1-16.1 36.7-2.3 18.6 0 33.4 7.1 44.3 5.6 8.7 12.9 13.9 22 15.8.7.1 1.5.3 2.2.4 8.3 1.1 15.6-1.2 22-7.1z"/></defs><clipPath id="SVGID_8_"><use xlink:href="#SVGID_7_" overflow="visible"/></clipPath><g id="XMLID_39014_" clip-path="url(#SVGID_8_)"><path id="XMLID_39015_" class="st2" d="M419.4 197.2l-12 10.9c-6.4 5.8-13.8 8.2-22 7.1-.7-.1-1.4-.2-2.2-.4-9.1-1.8-16.4-7.1-22-15.8-7-11-9.4-25.7-7.1-44.3 2.1-16.7 7.4-28.9 16.1-36.7l12-10.9c-8.6 7.8-14 20.1-16.1 36.7-2.3 18.6 0 33.4 7.1 44.3 5.6 8.7 12.9 13.9 22 15.8.7.1 1.5.3 2.2.4 8.3 1.1 15.6-1.2 22-7.1"/></g></g><g id="XMLID_39006_"><path id="XMLID_39007_" class="st2" d="M337.1 87.9l-12 10.9-1.3-.6 12-10.8z"/></g><g id="XMLID_39002_" class="st3"><path id="XMLID_39005_" class="st2" d="M342.4 103.3l-12 10.9c1-6.3.2-14.4-5.3-15.4l12-10.9c5.5 1 6.2 9.1 5.3 15.4z"/><defs><path id="SVGID_9_" d="M342.4 103.3l-12 10.9c1-6.3.2-14.4-5.3-15.4l12-10.9c5.5 1 6.2 9.1 5.3 15.4z"/></defs><clipPath id="SVGID_10_"><use xlink:href="#SVGID_9_" overflow="visible"/></clipPath><g id="XMLID_39003_" clip-path="url(#SVGID_10_)"><path id="XMLID_39004_" class="st2" d="M342.4 103.3l-12 10.9c1-6.3.2-14.4-5.3-15.4l12-10.9c5.5 1 6.2 9.1 5.3 15.4"/></g></g><g id="XMLID_38998_" class="st3"><path id="XMLID_39001_" class="st2" d="M338.7 110.8l-12 10.9.3-.3c1.8-1.7 2.9-4.2 3.4-7.2l12-10.9c-.5 3.1-1.6 5.5-3.4 7.2l-.3.3z"/><defs><path id="SVGID_11_" d="M338.7 110.8l-12 10.9.3-.3c1.8-1.7 2.9-4.2 3.4-7.2l12-10.9c-.5 3.1-1.6 5.5-3.4 7.2l-.3.3z"/></defs><clipPath id="SVGID_12_"><use xlink:href="#SVGID_11_" overflow="visible"/></clipPath><g id="XMLID_38999_" clip-path="url(#SVGID_12_)"><path id="XMLID_39000_" class="st2" d="M338.7 110.8l-12 10.9.3-.3c1.8-1.7 2.9-4.2 3.4-7.2l12-10.9c-.5 3.1-1.6 5.5-3.4 7.2l-.3.3"/></g></g><g id="XMLID_38994_" class="st3"><path id="XMLID_38997_" class="st2" d="M353.7 122.6l-12 10.9c-1.9 1.7-4.2 3.1-6.9 4l12-10.9c2.7-.9 5-2.3 6.9-4z"/><defs><path id="SVGID_13_" d="M353.7 122.6l-12 10.9c-1.9 1.7-4.2 3.1-6.9 4l12-10.9c2.7-.9 5-2.3 6.9-4z"/></defs><clipPath id="SVGID_14_"><use xlink:href="#SVGID_13_" overflow="visible"/></clipPath><g id="XMLID_38995_" clip-path="url(#SVGID_14_)"><path id="XMLID_38996_" class="st2" d="M353.7 122.6l-12 10.9c-1.9 1.7-4.2 3.1-6.9 4l12-10.9c2.7-.9 5-2.3 6.9-4"/></g></g><g id="XMLID_38992_"><path id="XMLID_38993_" class="st2" d="M249.5 45.9l-12 10.9-.3-.1 12-10.8z"/></g><g id="XMLID_38988_" class="st3"><path id="XMLID_38991_" class="st2" d="M330.4 128.8l-12 10.9c0-.5-.1-1.2-.2-2.1-.1-.9-.2-1.9-.4-3.1l12-10.9c.1 1.2.3 2.3.4 3.1.1.9.2 1.6.2 2.1z"/><defs><path id="SVGID_15_" d="M330.4 128.8l-12 10.9c0-.5-.1-1.2-.2-2.1-.1-.9-.2-1.9-.4-3.1l12-10.9c.1 1.2.3 2.3.4 3.1.1.9.2 1.6.2 2.1z"/></defs><clipPath id="SVGID_16_"><use xlink:href="#SVGID_15_" overflow="visible"/></clipPath><g id="XMLID_38989_" clip-path="url(#SVGID_16_)"><path id="XMLID_38990_" class="st2" d="M330.4 128.8l-12 10.9c0-.5-.1-1.2-.2-2.1-.1-.9-.2-1.9-.4-3.1l12-10.9c.1 1.2.3 2.3.4 3.1.1.9.2 1.6.2 2.1"/></g></g><g id="XMLID_38986_"><path id="XMLID_38987_" class="st2" d="M288.3 109.8l-12 10.8 10-51.9 12-10.9z"/></g><g id="XMLID_38982_" class="st3"><path id="XMLID_38985_" class="st2" d="M250.5 78.7l-12 10.9c5.3-4.8 4.7-18.8 4.6-20.6-.1-2.4-1.3-7.2-2.1-8.7s-2.8-3.3-3.6-3.5l12-10.9c.8.1 2.8 1.9 3.6 3.5.8 1.5 2 6.3 2.1 8.7.1 1.8.7 15.8-4.6 20.6z"/><defs><path id="SVGID_17_" d="M250.5 78.7l-12 10.9c5.3-4.8 4.7-18.8 4.6-20.6-.1-2.4-1.3-7.2-2.1-8.7s-2.8-3.3-3.6-3.5l12-10.9c.8.1 2.8 1.9 3.6 3.5.8 1.5 2 6.3 2.1 8.7.1 1.8.7 15.8-4.6 20.6z"/></defs><clipPath id="SVGID_18_"><use xlink:href="#SVGID_17_" overflow="visible"/></clipPath><g id="XMLID_38983_" clip-path="url(#SVGID_18_)"><path id="XMLID_38984_" class="st2" d="M250.5 78.7l-12 10.9c5.3-4.8 4.7-18.8 4.6-20.6-.1-2.4-1.3-7.2-2.1-8.7s-2.8-3.3-3.6-3.5l12-10.9c.8.1 2.8 1.9 3.6 3.5.8 1.5 2 6.3 2.1 8.7.1 1.8.7 15.8-4.6 20.6"/></g></g><g id="XMLID_38978_" class="st3"><path id="XMLID_38981_" class="st2" d="M286.9 113.6l-12 10.9c.6-.7 1.1-1.9 1.5-3.9l12-10.9c-.4 2-.9 3.3-1.5 3.9z"/><defs><path id="SVGID_19_" d="M286.9 113.6l-12 10.9c.6-.7 1.1-1.9 1.5-3.9l12-10.9c-.4 2-.9 3.3-1.5 3.9z"/></defs><clipPath id="SVGID_20_"><use xlink:href="#SVGID_19_" overflow="visible"/></clipPath><g id="XMLID_38979_" clip-path="url(#SVGID_20_)"><path id="XMLID_38980_" class="st2" d="M286.9 113.6l-12 10.9c.6-.7 1.1-1.9 1.5-3.9l12-10.9c-.4 2-.9 3.3-1.5 3.9"/></g></g><g id="XMLID_38974_" class="st3"><path id="XMLID_38977_" class="st2" d="M286.8 113.7l-12 10.9.1-.1 12-10.9-.1.1z"/><defs><path id="SVGID_21_" d="M286.8 113.7l-12 10.9.1-.1 12-10.9-.1.1z"/></defs><clipPath id="SVGID_22_"><use xlink:href="#SVGID_21_" overflow="visible"/></clipPath><g id="XMLID_38975_" clip-path="url(#SVGID_22_)"><path id="XMLID_38976_" class="st2" d="M286.8 113.7l-12 10.9.1-.1 12-10.9-.1.1"/></g></g><g id="XMLID_38955_"><path id="XMLID_38973_" class="st2" d="M335.5 161.5l-12 10.8-5.1-32.6 12-10.9z"/></g><g id="XMLID_38953_"><path id="XMLID_38954_" class="st2" d="M356 164.1l-12 10.8-20.5-2.6 12-10.8z"/></g><g id="XMLID_38951_"><path id="XMLID_38952_" class="st2" d="M266.1 108.6l-12 10.9 11.2-59.1 12-10.9z"/></g><g id="XMLID_38947_" class="st3"><path id="XMLID_38950_" class="st2" d="M258.8 88.4l-12 10.9c-2.9 2.6-7.5 5.1-12.4 5l12-10.9c4.9.1 9.5-2.4 12.4-5z"/><defs><path id="SVGID_23_" d="M258.8 88.4l-12 10.9c-2.9 2.6-7.5 5.1-12.4 5l12-10.9c4.9.1 9.5-2.4 12.4-5z"/></defs><clipPath id="SVGID_24_"><use xlink:href="#SVGID_23_" overflow="visible"/></clipPath><g id="XMLID_38948_" clip-path="url(#SVGID_24_)"><path id="XMLID_38949_" class="st2" d="M258.8 88.4l-12 10.9c-2.9 2.6-7.5 5.1-12.4 5l12-10.9c4.9.1 9.5-2.4 12.4-5"/></g></g><g id="XMLID_38945_"><path id="XMLID_38946_" class="st2" d="M324.3 159.8l-12 10.9-19-2.2 12.1-10.9z"/></g><g id="XMLID_38939_"><path id="XMLID_38940_" class="st2" d="M305.4 157.6l-12.1 10.9 14.6-92.6 12-10.9z"/></g><g id="XMLID_38931_" class="st3"><path id="XMLID_38935_" class="st2" d="M296.7 127.1l-12 10.9c-1.2 1.1-2.7 2-4.5 2.7-2.6 1-5.5 1.3-8.6.9-.9-.1-1.8-.3-2.7-.5-4.8-1.2-8.5-3.3-11.3-6.3-3.5-3.9-4.7-9-3.4-15.2l12-10.9c-1.2 6.3-.1 11.4 3.4 15.2 2.8 3 6.5 5.1 11.3 6.3.9.2 1.8.4 2.7.5 3.1.4 6 .1 8.6-.9 1.8-.7 3.3-1.6 4.5-2.7z"/><defs><path id="SVGID_25_" d="M296.7 127.1l-12 10.9c-1.2 1.1-2.7 2-4.5 2.7-2.6 1-5.5 1.3-8.6.9-.9-.1-1.8-.3-2.7-.5-4.8-1.2-8.5-3.3-11.3-6.3-3.5-3.9-4.7-9-3.4-15.2l12-10.9c-1.2 6.3-.1 11.4 3.4 15.2 2.8 3 6.5 5.1 11.3 6.3.9.2 1.8.4 2.7.5 3.1.4 6 .1 8.6-.9 1.8-.7 3.3-1.6 4.5-2.7z"/></defs><clipPath id="SVGID_26_"><use xlink:href="#SVGID_25_" overflow="visible"/></clipPath><g id="XMLID_38933_" clip-path="url(#SVGID_26_)"><path id="XMLID_38934_" class="st2" d="M296.7 127.1l-12 10.9c-1.2 1.1-2.7 2-4.5 2.7-2.6 1-5.5 1.3-8.6.9-.9-.1-1.8-.3-2.7-.5-4.8-1.2-8.5-3.3-11.3-6.3-3.5-3.9-4.7-9-3.4-15.2l12-10.9c-1.2 6.3-.1 11.4 3.4 15.2 2.8 3 6.5 5.1 11.3 6.3.9.2 1.8.4 2.7.5 3.1.4 6 .1 8.6-.9 1.8-.7 3.3-1.6 4.5-2.7"/></g></g><g id="XMLID_38927_"><path id="XMLID_38928_" class="st2" d="M246.4 93.3l-12 10.9-10.3-.4 12-10.8z"/></g><g id="XMLID_38921_"><path id="XMLID_38922_" class="st2" d="M236.1 93l-12 10.8 1.9-61.7 12-10.9z"/></g><g id="XMLID_38916_" class="st3"><path id="XMLID_38919_" class="st2" d="M212 50.7l-12 10.9c-1-3.1-4.8-22.7-4.9-23.7L207 27c.2 1 3.9 20.6 5 23.7z"/><defs><path id="SVGID_27_" d="M212 50.7l-12 10.9c-1-3.1-4.8-22.7-4.9-23.7L207 27c.2 1 3.9 20.6 5 23.7z"/></defs><clipPath id="SVGID_28_"><use xlink:href="#SVGID_27_" overflow="visible"/></clipPath><g id="XMLID_38917_" clip-path="url(#SVGID_28_)"><path id="XMLID_38918_" class="st2" d="M212 50.7l-12 10.9c-1-3.1-4.8-22.7-4.9-23.7L207 27c.2 1 3.9 20.6 5 23.7"/></g></g><g id="XMLID_38914_"><path id="XMLID_38915_" class="st2" d="M232.9 90.8l-12 10.9-12.6 1.8 12-10.9z"/></g><g id="XMLID_38910_" class="st3"><path id="XMLID_38913_" class="st2" d="M220.3 92.6l-12 10.9c-.8-1.7-16-33.1-16.2-34.3l12-10.9c.2 1.2 15.4 32.7 16.2 34.3z"/><defs><path id="SVGID_29_" d="M220.3 92.6l-12 10.9c-.8-1.7-16-33.1-16.2-34.3l12-10.9c.2 1.2 15.4 32.7 16.2 34.3z"/></defs><clipPath id="SVGID_30_"><use xlink:href="#SVGID_29_" overflow="visible"/></clipPath><g id="XMLID_38911_" clip-path="url(#SVGID_30_)"><path id="XMLID_38912_" class="st2" d="M220.3 92.6l-12 10.9c-.8-1.7-16-33.1-16.2-34.3l12-10.9c.2 1.2 15.4 32.7 16.2 34.3"/></g></g><g id="XMLID_38908_"><path id="XMLID_38909_" class="st2" d="M196.4 96.4l-12 10.8L171 38l12-10.9z"/></g><g id="XMLID_38904_"><path id="XMLID_38905_" class="st2" d="M211.3 94.1l-12 10.9-14.9 2.2 12-10.8z"/></g><g id="XMLID_38900_" class="st3"><path id="XMLID_38903_" class="st2" d="M127.1 48.3l-12 10.9c-.3 0-.5-.1-.5-.1l12-10.9s.2 0 .5.1z"/><defs><path id="SVGID_31_" d="M127.1 48.3l-12 10.9c-.3 0-.5-.1-.5-.1l12-10.9s.2 0 .5.1z"/></defs><clipPath id="SVGID_32_"><use xlink:href="#SVGID_31_" overflow="visible"/></clipPath><g id="XMLID_38901_" clip-path="url(#SVGID_32_)"><path id="XMLID_38902_" class="st2" d="M127.1 48.3l-12 10.9c-.3 0-.5-.1-.5-.1l12-10.9s.2 0 .5.1"/></g></g><g id="XMLID_38896_" class="st3"><path id="XMLID_38899_" class="st2" d="M140.7 76.9l-12 10.9c4.3-6.9.3-16-.4-18-2.8-8.7-11.1-10.3-13.2-10.6l12-10.9c2.1.3 10.4 1.9 13.2 10.6.7 2 4.7 11.1.4 18z"/><defs><path id="SVGID_33_" d="M140.7 76.9l-12 10.9c4.3-6.9.3-16-.4-18-2.8-8.7-11.1-10.3-13.2-10.6l12-10.9c2.1.3 10.4 1.9 13.2 10.6.7 2 4.7 11.1.4 18z"/></defs><clipPath id="SVGID_34_"><use xlink:href="#SVGID_33_" overflow="visible"/></clipPath><g id="XMLID_38897_" clip-path="url(#SVGID_34_)"><path id="XMLID_38898_" class="st2" d="M140.7 76.9l-12 10.9c4.3-6.9.3-16-.4-18-2.8-8.7-11.1-10.3-13.2-10.6l12-10.9c2.1.3 10.4 1.9 13.2 10.6.7 2 4.7 11.1.4 18"/></g></g><g id="XMLID_38892_" class="st3"><path id="XMLID_38895_" class="st2" d="M138.8 79.1l-12 10.9c.7-.6 1.3-1.3 1.8-2.2l12-10.9c-.5.9-1.1 1.6-1.8 2.2z"/><defs><path id="SVGID_35_" d="M138.8 79.1l-12 10.9c.7-.6 1.3-1.3 1.8-2.2l12-10.9c-.5.9-1.1 1.6-1.8 2.2z"/></defs><clipPath id="SVGID_36_"><use xlink:href="#SVGID_35_" overflow="visible"/></clipPath><g id="XMLID_38893_" clip-path="url(#SVGID_36_)"><path id="XMLID_38894_" class="st2" d="M138.8 79.1l-12 10.9c.7-.6 1.3-1.3 1.8-2.2l12-10.9c-.5.9-1.1 1.6-1.8 2.2"/></g></g><g id="XMLID_38890_"><path id="XMLID_38891_" class="st2" d="M190.5 111.2l-12 10.9-17.7 2.1 12-10.9z"/></g><g id="XMLID_38888_"><path id="XMLID_38889_" class="st2" d="M172.8 113.3l-12 10.9-12.6-75.7 12-10.9z"/></g><g id="XMLID_38884_"><path id="XMLID_38885_" class="st2" d="M132.2 155.7l-12 10.8-29-125.6 12-10.9z"/></g><g id="XMLID_38882_"><path id="XMLID_38883_" class="st2" d="M100.3 48.8l-12 10.9-21.9 9.2 12-10.9z"/></g><g id="XMLID_38878_" class="st3"><path id="XMLID_38881_" class="st2" d="M54 62.3l12-10.9c.6-.5 1.3-.8 2-.9.8 0 1.6 0 2.3.1 2.6.3 4.8 1.9 8.1 7.4l-12 10.9c-3.4-5.5-5.5-7-8.1-7.4-.7-.1-1.5-.1-2.3-.1-.8.1-1.4.4-2 .9z"/><defs><path id="SVGID_37_" d="M54 62.3l12-10.9c.6-.5 1.3-.8 2-.9.8 0 1.6 0 2.3.1 2.6.3 4.8 1.9 8.1 7.4l-12 10.9c-3.4-5.5-5.5-7-8.1-7.4-.7-.1-1.5-.1-2.3-.1-.8.1-1.4.4-2 .9z"/></defs><clipPath id="SVGID_38_"><use xlink:href="#SVGID_37_" overflow="visible"/></clipPath><g id="XMLID_38879_" clip-path="url(#SVGID_38_)"><path id="XMLID_38880_" class="st2" d="M78.4 58l-12 10.9c-3.4-5.5-5.5-7-8.1-7.4-.7-.1-1.5-.1-2.3-.1-.7 0-1.4.3-2 .9l12-10.9c.6-.5 1.3-.8 2-.9.8 0 1.6 0 2.3.1 2.6.4 4.8 1.9 8.1 7.4"/></g></g><g id="XMLID_38876_"><path id="XMLID_38877_" class="st2" d="M177.4 146l-12 10.9-17.4 3.7 12-10.9z"/></g><g id="XMLID_38874_"><path id="XMLID_38875_" class="st2" d="M160 149.7l-12 10.9-21.9-51.5 12-10.8z"/></g><g id="XMLID_38868_"><path id="XMLID_38869_" class="st2" d="M150.4 151.7l-12 10.9-18.2 3.9 12-10.8z"/></g><g id="XMLID_38866_"><path id="XMLID_38867_" class="st2" d="M89.4 127.3l-12 10.9-13.8.7 12-10.9z"/></g><g id="XMLID_38864_"><path id="XMLID_38865_" class="st2" d="M75.6 128l-12 10.9-2.5-20.8 12-10.9z"/></g><g id="XMLID_38860_" class="st3"><path id="XMLID_38863_" class="st2" d="M87.2 162.3l-12 10.9c7.3-6.6 2.3-33.3 2.2-35l12-10.9c.2 1.6 5.1 28.4-2.2 35z"/><defs><path id="SVGID_39_" d="M87.2 162.3l-12 10.9c7.3-6.6 2.3-33.3 2.2-35l12-10.9c.2 1.6 5.1 28.4-2.2 35z"/></defs><clipPath id="SVGID_40_"><use xlink:href="#SVGID_39_" overflow="visible"/></clipPath><g id="XMLID_38861_" clip-path="url(#SVGID_40_)"><path id="XMLID_38862_" class="st2" d="M87.2 162.3l-12 10.9c7.3-6.6 2.3-33.3 2.2-35l12-10.9c.2 1.6 5.1 28.4-2.2 35"/></g></g><g id="XMLID_38856_" class="st3"><path id="XMLID_38859_" class="st2" d="M104.2 183.1l-12 10.9c-4.5 4.1-10.4 6.9-17.3 7.1-1.3 0-2.7 0-4.2-.2-11.4-1.5-27.5-10.5-36.3-36.1-5.6-16.4-11.2-45-12.6-62.5-1.3-17.5.7-43.7 6-52.4 2.4-3.9 4.9-7.1 7.8-9.7l12-10.9c-2.8 2.5-5.4 5.8-7.8 9.7-5.3 8.7-7.4 34.9-6 52.4 1.3 17.6 7 46.2 12.6 62.5 8.8 25.7 24.9 34.6 36.3 36.1 1.5.2 2.9.3 4.2.2 7-.2 12.8-3 17.3-7.1z"/><defs><path id="SVGID_41_" d="M104.2 183.1l-12 10.9c-4.5 4.1-10.4 6.9-17.3 7.1-1.3 0-2.7 0-4.2-.2-11.4-1.5-27.5-10.5-36.3-36.1-5.6-16.4-11.2-45-12.6-62.5-1.3-17.5.7-43.7 6-52.4 2.4-3.9 4.9-7.1 7.8-9.7l12-10.9c-2.8 2.5-5.4 5.8-7.8 9.7-5.3 8.7-7.4 34.9-6 52.4 1.3 17.6 7 46.2 12.6 62.5 8.8 25.7 24.9 34.6 36.3 36.1 1.5.2 2.9.3 4.2.2 7-.2 12.8-3 17.3-7.1z"/></defs><clipPath id="SVGID_42_"><use xlink:href="#SVGID_41_" overflow="visible"/></clipPath><g id="XMLID_38857_" clip-path="url(#SVGID_42_)"><path id="XMLID_38858_" class="st2" d="M104.2 183.1l-12 10.9c-4.5 4.1-10.4 6.9-17.3 7.1-1.3 0-2.7 0-4.2-.2-11.4-1.5-27.5-10.5-36.3-36.1-5.6-16.4-11.2-45-12.6-62.5-1.3-17.5.7-43.7 6-52.4 2.4-3.9 4.9-7.1 7.8-9.7l12-10.9c-2.8 2.5-5.4 5.8-7.8 9.7-5.3 8.7-7.4 34.9-6 52.4 1.3 17.6 7 46.2 12.6 62.5 8.8 25.7 24.9 34.6 36.3 36.1 1.5.2 2.9.3 4.2.2 7-.2 12.8-3 17.3-7.1"/></g></g></g><g id="XMLID_23246_"><g id="XMLID_23247_"><g id="XMLID_39037_"><path id="XMLID_39038_" class="st25" d="M452.3 94l26.3 14.7-10.5 87.8-21.7-7.3z"/></g><g id="XMLID_39030_"><path id="XMLID_39031_" class="st25" d="M455.1 202.7c1 .1 2.1.4 3.1.9 7.4 3.1 12 12.9 10.5 21.9-1.4 7.7-6.9 12.2-13.1 11.4-1-.1-2.1-.4-3.1-.9-7.4-3.1-12-12.9-10.5-21.9 1.4-7.6 6.9-12.2 13.1-11.4z"/></g><g id="XMLID_39009_"><path id="XMLID_39010_" class="st25" d="M431.6 119c5.1 10.8 6.7 24.1 4.7 40.2-1.9 15.3-6.7 27.2-14.3 35.5-7 7.7-15.2 10.9-24.6 9.7-.7-.1-1.4-.2-2.2-.4-9.1-1.8-16.4-7.1-22-15.8-7-11-9.4-25.7-7.1-44.3 2.2-17.8 8.2-30.6 17.9-38.3 6.6-5.2 13.8-7.3 21.7-6.3.7.1 1.4.2 2.2.4 10.7 2.1 18.6 8.6 23.7 19.3zm-21.2 35.2c2.3-18.5.5-28.3-5.4-29.5-.1 0-.2 0-.4-.1-2.8-.4-5.3 1.6-7.6 5.9-2.3 4.2-4 10.6-5 19.3-1.1 8.6-1.1 15.4-.1 20.5s3 7.9 5.8 8.5c.1 0 .3 0 .4.1 2.8.4 5.2-1.5 7.3-5.7 2.3-4.3 3.9-10.7 5-19"/></g></g><g id="XMLID_38941_"><path id="XMLID_38942_" class="st25" d="M360.9 107.4c-1.6 10.1-6.3 16.5-14.1 19.1L356 164l-20.5-2.6-5.1-32.6c0-.5-.1-1.2-.2-2.1s-.2-1.9-.4-3.1l-.7 5.6-4.8 30.6-18.9-2.2L319.9 65l19.5 6.9c8.9 3.6 13.2 7.4 16.8 12.2 4.7 6.1 6.2 13.9 4.7 23.3zm-18.5-4.1c1-6.3.2-14.4-5.3-15.4l-1.3-.6-4 25 1.3.2h.3c2.1.3 3.9-.4 5.6-2.1 1.7-1.6 2.9-4 3.4-7.1"/></g><g id="XMLID_38929_"><path id="XMLID_38930_" class="st25" d="M277.3 49.5l13.8 5.5-9.7 53.1c-.4 1.9-.4 3.3-.1 4.2.3.9 1.8 1.7 2.9 2 .2 0 .4.1.5.1.9.1 1.6-.1 2.1-.6.6-.7 1.1-1.9 1.5-3.9l10-52 13.9 4.8-11.6 56.6c-.6 2.9-1.5 5.1-2.8 6.7s-3.2 3-5.7 3.9c-2.6 1-5.5 1.3-8.6.9-.9-.1-1.8-.3-2.7-.5-4.8-1.2-8.5-3.3-11.3-6.3-3.5-3.9-4.7-9-3.4-15.2l11.2-59.3z"/></g><g id="XMLID_38923_"><path id="XMLID_38924_" class="st25" d="M267.2 59.9c.3 5.9.2 18.8-7.1 27.1-2.6 3-8 6.5-13.7 6.3l-10.3-.3 1.9-61.8 9.5 1.7c5.4.9 9.6 3.5 12.5 6.5 3.9 4.1 6.8 12.9 7.2 20.5zm-19 20.2c7.8-2.4 7.1-19.9 7-22-.1-2.4-1.3-7.2-2.1-8.7s-2.8-3.3-3.6-3.5l-.3-.1-1 34.3"/></g><g id="XMLID_38906_"><path id="XMLID_38907_" class="st25" d="M220.9 27.2l12 63.6-12.7 1.8c-.8-1.7-16-33.1-16.2-34.3.7 3.7 4.9 23.5 5.2 25l2.1 10.8-14.9 2.3L183 27.1l14.9-.2L212 50.7c-1-3.1-4.8-22.7-4.9-23.7l13.8.2z"/></g><g id="XMLID_38886_"><path id="XMLID_38887_" class="st25" d="M178.2 37.5l12.3 73.7-17.7 2.1-12.6-75.7z"/></g><g id="XMLID_38870_"><path id="XMLID_38871_" class="st25" d="M177.4 146l-17.4 3.7-21.9-51.5 12.3 53.5-18.2 3.9-29-125.6 19.5-.4c1 0 2 .1 3 .2 6.4.8 12.1 4.5 15.9 6.8 5.6 3.4 12 12.1 14.2 19.5 2 6.9 6.2 19.9-3.7 33.2l25.3 56.7zm-36.7-69.1c4.3-6.9.3-16-.4-18-2.8-8.7-11.1-10.3-13.2-10.6-.3 0-.5-.1-.5-.1l7.7 33.4c.2 0 4.1-1.1 6.4-4.7"/></g><g id="XMLID_38854_"><path id="XMLID_38855_" class="st25" d="M70 22.4c13.3 1.8 22.1 11.3 30.2 26.4L78.4 58c-3.4-5.5-5.5-7-8.1-7.4-.7-.1-1.5-.1-2.3-.1-8.1.3-8.1 34.6-3.2 67.7 2 13.4 9.9 44.4 17.9 45.4 13.5 1.2 6.9-34.5 6.7-36.4l-13.8.8-2.5-20.8 39.7-3.5.5 4c2.3 18.5 5.5 45.5-.4 62.3-3.5 9.9-12.8 19.9-26 20.2-1.3 0-2.7 0-4.2-.2-11.4-1.5-27.5-10.5-36.3-36.1-5.6-16.4-11.2-45-12.6-62.5-1.3-17.5.7-43.7 6-52.4 6.9-11.4 15.6-17.1 27-16.7 1.1-.1 2.2 0 3.2.1z"/></g></g></svg>