<svg xmlns="http://www.w3.org/2000/svg" xmlns:xlink="http://www.w3.org/1999/xlink"><symbol viewBox="0 0 32 32" id="arrow-back" xmlns="http://www.w3.org/2000/svg"><path d="M12.586 27.414l-10-10a2 2 0 010-2.828l10-10a2 2 0 112.828 2.828L8.828 14H28a2 2 0 110 4H8.828l6.586 6.586c.39.39.586.902.586 1.414s-.195 1.024-.586 1.414a2 2 0 01-2.828 0z"/></symbol><symbol viewBox="0 0 32 32" id="arrow-forward" xmlns="http://www.w3.org/2000/svg"><path d="M19.414 27.414l10-10a2 2 0 000-2.828l-10-10a2 2 0 10-2.828 2.828L23.172 14H4a2 2 0 100 4h19.172l-6.586 6.586c-.39.39-.586.902-.586 1.414s.195 1.024.586 1.414a2 2 0 002.828 0z"/></symbol><symbol viewBox="0 0 124.36 75.23" id="bike" xmlns="http://www.w3.org/2000/svg"><g data-name="Layer 2"><g data-name="Layer 1"><path d="M36.12 6.4c-2.31-.13-4.62-.25-6.94-.41a33.79 33.79 0 01-3.88-.4 1.75 1.75 0 01-1.15-1 4.17 4.17 0 01.67-3.88c.81-1.07 1.81-.64 2.79-.54.24 0 .47.09.71.12 3.2.34 6.4.85 9.61 1A14.79 14.79 0 0044.2.46a3.15 3.15 0 011.23-.12c1.91 0 3.82 0 5.73.12 1.06 0 2.11.17 3.16.31a2.34 2.34 0 011.94 2.09c.6 2.56-1.11 4-3.68 3.49a41.56 41.56 0 00-6-.48c-.94 0-1.9.08-2.84 0-1.41-.07-1.42-.1-1.78 1.34-.49 2-1 4.06-1.45 6.1-.39 1.72-.74 3.45-1.13 5.29 1.34.14 2.46.27 3.58.36 2.27.18 4.56.2 6.8.52 5.51.77 11 1.46 16.57 1.69q3.67.15 7.36.24c.38 0 1 0 1.13-.25.69-1 2.58-1 2.25-2.84 0-.13.31-.32.46-.49.28-.34.55-.69.9-1.13a15.57 15.57 0 00-1.5-.59 29 29 0 01-3.12-.77c-2-.78-4.06-1.38-5.78-2.78a1.32 1.32 0 01-.49-1.84c.38-.72.91-1.37 1.35-2.06a2.6 2.6 0 012.25-1.2c3.5-.15 6.86.96 10.23 1.54 2.42.41 4.8 1 7.13-.31 1-.57 2-.16 3 .12a4.14 4.14 0 013.06 4.12 8.06 8.06 0 01-2.74 5.27 2.15 2.15 0 01-2 .63 10.74 10.74 0 00-2.45.12c-.23-1.48-1.51-1.07-2.55-1.58a6.91 6.91 0 00-.71 1c-.62 1.23-1.26 2.45-1.76 3.72a1.9 1.9 0 00.2 1.48c.88 1.41 1.81 2.8 2.82 4.12 2.11 2.74 4.28 5.43 6.37 8.06 2.52-.53 4.78-1 7.06-1.49a20.13 20.13 0 013.34-.58c2 0 3.93 0 5.89.18a29 29 0 014 .53 3.44 3.44 0 011.87 1 8.37 8.37 0 002.71 2 11.77 11.77 0 014.39 4.53 33.45 33.45 0 012.28 5.2c.86 2.3 1.76 4.63.18 7a2.24 2.24 0 00-.09 1.37 17 17 0 01.45 3.34 33.76 33.76 0 01-1.94 7.77c-.41 1.21-1 1.47-2.21 1.24-.45-.08-.91-.18-1.34-.27-.39.72-.58 1.52-1.09 1.92-2.08 1.66-4.09 3.52-6.82 4a12.77 12.77 0 00-3.18 1 4.57 4.57 0 01-2.59.39 17 17 0 00-3.76.16 8 8 0 01-5.51-1C93.7 73 91.75 72.5 90 71.61a12.09 12.09 0 01-2.63-1.42c-2.08-1.8-4-3.72-6-5.61a3.46 3.46 0 01-.66-1c-.36-.82-.7-1.65-1-2.49-.69-2-1.46-4.08.57-5.9a2.31 2.31 0 00-.58-.21c-3.45-.25-6.91-.47-10.37-.73-1.06-.08-2.11-.32-3.17-.44s-2.23-.12-3.34-.27c-.44-.06-1.19-.31-1.23-.57-.21-1.3-1.34-1.77-2.06-2.61-2.42-2.8-4.83-5.6-7.26-8.4-1-1.12-2-2.21-3-3.33-.74-.85-1.45-1.73-2.17-2.6a46.28 46.28 0 00-4.51-5.31A27.7 27.7 0 0139.14 27c-.69-.87-1.33-1.78-2.06-2.77l-.78 2.42c1.47 1.54 2.93 2.95 4.25 4.47a17.57 17.57 0 013.07 4.14 44.6 44.6 0 012.59 7.8 25.51 25.51 0 01.08 8.63c-.28 2.64-2.19 4.65-2.79 7.16 0 .05-.09.08-.13.12l-3.29 2.67c-.17.14-.48.28-.49.42 0 1-.8 1.24-1.5 1.58a26.67 26.67 0 00-2.39 1.2 9.6 9.6 0 01-5.18 1.69 4.17 4.17 0 00-1 .2c-2.25.6-4.42 1.62-6.86 1-2-.53-4.06-.9-6-1.49-1.54-.46-3-1.23-4.51-1.71a16.41 16.41 0 01-5.17-2.72 9.45 9.45 0 01-3.12-3.4 36.06 36.06 0 00-2-3.58c-1.49-2.48-2.56-5-1-7.85a1.54 1.54 0 00.13-1.13A4.58 4.58 0 011 42.4a50.67 50.67 0 002.37-6.54C3.7 34.54 4 33.13 5 32.39c1.55-1.2 2.52-2.9 4-4.05 2-1.56 4.18-2.9 6.3-4.31.21-.15.69-.24.83-.12.82.75 1.43 0 2.12-.2a40.23 40.23 0 014.08-1.3 5.31 5.31 0 012.31.08c1.62.36 3.2.85 4.77 1.28C31.08 20.85 36 8.25 36.12 6.4zm68.82 44.69c.26.77.7 1.41-.2 2.23-.54.49-.58 1.55-.94 2.65a8.22 8.22 0 01.46 5.88 8.82 8.82 0 00-.23 2.46c0 .3.5.86.67.83 2.17-.44 4.54.13 6.74-1.23a9.21 9.21 0 00-.86-1.09c-.93-.93-1.9-1.82-2.86-2.73-.21-.2-.58-.41-.6-.63a4.79 4.79 0 00-1.24-3.19c2.91 1.61 5.17 3.94 7.67 5.93 1.19-1.15 1.19-1.15 1.75-5.28h-1.36c-1.3 0-2.6 0-3.9-.08-.35 0-.47-.31-.68-.52a10 10 0 00-2.43-1.32c3-.32 5.58.63 8.23.43a2.63 2.63 0 00.23-2.68 1.94 1.94 0 01-.24-1.19c.41-1.2-.53-1.52-1.07-2.17-1 1-1.91 1.83-2.84 2.65a3.56 3.56 0 01-3.54 1l5.78-5.6a5.6 5.6 0 00-4.26-4.72c-1 2-2 4-3 5.94a1.53 1.53 0 01-1.73.95c.37-.93.73-1.86 1.11-2.79.09-.22.27-.4.34-.63a10.2 10.2 0 013.21-4.73 5 5 0 00-2.57-.86c-1.18-.19-2.38-.24-3.57-.38a4.73 4.73 0 00-4.65 1.68 6.16 6.16 0 01-1 .79c-.23-.83-.17-1.45.49-1.9a7.52 7.52 0 012.13-1.26c2.05-.5 4.14-.91 6.25-.11.6.23 1.33.16 1.93.39 1.09.42 2.29.69 2.89 1.92.16.34.62.53.94.79a8.38 8.38 0 013 4.57 7.84 7.84 0 00.88 1.73c.36.67.74 1.34 1.1 2 1 1.88.55 3.87.36 5.81a20.78 20.78 0 01-1 4.16 4.84 4.84 0 01-1.06 2c-1.58 1.51-3.17 3.06-5.5 3.42a7.78 7.78 0 00-1.34.5 3 3 0 01-1.17.35c-2-.26-3.89.42-5.82.62a23.31 23.31 0 01-4.08-.21 18.72 18.72 0 01-2.12-.34c-.34-.07-.84-.12-1-.35-.48-.82-1.27-1-2-1.25-.47-.18-.78-.82-1.11-1.28s-.49-1.1-.91-1.44a7 7 0 01-2.69-7.07c0-.1-.06-.22-.18-.56l-5.92-.33c-.7 1.89 0 3.38.58 4.86a18.08 18.08 0 008 9.32 21 21 0 0011.59 3.22c1 0 2 0 3 .07a3.11 3.11 0 002.4-.81 4.37 4.37 0 012.51-.67 6.5 6.5 0 003.5-1.21 3.32 3.32 0 011.06-.6 3.06 3.06 0 002.15-1.7 4.27 4.27 0 012.52-2.18c1.49-.42 1.75-1.65 2.27-2.75.22-.47.27-1 .46-1.51a5.85 5.85 0 00.28-4.67 3.09 3.09 0 01.1-2.61 4.53 4.53 0 00-.48-4.59 12.32 12.32 0 01-1.74-5 5.81 5.81 0 00-2.15-3.74c-.86-.73-1.93-1.21-2.81-1.92s-1.71-1.6-2.59-2.44l-1.08.67c-.19-.08-.34-.1-.39-.18a3.35 3.35 0 00-2.61-1.32c-2.32-.28-4.7-.9-7-.23-2.54.73-5.24 1.06-7.5 2.57 1.52 2.36 3 4.64 4.45 6.9s3 4.43 4.55 6.75c1.06-1 .31-1.85 0-2.59-.63-1.86-1.42-3.66-2.06-5.51-.38-1.11-.3-1.13.78-2.35.33.7.67 1.29.9 1.92.84 2.34 1.65 4.7 2.48 7.06.1.49.19 1 .34 1.48zM13.49 27.54c-1 .63-1.94 1.2-2.83 1.9s-1.88 1.23-2.17 2.48c-.1.43-.7.74-1.07 1.1-.73.72-1.87 1.18-1.5 2.55a.4.4 0 01-.06.34c-1.33 1.31-1.23 3.2-2 4.75a9.14 9.14 0 00-1 2.64 10.87 10.87 0 00.43 2.84c.06-.18.05 0-.06.15-1.6 1.71-1.29 3.61-.41 5.46a53.74 53.74 0 003.26 6 11.33 11.33 0 005.08 4.16c2.13.93 4.31 1.76 6.44 2.69a13.85 13.85 0 007.69 1 30.85 30.85 0 009.37-2.61 7.5 7.5 0 002.83-2.06 10.12 10.12 0 012.06-1.72 12.42 12.42 0 004.2-5.43 15.14 15.14 0 001-4.32c.16-1.58-.18-3.21 0-4.78.25-2-.8-3.58-1.17-5.37-.79-3.76-3.28-6.56-5.68-9.37a9.29 9.29 0 00-2-1.41c-1.33 1.16-1.45 2.7-2 4 .2.17.31.34.47.4 2 .88 3 2.6 3.61 4.6.3 1 .79 1.83 1.09 2.78.22.73.23 1.52.45 2.25a11.94 11.94 0 01-.37 8 1.27 1.27 0 00-.12.52c.24 2.14-1.12 3.34-2.58 4.5a2.07 2.07 0 00-.69.81A3.24 3.24 0 0133.85 58a2.94 2.94 0 00-1.07.64c-1.54 1.88-3.77 1.74-5.84 2.05a43 43 0 01-4.8.56 12.19 12.19 0 01-3.86-.37 36 36 0 01-4.76-2 4.84 4.84 0 01-1.08-.91l-1.75-1.63a2.59 2.59 0 00-1.14-2.14 4.12 4.12 0 01-1.3-2.29 44.74 44.74 0 01-.83-4.48c0-.17.13-.39.06-.52-1-2 .27-3.75.49-5.6.08-.76.76-1.45 1.16-2.15l-.48-1.84 2 .22c.57-.75 1.18-1.61 1.85-2.43a21.25 21.25 0 011.81-2c1-.89 2-1.71 3-2.54.73-.6 1.44-1.34 2.52-.92s2-2.12 3.27-.3l3.81.5C28.11 28.62 28 26.76 29 25c-.91-.09-1.59-.19-2.28-.21-1.53 0-3.07 0-4.6-.1-.31 0-.61-.34-.92-.52l2 .31v-.35l-1.95.08a18.28 18.28 0 00-7.76 3.33zM101 52.16a6.39 6.39 0 01-2.55-2.65 13.59 13.59 0 00-1.45-2c-.42-.63-.76-1.33-1.18-2s-.71-.94-1.06-1.42a11 11 0 01-1.5-2.53l-1.2-.38a3.34 3.34 0 00-.85-3c-2.14-2.49-4.17-5.07-6.32-7.56-1.36-1.58-2.83-3.06-4.27-4.58a2.84 2.84 0 01.06-4.37 10.4 10.4 0 002.39-4l-3.5-.61c-.3.71-.54 1.25-.75 1.8a7.89 7.89 0 01-3.71 4.11 3 3 0 01-1.37.24c-2.93 0-5.87.07-8.79-.08a58.91 58.91 0 01-10.15-1.08 48.52 48.52 0 00-5.66-.82c-3-.32-6-.53-8.91-.89-1.19-.15-2.54-.28-2.88-1.85a3 3 0 01-.1-1.18c.52-2.45 1.13-4.88 1.64-7.34a28.8 28.8 0 012.47-6.71h-4.77c.48.63 1.24 1.23 1.39 2a4.79 4.79 0 01-.51 2.36c-.79 2.18-1.69 4.32-2.45 6.5a144 144 0 01-5.34 13.68c-1.2 2.58-2 5.35-3 8-1.16 3-2.38 6-3.58 9-.11.26-.24.51-.36.75 1.82 1.25 2.24 1.24 3.1-.49 1-2 1.76-4 2.61-6.08.72-1.71 1.41-3.42 2.12-5.13.09-.22.16-.51.34-.63 1.91-1.36 2-3.69 2.95-5.55s1.63-3.57 2.47-5.36a9.53 9.53 0 01.84-1.19c3 3.93 5.92 7.74 8.91 11.46 1.44 1.81 3.07 3.47 4.64 5.19 1.21 1.32 2.46 2.6 3.65 3.93 2.39 2.68 4.75 5.38 7.11 8.08a4.83 4.83 0 003.46 1.64l8.24.49c1.13.07 2.25.21 3.39.28 2.8.18 5.61.29 8.41.51 3.51.27 7 .55 10.52 1 1.7.21 3.36.76 5 1.13 1.13.25 1.84-.17 2.45-1.44-.64-.45-1.33-.79-1.95-1.23zM16.81 58a8.64 8.64 0 01.76-1.14c.36-.38.5-1.22 1.37-.74.07 0 .4-.33.57-.54a8.76 8.76 0 012-2l-2 5.1h4.24a15.34 15.34 0 00.76-5.19c0-1.32.39-1.94 1.87-3.08.21 2.65.82 5.12 0 7.86 2.15-.07 4.17 0 5.89-1.53-.35-1.84-2.1-2.59-2.88-4s-1.68-2.82-2.4-4a21.24 21.24 0 01-3.33-.4 5.74 5.74 0 01-3.12-2.84c-.73-1.21-.39-2 1-2.58l.55-.22.73-2.14c-1.5-2.22-1.95-2.41-4.26-1.82-1.68-1.14-2.18-2.86-2.25-5-1.84 1.11-2.2 3.13-3.84 4.5l5.73 2.42c-1.49 1.18-1.87 1.12-7-1-2.13 1.22-1.53 3.26-1.57 5.34a16 16 0 019.17-.8 5.15 5.15 0 01-3.14.7 12 12 0 00-4.84 1.1 2.13 2.13 0 00-1.18 2.4 11 11 0 001.84 4.83 9.57 9.57 0 004.12-3.68c.63-.92 1.13-1.82 2.42-1.87.37 0 .7-.41 1.07-.6s.69-.31 1.08-.49c-1.17 1.58-2.17 3.14-3.34 4.5s-2.66 2.53-4.3 4.06zm19.71-19.36a558.6 558.6 0 00-6.59 3.67 1.45 1.45 0 00-.56.66c-.73 1.57-1.42 3.14-2.17 4.83l6.35 8.49.79-1c.38-.51.67-1.28 1.18-1.48 1.14-.44 1.35-1.36 1.79-2.48C34.55 50.75 32 50 30 47.9l7.21 2.1c1.36-3.21 1.43-3.81.5-5.14-1.86 2-4.33 1.93-6.76 2a8.62 8.62 0 01-2-.43v-.47a39.29 39.29 0 004.48-.65 40.69 40.69 0 004.32-1.62c-.15-1.69.02-3.44-1.23-5.05zm59 26.12a30.65 30.65 0 001.74-2.68c.63-1.2 2.11-1.92 1.85-3.71l1.31.53c0 2.39-1.17 4.32-2.45 6.26l3.14.25c.69 0 1.22-.2 1.29-.93.27-2.7 1.51-5.33.45-8.15a3.85 3.85 0 01-3-.24c-.51-.27-1.38.2-2.07.14-1.76-.16-3.51-.44-5.27-.63-1.18-.13-2.37-.18-3.73-.28.14 1.51.25 2.83.38 4.26l7.07-2c-.12.53-.1 1-.28 1.08a14 14 0 01-2.52 1.3c-1 .38-2.17.6-3.54 1a9.54 9.54 0 005.63 3.8zM54.25 4.16c.37-1 .37-1-.26-1.95L42.87 3.45l1.88.63-.32.67c3.13.79 6.18.38 9.24 0l-4.39-.24V4.4zM24 30.62c-1.2 1.29-1.19 1.29-1.15 3.1v2.88a4.1 4.1 0 00.68 1.91c1.08-2.55 2.17-5.1 3.25-7.64l-.23-.36c-.87.66-1.75.9-2.55.11zm12.31 6.28c-.2-1.54-1.56-2.2-3-3-.9 2-1.8 3.88-2.7 5.81l.29.23zm-15.59-5.47c-2 .11-2.7 1-2.08 2.61.42 1.1.9 2.19 1.37 3.27.08.18.27.3.67.74.32-2.45-.04-4.53.04-6.62zM27.42 2c-.54 0-1.18-.13-1.25.61s.49.9 1.06.91h4.45A5.57 5.57 0 0027.42 2z"/><path d="M80.25 29.17c1.31 1.74 3 3.15 4.43 4.83 3.23 3.89 6.39 7.84 9.53 11.81a9.41 9.41 0 011.41 2.46 1.94 1.94 0 01-2.17 2.49c-2.6-.3-5.22-.48-7.83-.74a23.09 23.09 0 01-3.72-.48 28.74 28.74 0 00-6.72-.88 24.72 24.72 0 01-2.81-.41c-.58-.08-1.17-.12-1.76-.21-.82-.12-1.66-.21-2.46-.41a1.11 1.11 0 01-.72-.68 3.1 3.1 0 01.31-2.69c1.77-2.47 3.38-5 5-7.63s3.17-5.19 4.76-7.78c.24-.39.57-.73.9-1.16a3.76 3.76 0 011.85 1.48zm-.79 1.2a52.16 52.16 0 00-4.88 7.71c-1.47 2.52-3.17 4.9-4.93 7.58 4.35.72 8.49.91 12.64 1.45.17-2.48 1-4.43 3.13-5.62A12.61 12.61 0 0087 40.33c-1.35-1.77-2.47-3.29-3.66-4.75-.44-.54-1-.92-1-1.75 0-.32-.51-.62-.79-.93l-.7-.94zm10.7 14.2l-1.8-2.47c-2 1.48-3.88 2.89-5.17 5.31l4.8.21zm.5 3.23H93L91.43 46zM59.52 42.88c-2.65-2.74-5.33-5.46-7.89-8.29s-4.84-5.59-7.2-8.43A1.68 1.68 0 0144 24.1c4.95.56 9.9 1.25 14.87 1.65s9.94 1.16 15.27.63c-3 6.75-6.93 12.61-10.91 18.43a5.34 5.34 0 01-3.71-1.93zm5.42-15.12c-2.33.12-4.62-.06-6.93-.16-2.68-.11-5.36-.42-8-.73a16.68 16.68 0 01-2.69-.87c5.12 5.84 9.77 11.53 15.4 16.65.88-1.57 1.7-3 2.54-4.52 1.13-2 2.2-4 3.45-5.86C69.3 31.42 70.44 31 71 30c.24-.46.45-.93.77-1.59a46.16 46.16 0 00-6.83-.65z"/><path d="M80.79 32c-.63.11-.57.51-.26.85s.57.93 1 .09z"/></g></g></symbol><symbol viewBox="0 0 212.23 159.6" id="boat" xmlns="http://www.w3.org/2000/svg"><defs><style>.dcls-1{opacity:.8}.dcls-2{fill:#0b242b}</style></defs><g id="dLayer_2" data-name="Layer 2"><g class="dcls-1" id="dLayer_1-2" data-name="Layer 1"><path class="dcls-2" d="M185.07 98.11c-1.61 3.49-3.33 6.93-4.79 10.48-1.05 2.55-3.2 3.68-5.4 4.64a34.22 34.22 0 01-13.49 3h-10.32a9.34 9.34 0 016.28-2.88 106 106 0 0011.21-1.42 12.7 12.7 0 008-4.73c2.58-3.23 5.47-6.22 8.22-9.31z"/><path class="dcls-2" d="M177.44 96.34v4.57c-5.84 7.81-14 8.25-23.16 7.73 2.21-3.11 5.31-3 7.56-3 5.76.07 9.23-3.35 12.88-6.8.72-.7 1.47-1.35 2.72-2.5z"/><path class="dcls-2" d="M37 63.37c7.81 0 15.65.35 23.44-.1 9.05-.52 18.08.31 27.11-.08 3.16-.14 6.32-.52 9.48-.67 5.75-.27 11.5-.52 17.25-.65 12.36-.27 24.75-.12 37.09-.76 12.85-.68 25.68-.48 38.52-.56 5.14 0 10.3.31 15.19 2.17a16 16 0 013.12 1.8c1.51 1 1.74 2.22 1.14 4.09-1.62 5.1-2.7 10.37-5 15.25-1.36 2.85-2.49 5.83-4 8.62-3.54 6.7-6.95 13.5-10.92 19.94-3.6 5.82-8.75 9.77-15.95 10.58-4.62.51-9.18 1.5-13.76 2.3a42.68 42.68 0 01-4.69.92c-12 .8-24 1.69-35.93 0a20.17 20.17 0 00-4.39-.15c-8.54.67-17.06 0-25.58-.24A97.65 97.65 0 0068 127.4a22.34 22.34 0 01-5.82.42c-4.12-.32-8.2-.95-12.3-1.38-1.7-.18-3.42-.07-5.11-.25a31.39 31.39 0 01-14.28-5.28 17.66 17.66 0 00-3.1-2c-4.92-1.89-7.68-5.62-9.88-10.27-2.83-6-6.37-11.55-9.38-17.42C5.43 86 3 80.69.56 75.34c-1.29-2.88-.34-4.61 2.7-5.48 6.59-1.88 13.12-4 19.81-5.47 4.5-1 9.23-.94 13.86-1.36zm167.42 7.31l-.73-.39a31.12 31.12 0 00-3.22 2.94 28.76 28.76 0 01-12.61 8.5 30 30 0 01-7.41 1.45c-3.33.36-6.58 1.4-10 .78a.74.74 0 00-.35.08c-5.35 2-10.91 1.16-16.39 1.22-5.1.06-10.2-.12-15.3-.08-4.38 0-8.65 1.46-13.13.71-4.1-.68-8.27-1.18-12.41 0a1.81 1.81 0 01-1.08 0 15 15 0 00-8.51-.41 44.82 44.82 0 01-12 .21c-5.54-.48-10.86.92-16.3 1.25-7.67.46-15.29 1.63-23 1.48-1.45 0-2.91.24-4.37.29-4.4.16-8.82.16-13-1.32-7.14-2.48-13.61-6.14-20.21-9.68-2.91-1.58-5.83-3.3-9.4-4.11 1.68 3.63 3.15 6.84 4.64 10 .87 1.87 1.69 3.78 2.67 5.6 2.91 5.37 6.09 10.6 8.79 16.07 2.12 4.28 4.58 8 9.05 10.12a9.49 9.49 0 012.09 1.49c3.82 3.28 8.44 4.2 13.26 4.61 5.58.46 11.17.84 16.71 1.54 7.2.92 14.37.36 21.54.11 9.15-.32 18.28-1 27.42-1.26 7.46-.19 14.93.09 22.4.14 1.34 0 2.69 0 4-.11 4.51-.33 9-.71 13.52-1.07 1.59-.13 3.19-.16 4.75-.4 5.07-.8 10.1-1.83 15.19-2.45a12.77 12.77 0 008.06-4c2.43-2.58 5-5.15 6.79-8.17 5.61-9.6 10.91-19.38 16.22-29.15a44.66 44.66 0 002.28-5.99zm-49.73 9.63c-.91-2.88-2-5.09-2.24-7.39s.26-4.73.47-7.56h-14a5.48 5.48 0 00-.37 1.51c.38 4 .71 8 1.26 12 .23 1.74 1.4 1.66 2.8.67a6.81 6.81 0 011-6.38c.76 2.4 1.42 4.45 2 6.33zM70.51 67.1c-1.2 5.39 1.75 10.33-1.14 15.18-1.33-5.1-2.85-10-2.6-15l-7.37-.57c.7 5.67 1.34 11 2 16.3.13 1 .47 1.94 2.26 1.55V75l.89-.16c1.86 3 .67 7.13 3 10.09l8-.8c-.84-3.82-1.62-7.24-2.34-10.68-.32-1.56-.42-3.16-.85-4.69-.15-.52-.96-.88-1.85-1.66zm-16-.24c-4 0-7.69.15-11.32 0s-7.31-1-11.12-.23c.36 1.35.62 2.32.91 3.37a21.1 21.1 0 004.52-.07 22.85 22.85 0 004.25-2V70c2.26-.19 4.41-.52 6.55-.5s4.09.41 6.41.67c-.08-1.32-.13-2.17-.2-3.31zm73.09-.63l-.22-.54h-5.41c-3.41.12-6.89.81-10.22.36-5.53-.74-10.93 1.74-16.43.28-.34-.09-1.18.55-1.25 1s.34 1.39.7 1.48a4.93 4.93 0 002.82 0 20.83 20.83 0 014.14-.89c2.12-.39 4 .37 6 .3 5.6-.17 11.21-.38 16.81-.72a10 10 0 003.06-1.27zm63.07-.71c-4.69.21-9.42-.62-14.71.42 1 1.11 1.51 2.13 2.1 2.2 4.41.49 8.7.05 12.61-2.62zm-27.81 5.25c3.81-.41 6.36-3.06 9.36-5a23.67 23.67 0 00-5.77-.34c-3.69.25-4.31 1.16-3.59 5.34zM30.6 68.05c-5.52-2.43-10.1.82-14.95 2.42a19.05 19.05 0 004.89-.53 4.65 4.65 0 012-.27C26.83 71 27.29 71 30.6 68.05zm172.09-.66c-6.52-2.51-9.36-2.39-11.28.08 1.46.18 2.85.78 3.88.4 2-.75 2.76.46 3.49 1.93.86-.5 1.48-.85 2.08-1.22s1.22-.8 1.83-1.19zm-127.36 0c1.27 4.14 3.51 4.06 7.68 0zm86.2-1.09l-.25-.82c-2.08.1-4.24-.77-6.42.61l2.35 3.09zm-70.17.85c-2.41.05-4.52 0-6.33 1.35-.24.17-.14.79-.21 1.27 2.72.16 4.92-.06 6.54-2.67zm-45.11 9.77c3.49.83 4.9.61 6.62-1.22-2.36.42-4.65-.88-6.62 1.22zM27.19 76c2.07.49 3.54 1 5.09-.88-1.84-.47-3.28-1.25-5.09.88zm65.4.43c-1.73.3-3.22-.65-4.44 1.32 1.7.25 3.23 1.7 4.44-1.28zm-51.47-.41c-1.54 0-3.29-1.11-4.57.81 2.89.57 2.89.57 4.57-.77zm92.42-8.46c-.83-1-1.37-2-1.67-1.89a6.84 6.84 0 00-2 1.28l.29.61zm-50.78 8.81l-.55-.37L81 77.64l.68.47c.32-.58.72-1.11 1.08-1.74zM6.5 141.31a18.07 18.07 0 012.78-3.09 38.74 38.74 0 0121.28-7 52.64 52.64 0 0117.27 2.66 47.54 47.54 0 0026.05.74c6.42-1.51 12.94-2.63 19.41-3.91a6.59 6.59 0 011.45-.21c7.23.09 14.44-.29 21.64 1.1 4.17.81 8.54.62 12.81 1 1.94.17 3.86.56 5.78.9 2.49.44 4.91 1.41 7.53.77a3.81 3.81 0 011.82.18c4.17 1.19 8.4 1 12.64.68a4.8 4.8 0 011.46-.05c4.9 1.1 9.77-.09 14.58-.5s9.53-2.06 14.29-3.11c6.81-1.51 13.61-3 20.43-4.43a26 26 0 014.51 0c-2.91 3.49-6.37 4.32-9.56 5.48-5 1.8-10 3.45-15.16 4.85a39.77 39.77 0 01-9.71 1.62c-5.61.1-11.18 1-16.84.47a138.48 138.48 0 00-14.27-.28c-1.94 0-3.89.51-5.82.46a31.84 31.84 0 01-7.24-.83 79.73 79.73 0 00-18.12-2.22c-5.76-.2-11.52-.56-17.28-.52a97.33 97.33 0 00-12.76 1c-4.1.58-8.14 1.62-12.19 2.5a56.52 56.52 0 01-21.53.37 46 46 0 01-5.25-1.62c-6-1.8-12-3.29-18.39-2.23-2.16.36-4.3.88-6.42 1.42-2.71.68-5.41 1.43-8.09 2.21a6.33 6.33 0 00-1.86 1 5 5 0 01-5.24.59z"/><path class="dcls-2" d="M8.46 149.63c4.61-2 8.58-3.78 12.52-5.57 7.26-3.31 14.56-3.85 22-.62 2.53 1.1 5.16 2 7.79 2.84 5.3 1.74 10.66.77 15.84-.38 6.89-1.53 13.6-3.9 20.48-5.47 5-1.14 10.1-1.58 15.16-2.31a5.84 5.84 0 011.77 0c5 .79 10 1.57 15 2.43a38.15 38.15 0 016.39 1.43c7.82 2.76 15.73 4.65 24.1 3.54a3.56 3.56 0 011.08 0c7.32 1.16 14.4-.09 21.45-1.93a29.62 29.62 0 017.58-1.31c9.12.09 17.51-3 26.08-5.42 1.13-.32 2.26-.61 3.54-1 0 .74.06 1.34-.07 1.4-3 1.23-4.1 4.77-7.45 5.57-3.2.76-6.25 2.24-9.47 2.84-5.52 1-11.12 1.58-16.68 2.38-5.78.82-11.56 1.7-17.34 2.53a8.44 8.44 0 01-1.81.06c-5.86-.35-11.71-.77-17.58-1.06-1.67-.08-3.49.67-5 .25-3.95-1.07-7.76-2.63-11.66-3.89a31.57 31.57 0 00-6-1.54c-5.33-.63-10.68-1.24-16-1.47a40.38 40.38 0 00-10.54.72c-5 1.14-10 3-14.92 4.5a5.69 5.69 0 01-.69.25c-4.55.85-9.07 2-13.66 2.44-2.86.28-5.83-.38-8.75-.69-2-.21-4.05-.52-6.06-.84a2.31 2.31 0 01-1.34-.53c-1.43-1.73-3.57-1.41-5.36-2.06-4.75-1.75-9.19-.64-13.64.78-3 1-5.88 2.5-8.95 3.23-2.4.55-5.12 1.7-7.81-1.1z"/><path class="dcls-2" d="M21.41 159c.3-.67.41-1.56.85-1.77 6.66-3.19 13.26-5.87 21.06-3.62 8.15 2.39 16.68 2.58 25.09 1.69a58.83 58.83 0 0014.48-3.7 55.59 55.59 0 0127-3.47c5.69.7 11.28 2.22 17 3.1 7.23 1.12 14.34 3.24 21.77 2.87 4.25-.2 8.5-.54 12.75-.76 2.32-.12 4.66-.24 7-.14A29.12 29.12 0 00177 152c6.62-1.7 13.41-2.78 20.16-4a37.46 37.46 0 017.89-.49c-1.54 1.58-2.83 3.13-5.15 3.6a99.74 99.74 0 00-14.56 3.66 58.82 58.82 0 01-21.17 3.56c-7-.06-13.93.68-20.88.52-4-.1-8-1.24-11.92-2-3.22-.62-6.42-1.4-9.64-2.06a95.28 95.28 0 00-10.78-2.07 77.46 77.46 0 00-11.7 0c-6.92.41-13 4.15-19.74 5.22-4.93.78-9.93 1.23-14.92 1.54-2.89.18-5.81-.33-8.72-.32-4.73 0-9.14-1.47-13.6-2.71a19.56 19.56 0 00-10.16 0c-3.46.91-6.94 1.69-10.7 2.55zM121.05 64.59c-2.14-1.11-2.46-2.17-1.36-3.8 3.7-5.47 7.31-11 10.95-16.5 1.67-2.53 2.6-5.16 1.86-8.32-1.05-4.53-.29-8.81 2.9-12.35 6-6.73 11.93-13.65 18.39-20 5-4.89 9.53-4.72 15.15-.52A42.81 42.81 0 01174 7.89a3.77 3.77 0 01.78 4.08C173 17.05 171 22 167.51 26.25c-2.94 3.55-5.29 7.59-7.85 11.45a19.46 19.46 0 01-13.27 8.88c-1.43.25-2 1-2.85 2.22a102.94 102.94 0 01-7.49 9 15.75 15.75 0 00-2.26 2.74c-1.52 3-1.57 3.1-5.42 4.17-1.4-1.17-1.27-2.36-.2-3.75 2.7-3.48 5.69-6.81 7.87-10.6 2.49-4.31 5.64-7.11 10.51-8.35 3.89-1 6.71-4 9.38-6.76a95.64 95.64 0 009.91-12.16c2.06-3 3.39-6.44 5-9.71a3.24 3.24 0 00.29-1.76c-.41-2.91-5.47-7.38-8.49-7.83s-4.94 1-6.92 2.72a88.09 88.09 0 00-12.52 13.86 26.18 26.18 0 01-3.31 3.93c-2.94 2.52-3.48 5.76-3.22 9.31.1 1.34.28 2.67.43 4a9.46 9.46 0 01-1.64 6.59c-3.08 4.55-6 9.22-9.12 13.75-1.59 2.29-3.47 4.37-5.29 6.64zM96.58 64A32.1 32.1 0 0192 61.32c-6.37-5.19-10.74-12-15-18.89-1.89-3-1.4-4.37 1.53-6.81 1.07-.89 2-2 3-2.95l-.54-.8c-1.85.67-3.86 1.06-5.51 2.06a79 79 0 00-11.78 8.56 6.93 6.93 0 001.67.2c6.42-.94 9.7 1.09 12.42 6.82a16.07 16.07 0 005 5.64c3.45 2.52 5.16 6.1 7.58 9.84a7.91 7.91 0 01-6.74-2.3c-3-3-5.85-6.21-8.69-9.4-2-2.27-3.9-4.67-5.81-7-6.81 1.9-8.31 1.36-11.27-4.24.94-1 1.78-2.51 3-3.31 5.06-3.18 9.66-7.12 15.28-9.4 3.26-1.32 4.15-1.37 7.7.19.33 3.33-1.13 5.83-4 7.83 1.91 4.65 5.28 8.19 8.29 12a72.42 72.42 0 019 13.77z"/><path class="dcls-2" d="M144.09 35.3a23.09 23.09 0 009-8.29 36.28 36.28 0 012.08-3.45 20.19 20.19 0 013.95-4.07c-.25.65-.44 1.34-.75 2-1.77 3.46-3.43 7-5.44 10.3a5.17 5.17 0 01-4.37 2.94c-1.36 0-2.71.77-4.07 1.19zM148.78 25.78q1.78-2.72 3.56-5.43l.66.42c-.4 2.34-2.13 3.87-3.45 5.65zM81.4 92.88a7.49 7.49 0 01-1.4.74c-3.82.7-7.63 1.52-11.48 2a127.43 127.43 0 01-23.84.66 12.57 12.57 0 00-4 .36c-2.91.8-5.37-.26-7.6-1.78a53.09 53.09 0 01-5.36-4.8 4.55 4.55 0 014.11 2c2.28 2.84 5.32 3.13 8.63 2.7 1.66-.22 3.34-.32 5-.4 4.4-.2 8.81-.19 13.19-.56 7.35-.64 14.75-1.4 22.75-.92zM78 117.79c-4.56.56-9.1 1.26-13.68 1.62a25.73 25.73 0 01-6-.65c-.36-.06-.62-.69-1-1.09 2.89-1 16.79-1.5 20.5-.77zM40.69 117.21l-2.45-4.67 4.15 2.18c1.35 0 2.84-2.06 4.26.44-1.9.77-2 2.24-1.32 4.06z"/></g></g></symbol><symbol viewBox="0 0 219.64 162.8" id="boot" xmlns="http://www.w3.org/2000/svg"><defs><style>.ecls-1{fill:#a34b2a}</style></defs><g id="eLayer_2" data-name="Layer 2"><g id="eLayer_1-2" data-name="Layer 1"><path class="ecls-1" d="M203.44 93.71l-4.67 5.52c-3.78-.9-7.8-2.5-11.7.42.43.81.86 1.63 1.27 2.39-.09.3-.09.59-.23.73a40.62 40.62 0 01-12.29 8.07 3.3 3.3 0 01-3.31-.48c-2.6-1.57-5-.11-7.46.53-.32.08-.52.7-.74 1.1s-.31 1.09-.61 1.18c-2.45.79-3.56 3.58-6 4.14a43.05 43.05 0 01-7.58 1c-2.06.08-2.43-.51-3.07-3.17l-8.41 2.07c.67 3.21-.3 5-3.79 5.32-3.18.31-5.62 2.1-8.42 3.1-3.16 1.13-4.49.89-5.71-2.1-.65-1.59-2.25-2.32-4.7-2.07-1.73.18-3 1.14-3 2.9 0 3-1.52 4-4.27 4.47s-5.48 1.92-8.27 2.73a15 15 0 01-5.52.86 9.24 9.24 0 01-4.17-2.2 8.43 8.43 0 01-1.65-2.41c-2.6-.35-5-.63-7.38-1A2.42 2.42 0 0079 128c-.26.39-.71.73-.8 1.16-.93 4.15-4.55 4.68-7.69 6.19-4.14 2-8.59 2.74-12.82 4.22a11.13 11.13 0 01-6.58.53c-4.67-1-5.62-5.1-6.87-8.59-1-2.79-1.35-5.85.36-8.9 1-1.78.54-4-.72-6a132.39 132.39 0 01-11.75-23.8c-1.26-3.31-2.34-6.69-3.3-10.09A55.82 55.82 0 0020.54 66a48.23 48.23 0 01-6.62-14 59.08 59.08 0 01-2.13-15c0-1.4-.35-2.79-.53-4.2-.79-.33-1.48-.89-2.08-.81-2.74.41-3.72-1.32-4.63-3.39A57.3 57.3 0 01.16 14.18c-.58-3.76.46-6.71 1.89-9.75 1.32-2.8 3-3 5-.57a20.37 20.37 0 013.09 5.45c1.07 2.7 1.78 5.55 2.84 9 1.09-1 1.83-1.64 2.5-2.33s1.38-2.15 2.31-2.42a16 16 0 015.54-.56 8.14 8.14 0 014.82 2.46c2.43 2.21 4.87 4.44 7.49 6.41a11 11 0 008.51 2.41 5.53 5.53 0 003.41-1.47c4.69-4.63 9.37-9.23 13.07-14.81a42.47 42.47 0 015.87-6.54c2.13-2.08 6.76-1.92 8.63.37a24.84 24.84 0 013.06 5.51 42 42 0 011.66 5c1.15 3.66 2.22 7.38 3.3 10.94 1.71 1.44 3.71 2.71 5.11 4.46.82 1 .68 2.84.95 4.24l-2.06.74 1.38 5.67A7.62 7.62 0 0195.1 44c.31.91-.29 2.13-.56 3.74.82 1.55 2.28 2.23 4.86 1.6 1.91-.47 4.1.24 6.26.44a18.94 18.94 0 00.45 2.78c.2.64.52 1.54 1 1.73 2.32.87 4.46 2.67 7.24 1.48 3.61-1.55 5.7 1.31 8 3.11.65.52.44 2.12.69 3.57a11.13 11.13 0 002.6-.43c1.46-.6 2.58-2 4.53-1.27 2.54 1 5.4 1.63 6.64 4.27 1 2 2.46 2.58 4.45 2.84 1-2.57 3.47-2.81 5.75-3.23a8.4 8.4 0 012.83 0c4.75.78 4.64.15 5.91 5 3.93.06 8-.23 12.06.27s7.43-1.07 11-2.58c5.61-2.37 9.44-.85 12.74 3.49 2.82 3.72 5.26 7.79 5.29 12.78a4.47 4.47 0 001.48 3 80.28 80.28 0 015.12 7.12zM26.64 66.13c.92 3.26 1.74 6.28 2.64 9.28.15.5.7.87 1 1.33a11.15 11.15 0 011.36 2c1.57 3.65 3.11 7.31 4.59 11 1.13 2.85 2 5.79 3.26 8.59 1.45 3.34 3.12 6.59 4.74 9.86.71 1.44 1.53 2.83 2.52 4.63 6.76-3.89 13.48-6.91 20.64-8a95.81 95.81 0 0129.13-38.7L91 63.33c-.5 1.7-.91 3.09-2.75 3.38-1.68.25-3.31.5-4.71-.55a6.26 6.26 0 01-2.65-4c-.44-2.73 1.88-3.77 3.21-5.11-1.34-1.47-2.38-2.71-3.52-3.85-.64-.63-1.51-1.6-2.17-1.53-2.68.28-4.45-1.44-6.41-2.6a4 4 0 01-.76-6.33 13.09 13.09 0 011.91-1.38c-.9-2.24-1.75-4.38-2.6-6.5a16.92 16.92 0 01-2.69 0c-3.81-.65-4.4-2.39-3.52-5 .36-1.1.84-2.17 1-2.65L61 13.88c-1.92 2.4-3.63 4.32-5.09 6.42a4.07 4.07 0 00.16 5.48 12.28 12.28 0 011.74 3.79c.9 2.43 1.84 4.85 2.51 7.35.85 3.18 1.5 6.42 2.11 9.65a3.43 3.43 0 01-.43 2.31c-2.53 3.81-4.8 7.88-7.86 11.23a60.72 60.72 0 00-8.54 11.53c-2.43 4.36-6 4.49-8.65.29a59.61 59.61 0 01-3.32-6.88zm44.6 37.77a4.74 4.74 0 001.25.1c5.54-1.43 11.23-1.17 16.87-1.52 4.12-.25 8.26-.21 12.38-.43 7.52-.41 15-.85 22.55-1.38 3.88-.27 7.76-.63 11.6-1.18 7.55-1.07 15.06-2.31 23-3.53.57-1.69 1.19-3.58 1.85-5.46 1.41-4 2.69-8 4.33-11.93.79-1.88 2.28-3.46 3.41-5.12l-14.09-.88a18.74 18.74 0 01-1.55 2.89 11.36 11.36 0 00-2.75 6 3.3 3.3 0 01-1.72 2 7.77 7.77 0 01-11-3.93c-.64-.17-1.31-.39-2-.52-2.51-.47-5.26-2.18-7.08 1.3-.08.16-.39.26-.6.28-3.25.31-6.42 1.76-10.31.44-.29-1.4-.65-3.12-1-5l-4.47-2.39c-2.35 2.21-5.07 2.58-8 2.24-3.27-.38-4.51-2.87-5.48-5.56-7.68 4.75-25.76 27.16-27.19 33.58zm86.83 5.48a13.24 13.24 0 011.25-1c3.62-2.22 7.76-2.61 11.82-3.28a2.23 2.23 0 011.62.45c1.85 1.65 3.56 1.17 5.37 0a25.16 25.16 0 012.85-1.41c3.47-1.73 3.49-1.79 2.76-6.1 2.6-.83 5.3-1.57 7.9-2.59 1.26-.5 2.24-.91 3.62-.19s2-.55 2.53-1.63L192.85 88c-4.06 2.75-8.25 5.38-13.14 6.6-.67.17-1.23.7-1.89.93-1.65.58-3.31 1.18-5 1.6-2.16.55-4.49.61-6.51 1.45-6.28 2.62-13.05 2.83-19.59 4.12-4.57.89-9.28 1-13.92 1.52-1.52.17-3 .56-4.53.66-3.77.25-7.53.53-11.3.52-5 0-10 1.05-15-.17a5.53 5.53 0 00-1.74.14c-5.61.56-11.22 1.15-16.83 1.69-3.86.36-7.74.6-11.59 1-1.23.14-2.72.28-3.15 1.84-.37 1.37-1 2.84-.8 4.14.52 3.14-.39 6-1 8.93s-.84 5.74-1.24 8.7a9.63 9.63 0 008.27-5.06 4.57 4.57 0 014.28-2.51c3.4-.2 6.79-.7 10.2-.87 3-.15 6-.13 6.66 3.67 4.31.91 7.36-2.1 11.06-2.39.09-.81.13-1.4.23-2a4.25 4.25 0 014.55-3.94c3.62.1 7.25.29 10.87.41a2.54 2.54 0 012.57 1.46 8.88 8.88 0 001.35 1.61l7.78-3c-.4-1.27-.73-2.13-.93-3-.38-1.75.11-2.32 1.88-2.61 3.94-.64 7.86-1.37 11.8-2 1.44-.23 2.91-.24 4.49-.35-.29 1.5-.49 2.54-.73 3.75 3.8.44 6.38-1.54 9.29-2.73-.46-.98-.76-1.73-1.17-2.73zm-128.33-85C31.9 36.42 35.36 48 38.43 59.52c.86 0 1.22.08 1.56.07 5.95-.3 11.92-.55 14.67-7.3a2.88 2.88 0 01.69-.8A7.42 7.42 0 0057.19 44c-.86-3.42-1.32-6.94-2.2-10.36-.83-3.25-2-6.42-3.15-10.08-3.75 2.44-6.79 5.45-11 5.26a18.14 18.14 0 01-11.1-4.46zm2.78 36Q29.92 50.23 27.31 40c-.23-.91-.43-1.82-.59-2.74-.26-1.49-.48-3-.73-4.49-.62-3.81-1.79-7.56-1.3-11.5a4.63 4.63 0 00-2.59-4.76c-1.42-.55-3 .44-4 2.63a8 8 0 00-1 3c0 5.45-1.87 10.92.22 16.38a22.23 22.23 0 01.9 4.85 58 58 0 005.92 18.91c5.47-.06 5.48-.06 8.38-1.91zM161.44 95c11.13-2.42 21.66-5.47 31.2-12.16-2.16-3.25-3.12-7.2-6-10.08a5.15 5.15 0 00-1.67-1.3c-1.17-.43-2.55-1.13-3.63-.87-6.18 1.52-11.36 4.59-14.11 10.64-2.03 4.47-3.8 9.04-5.79 13.77zm-95.33 15.26c-3.72-.08-15.33 3.91-17.42 5.89a2.14 2.14 0 00-.71 1.16c-.35 3-.63 6-.9 9a2.5 2.5 0 00.36 1c1.19 2.75 2.38 5.51 3.69 8.51 3.27-.87 6.22-1.55 9.08-2.49a3.14 3.14 0 001.5-2.07c.75-3.21 1.28-6.47 1.95-9.7.78-3.74 1.62-7.48 2.45-11.3zM80 24.12C77.27 18 74.77 12.33 72.12 6.69c-.56-1.18-1.31-2.6-3.12-2.35-1.25 1.45-2.45 2.9-3.7 4.3a4 4 0 00-.92 4.51c1.56 4 2.89 8.15 4.42 12.54zm38.9 54.35c2.49.47 4.53 0 5.76-1.64 2.86-3.79 5.83-7.55 8-12.12l-3.56-1.55c-4.87 4.18-7.04 9.84-10.2 15.31zM8.91 26.56a68.89 68.89 0 01-2.41-8c-.44-2.46-1.87-4.91-.73-8.36C8.89 15 8.5 20.48 12.31 24 9.6 17.88 9.25 10.93 5.75 4.86 2.2 9.33 4 21.69 8.91 26.56zm75 12.9a26.74 26.74 0 00-.5-4.39 2.28 2.28 0 00-1.67-1.4c-2.51 0-5 .36-8.06.62.8 2.61 1.45 4.74 2.09 6.85zM67.05 29.33c.21 3 1.92 2.55 3.19 2.42 3.05-.33 6.06-1 9.11-1.22 2-.16 3.93-.22 5.89-1.6-.41-.9-.82-1.78-1.19-2.6zm36.11 41.86l.49 1c1.4-.41 3.21-.41 4.13-1.31 3.21-3.12 6.12-6.56 9.14-9.88-1.3-.32-2.58.41-3 .06-2.34-1.84-2.69.29-3.52 1.54a29.47 29.47 0 01-2 3.09c-1.73 1.86-3.51 3.66-5.24 5.5zm4.57-12.76L103 55.37c-2.66 1.86-5.62 3.25-6.73 6.37 2.84 3.13 5.34 1.87 7.81-.36 1.01-.94 2.16-1.77 3.65-2.95zm35 20.54l1.16.71c3.77-3.08 5.7-7.37 7.54-12a8.61 8.61 0 00-6.34 1.32 43.48 43.48 0 01-.61 5.29 39.48 39.48 0 01-1.73 4.71zM73.3 45.2c1.76 2.16 3.12 3.34 5.06 2.52C82 46.2 85.5 44.49 89 42.79c.27-.13.29-.8.63-1.8-2.51.62-4.59 1.11-6.66 1.64-2.97.79-5.97 1.6-9.67 2.57zm10.18 5.92c4.13 4.64 6 5.79 10.79-.2l-2.78-3.34zM41.68 70l.83.16 5.9-9.26c-3.38.83-6.24 1.16-8.58 3.28.65 2.05 1.25 3.95 1.85 5.82zm72.59 1.4l5.32.43c1.09-1.77 2.17-3.5 3.24-5.23-3.4-2.26-5.16-1.28-8.56 4.82zm26.63-.09l-5-2.44c-1 1.83-1.94 3.5-3.17 5.69l5.63.77zm-39.75-19.39l-.51-.61c-.22 0-.51-.14-.65-.05-3.47 2.37-6.9 4.79-10.4 7.12-1.4.94-1.89 2.2-2 4.18 5.08-3.26 9.2-7.1 13.56-10.64z"/><path class="ecls-1" d="M66.21 146.31c-1.4 1.37-3 2.73-4.37 4.29a110.75 110.75 0 00-5.52 6.88 9.62 9.62 0 01-5.29 3.9c-3.63 1-7.2 1.84-11.1 1.19A103.7 103.7 0 0125.26 159c-3.29-1-4.84-3.63-5.36-6.88a72.38 72.38 0 00-4.15-16 18.16 18.16 0 01.25-13.85c1.06-2.73 2.14-5.46 3.3-8.14 3.34-7.69 9-8.19 15.75-5.7 1 .35 1.62 1.51 2.41 2.29l-.36.75c-1.68-.34-3.35-.8-5-1a17.11 17.11 0 00-5.1 0c-2.6.52-2.92 3.27-3.78 5.13a58.15 58.15 0 00-3.75 11 13.16 13.16 0 00.09 6.91 123.6 123.6 0 014.72 19.86 11.06 11.06 0 00.35 1.36c5 1.13 9.79 2.51 14.63 3.19 4.62.65 9 .18 12.41-4.06 3.76-4.66 7.94-9 13.85-11.22 1-.35 1.62-1.58 2.36-2.45.53-.63.92-1.38 1.45-2 .87-1.06 1.59-2.55 3.41-1.66 1 .48 1.64 2.62 1.1 4.06a41.24 41.24 0 01-1.94 3.88 6.48 6.48 0 002.29.84c7.69-.49 14.49 2.32 21.44 5.66 1.8-.88 3.84-1.79 5.8-2.85 4.23-2.31 8.52-4.52 12.59-7.1 3.61-2.28 6.55-5.29 7.76-9.65a20.65 20.65 0 011.69-3.48c4.25 2.51 4.94 4.94 2.73 9-3.15 5.73-8.2 9.27-13.82 12.2-2.91 1.52-5.65 3.47-8.68 4.67s-5.92 3.56-9.58 2.16a7.46 7.46 0 01-2-.75c-4.67-3.77-10.07-5.34-16-5.59-5.21-.27-5.34-.33-9.91-3.27zM196.14 115.49c-.37-3.53.16-6.32 2-8.79a2.73 2.73 0 00.71-1.2c.39-4.3 4.46-4.87 7-6.91a3.43 3.43 0 012.66-.38 17.66 17.66 0 014.15 1.83 3.07 3.07 0 011.77 3.5c-.47 2.26-.77 4.57-1.19 6.85-.19 1-.62 2-.76 3.06-.36 2.69-2 4.33-4.55 4-3.83-.45-7.7-1.27-11.79-1.96zm2.81-2.88c2.49.36 4.52.71 6.56.92a3 3 0 003.31-2.12 46.34 46.34 0 001.56-7.49c.22-1.65-.79-2.52-2.54-2.62-3.16-.18-4.06.37-5.49 3.51-.64 1.39-1.43 2.69-2.06 4.08-.46 1.02-.77 2.11-1.29 3.72zM187.62 118.25c.29 2.25-.53 3.38-1.66 4.9-3.09 4.17-7.22 6.75-11.58 9.08s-8.62 4.25-13.25 6.51l-2.9-4zM206.46 76.53c-1.63-2.51-2.44-5.34-5.27-6.87 1.63-2.5 4-4.13 6.37-5.73 2-1.37 4.32-.64 6.43.22 1.19.48 2.33 1.1 3.48 1.7 2.18 1.14 2.95 4.23 1.2 6-3.38 3.27-7.42 5.15-12.21 4.68zm2-2.46c3.18-1.32 6.43-1.47 7.25-5-3.17-3-4.68-3.06-9.14 0z"/><path class="ecls-1" d="M30.39 117.19c-1.48 4.1-3 8-4.25 12a7.18 7.18 0 00.86 6.1 17.69 17.69 0 012.53 10.58c-1.54-2.86-3.18-5.44-4.37-8.22-2.43-5.71-1.46-11.31 1.12-16.73a29.08 29.08 0 012.08-3.69c.53-.84 1.28-1.1 2.03-.04zM191.47 132l1.38 1.72c-3.21 5-7 9.34-13.49 10.12-.75-1.25.29-2.12 1.12-2.85 3.25-2.87 6.58-5.64 9.9-8.43a6.33 6.33 0 011.09-.56zM112.47 138.58c-3.28 4.14-8 5.13-12.67 6.11a7.31 7.31 0 01-2.64-.49v-.76c1.61-.87 3.2-1.79 4.85-2.59a24 24 0 015.18-2.15c1.6-.35 3.37-2 5.28-.12zM105 136.85c1.88-4.55 5.57-5.33 9-2.21-.29.33-.54.91-.88 1-2.66.42-5.26.77-8.12 1.21zM30.49 133.67c2.11 1.87 2.11 1.87 1.48 4.38z"/></g></g></symbol><symbol fill="none" stroke="currentColor" stroke-width="2" stroke-linecap="round" stroke-linejoin="round" class="ffeather ffeather-x" viewBox="0 0 24 24" id="close" xmlns="http://www.w3.org/2000/svg"><path d="M18 6L6 18M6 6l12 12"/></symbol><symbol viewBox="0 0 142 234.52" id="fuego" xmlns="http://www.w3.org/2000/svg"><defs><style>.gcls-1{opacity:.9}.gcls-2{fill:#fbb040}</style></defs><g id="gLayer_2" data-name="Layer 2"><g class="gcls-1" id="gLayer_1-2" data-name="Layer 1"><path class="gcls-2" d="M110.67 164.49l10.5 7.65a15.9 15.9 0 002.45 1.78c4.34 2 7.6 5.48 11.68 7.83a5.84 5.84 0 011.67 1.91c.72 1.1 1.18 2.37 2 3.4 3 3.83 3.38 8.14 2.86 12.69a26.13 26.13 0 01-3.06 10.57c-2.73 4.59-7.11 7.34-12 9.72-4.34 2.13-8.56 1.16-12.85.52a8.26 8.26 0 01-5.22-2.88c-2-2.44-4.91-3.81-7.71-5.29-1.89-1-3.65-2.2-5.48-3.29-5.08-3-10.16-6-15.27-9-1.15-.68-2.4-1.2-4-1.95-1.12 1.32-2.33 2.72-3.5 4.15l-17.81 21.91c-.28.33-.64.81-1 .84-2.64.22-3.84 2.22-5.53 3.73a12.76 12.76 0 01-4.89 2.84 128.79 128.79 0 01-12.92 2.85c-1.36.23-2.88-.37-4.33-.63-5.86-1-11.1-3.3-14.8-7.91-3.26-4.07-5.45-8.42-5.44-14 0-6 2.69-10.69 6-15.16a84.74 84.74 0 0115.46-16c2.23-1.79 3.95-4.17 6.17-6.57a10.57 10.57 0 00-2.44-1.78c-3.58-1.2-6.7-3.17-9.94-5-5.08-2.88-10.32-5.52-15.42-8.38C1.09 156.4-1 150.93.49 145.36A35.9 35.9 0 0111 128c3.1-2.82 7.12-4.54 11-6.43 4.49-2.2 8.67-1.71 12.94-.09 3.69 1.4 7.56 2.59 10.33 5.67.56.62 1.73.75 2.62 1.09a11.33 11.33 0 011.57.6c5.71 3.44 11.4 6.92 17.13 10.33 2 1.22 3.11 1.12 4.77-.54 3.55-3.53 6.89-7.27 10.56-10.67 2.6-2.41 5.33-5 8.51-6.47a24.11 24.11 0 0121.46.13c2.73 1.32 5.37 2.81 8 4.22a1.08 1.08 0 01.3.16c4.31 4.14 8.42 8.51 8.32 14.8-.08 5.49-1.9 10.48-6.43 14.23zM122.16 178c-1.19-.81-2-1.77-2.85-1.84-2.66-.24-4.18-2.11-6.06-3.44-4-2.85-7.94-5.85-12-8.56-3.65-2.41-7.53-4.49-11.26-6.78-2.58-1.59-5-3.38-7.64-4.95-3-1.79-6.07-3.4-9.07-5.17-7.65-4.52-15.26-9.11-22.93-13.61-1.64-1-3.8-1.31-5.13-2.53-4.38-4-10.13-5.22-15.34-7.5a4.22 4.22 0 00-5 .74c-1.6 1.77-3.65 2.68-5.75 3.74-6.38 3.23-10.51 8.56-13.64 14.63a24.38 24.38 0 00-1.88 4.91 6.92 6.92 0 00-.16 3.84c.27.74 1.78 1.07 2.71 1.61.39.23.7.57 1.08.8 2.51 1.52 4.95 3.16 7.56 4.5 8.79 4.52 17.67 8.86 26.45 13.4 6.41 3.32 12.68 6.87 19 10.29 7.34 3.94 14.71 7.83 22 11.8a65.84 65.84 0 015.75 3.55c4.65 3.13 9.23 6.35 13.87 9.5 1.12.77 2.35 1.39 4 2.37-1.65-4.08-2.69-7.68-1.54-11.4.64-2.07 2-3.93 2.61-6a10.32 10.32 0 013.68-5.33c3.1-2.49 5.64-5.66 9.51-7.23a15 15 0 002.03-1.34zm-18.87-18c2.93 2.25 3 2.4 5.64.52a122.21 122.21 0 0010.46-8.31c2.64-2.41 5-5.4 3.89-9.2a76.73 76.73 0 00-3.94-9.68 9.37 9.37 0 00-2-3c-1.77-1.64-3.5-3.6-5.67-4.51a37.76 37.76 0 00-9.82-2.48c-2.71-.34-5.48-.9-8.31.49a29.59 29.59 0 00-10.65 8.38c-1.78 2.28-3.57 4.4-6.37 5.7-1.42.66-2.45 2.09-4 3.51l4.48 3.3L87.26 137l.57.67-8.83 7.85a25.37 25.37 0 002 1.55c2.64 1.64 3.19 1.42 5.6-.59 4.8-4 9.74-7.81 14.65-11.68a19 19 0 012.18-1.25c.11.6.4 1.14.23 1.38-1.08 1.62-2 3.46-3.47 4.68-3.16 2.63-6.63 4.93-9.94 7.39-1.15.86-2.23 1.81-3.54 2.88 1.08.86 2 1.51 2.79 2.23a3 3 0 004.27.16c2-1.63 4.55-3 5.72-5 2.82-5 7.63-7.69 11.9-11.07 1.08-.85 2.08-.91 2.94.18s.52 2-.52 2.84c-1.32 1-2.56 2.18-4 3.1a17.63 17.63 0 00-5.43 4.79c-1.11 1.69-3 2.9-4.64 4.26s-3.2 2.59-5.21 4.2l6.56 3.43 11.41-10.5c0 1.34.16 2-.08 2.53-1.95 3.97-5.88 6.12-9.13 8.97zm-53.95 53.84l.75.08c-.39-3.08-.42-6.26-1.26-9.24-1.09-3.9-3-7.51-7.36-9.12-2.1-.77-4.18-1.86-6.36-2.15-2.64-.36-5.62-.65-8 .19-2.76 1-5 3.21-7.5 4.91-.8.55-1.56 1.14-2.35 1.7a19.69 19.69 0 00-7 8.11 3.16 3.16 0 00-.45 1.54c.66 4.21.93 8.3 3.83 12.14 4 5.32 15.27 9.06 20.65 7.5a30.14 30.14 0 009-4.42c3.86-2.72 7.29-5.77 6.05-11.24zm73.1 2.49c1.26-.44 3.14-1.07 5-1.76.63-.23 1.16-.72 1.8-.93 3.56-1.17 5.42-3.82 6.72-7 .42-1 .76-2.07 1.26-3 2.47-4.8 1.33-9.56-.13-14.32a4.71 4.71 0 00-.54-.83c-2.14-3.47-5.86-4.25-9.52-5.06-4.11-.92-7.32.62-10.56 3.08-4 3.05-6.09 7.23-8.35 11.34a7.37 7.37 0 00-.31 6 28.23 28.23 0 003.33 6.4c2.46 3.9 6.28 5.14 11.3 6.08zm-67.71-30.45c-.74-.47-1.45-1-2.21-1.41-2.14-1.18-2.2-1.11-3.87.78-1.33 1.49-2.83 2.85-4.19 4.32-.81.87-1.64.78-2.89.39l6.48-8-4.78-3c-1.79 1.54-3.45 3-5.11 4.43s-2.91 3.45-6.09 3.77c2.52-3.71 4.86-6.8 8.47-8.88-4-3-4.47-3-7.34.41a38.93 38.93 0 01-2.54 3c-4.07 3.94-8.2 7.82-12.3 11.73a17.45 17.45 0 00-1.15 1.53c2.37-1.43 4.1-2.53 5.9-3.53a5.28 5.28 0 012.48-.88c3.92.14 7.82-.62 11.78.69s8 2.53 10.9 5.45c1.88 1.9 3.07 4.46 4.34 6.84.24.44-.59 1.41-1 2.24l2.56.88 11.64-14.62c-.69-1.09-1.43-1.56-2.22-.55-2.6 3.36-5.11 6.76-7.82 10.36l-2.94-.5c1.44-5.2 7.35-7.2 8.58-12.39l-3.08-1.68c-1.46 2.37-3.4 3.51-6.1 2.76-.75-2.24 1.62-2.65 2.5-4.14zm14 7.42c-.78.85-1.41 1.46-2 2.14-4.11 5.08-8 10.33-12.37 15.2-2.19 2.44-1.76 4.89-2 7.44l.66.13c.25-1 .5-2 .77-3.14l1.05 1.5 17.06-21.38zM53.84.57c4.37-1 6.17-.7 8.88 1.26a2.59 2.59 0 00.59.32c6.36 2.3 10.58 7.39 15.75 11.23a26.43 26.43 0 013.57 3.95c6.92 7.86 9.83 17.11 9.93 27.22 0 2.68-1 5.36-1.22 8.07A17.47 17.47 0 0093.43 63c1 1.74 2.45 3.38 4.86 3a5.12 5.12 0 004.28-4.21c.76-3.52 1.35-7.08 2-10.61.46-2.37.89-4.74 1.41-7.09a24.65 24.65 0 016.5-11.72c2.91-3.07 5.86-6.09 9.94-8.14.78 1.18 1.55 2.34 2.37 3.56-.93 2.29-2 4.56-2.75 6.93-1.54 5.09-.66 10.14.4 15.23 1.51 7.27 2.9 14.57 3.92 21.92.32 2.25-.59 4.73-1.24 7a74.83 74.83 0 01-2.69 7.42c-1.56 3.88-4.56 6.74-7.58 9.58-4.57 4.31-9.92 7.65-15.13 11.16-2.51 1.7-4.79 4-7.58 5-4.87 1.59-8.47 5.69-14.7 6.28 3.15-2.62 5.64-4.89 8.34-6.89 5.74-4.27 11.62-8.36 17.38-12.6 2.15-1.59 4.68-3 6.09-5.14 3.2-4.76 7.29-9 8.68-14.88a37.46 37.46 0 001.11-13.9c-.93-7-1.49-14.13-1.9-21.21a103.45 103.45 0 01.41-10.79c-1.21.37-1.73 1.62-2.31 2.66-4 7.2-4.82 15.14-5.85 23a22.56 22.56 0 01-1.92 6.57C106 68.38 99.94 71 96.15 70.21A14.31 14.31 0 0184.64 55c.17-3 .14-6.1.17-9.15a46.87 46.87 0 00-2.69-17 13.53 13.53 0 00-2.76-4.66 25.45 25.45 0 01-2-3c-.86-1.25-1.76-2.48-2.82-4 .48 3.09.77 5.83 1.33 8.51 1.35 6.44-.28 12.6-1.67 18.79a28 28 0 01-1.68 5.66 17 17 0 01-3.58 5.47c-3.11 2.79-6.38 5.56-10.65 6.73a7.4 7.4 0 01-2.93.08c-6.42-1-9.81-5-11.42-10.71-.38-1.37-.68-2.76-1-4.14-1-4-3.31-7.2-6.32-10.8a24.67 24.67 0 000 3.5c.58 3.81-.47 7.3-1.66 10.89-2.88 8.73-8.23 16-14 23.09-3.35 4.16-5.52 9-4.75 14.29.55 3.79 1 7.82 3.9 10.94a26.13 26.13 0 002.45 2.25c2.74 2.28 5.55 4.49 8.23 6.83a3.21 3.21 0 01.35 4.36c-3-1.94-5.87-4-9-5.77a14.65 14.65 0 01-5.85-5.36 41.94 41.94 0 01-2.39-5.3c-.73-1.94-1.72-3.92-1.8-5.91a23.13 23.13 0 01.9-8.15c1.13-3.49 1.89-7.11 4.43-10.17a93.9 93.9 0 007.92-11.4c3.24-5.39 6.32-11 6.75-17.33.24-3.65-.56-7.38-1.06-11.06a6.36 6.36 0 00-1.41-2.59c-1.64-2.21-3.4-4.34-5-6.57a5.5 5.5 0 01-.51-2l.65-.4c1.6 1.45 3.2 2.91 4.82 4.35A19.38 19.38 0 0032.92 28a34 34 0 0110.89 9.69 29.06 29.06 0 015.44 12.46A14.86 14.86 0 0052.16 56c2.5 3.31 6.11 3.24 9.4.73 5.25-4 6.88-9.64 8.2-15.42a37 37 0 001-13.34 26.82 26.82 0 00-1.22-6.42C67 15.13 63.67 9 58.46 4.07 57.21 2.9 55.71 2 53.84.57z"/><path class="gcls-2" d="M70.52 63c2.34 2.37 2.2 4.38 1.17 6.71a34.54 34.54 0 00-2.78 10.08c-.4 3.31.81 6 2.31 8.69a2.49 2.49 0 004.41-.17c1.61-3 3.38-6 1.23-9.53a1.79 1.79 0 01-.13-1 3.1 3.1 0 01.36-.78 8.65 8.65 0 015 2.64c4.1 4.15 7 9 7.18 14.8.12 4.4-.83 8.66-5.31 11.31-1.51.89-2.66 2.15-4.7 2.32-1.14.09-2.17 1.37-3.68 1.83 1.45-2.48 3-4.92 4.33-7.46a49.16 49.16 0 003-6.57 6 6 0 00-1.12-6.33 12.71 12.71 0 00-1.28 1.51 6 6 0 01-6.2 3.16c-3-.26-5.61-1-7.28-3.55a19.11 19.11 0 01-3.33-10.12c0-1-.1-2-.17-3.22A6.49 6.49 0 0062 78a45.36 45.36 0 01-11.16 6.9C45.4 87.42 42.7 92.1 41 97.28a9.2 9.2 0 00.37 5.47c1.68 4.88 3.87 9.52 8.35 12.81.69.51.6 2 .83 2.84-1.59 1.81-3.28 1.73-4.67.46-4.37-4-7.74-8.64-9-14.39s.8-10.8 3.87-15.53a23.68 23.68 0 0111.38-9.47c2.86-1.15 5.33-3.29 7.81-5.19a51.27 51.27 0 005.68-5.14A48 48 0 0068.68 65c.51-.71 1.14-1.28 1.84-2zM61.76 227a95.38 95.38 0 0012.69-2.6c.82-4 .63-4.38-3.57-7a23.48 23.48 0 013 0c4.33.6 6.82 5 4.85 8.72a3.45 3.45 0 01-2 1.5c-3.73.94-7.48 1.82-11.26 2.51a6 6 0 01-3.55-.55c-4.29-2.24-3.82-4.9-.57-8.07 1.51-1.47 3.83-2.23 5.87-3.13 1.25-.56 1.32-.41 2.7 1.06a25.52 25.52 0 01-4.55 2.75c-2.29.72-3.27 2.13-3.61 4.81zM101.55 219.44c1 .49 2 .86 2.81 1.38 1.46.88 1.5 1.81.16 2.79-1.06.76-2.19 1.42-3.58 2.32a6.43 6.43 0 00-4.72.25c-1.71.66-4-.18-6-.35-1-6.41 4.14-9 10.57-6.5-3 1.49-7.23.37-8.9 4.19 1.69 1.07 3.18 1.81 5 .3.45-.38 1.29-.33 1.93-.51 2.47-.73 2.86-1.31 2.73-3.87zM81 215.73c4.1-.13 4.45-.45 4.43-3.52l2.75 1.92c.33 2.3-1.45 2.69-3 3.26s-3.32.9-4.83-.33a3.67 3.67 0 01-.34-4.81c.8-1.15 1.52-1.2 3.82-.2zM108.31 179.39a5.07 5.07 0 01-1.76-.3c-1.16-.69-2.2-1.56-3.29-2.34-5-3.57-9.8-7.6-15.19-10.57-4.18-2.3-7.87-5.18-11.91-7.58-3.16-1.87-6.69-3.16-10-4.81a64.49 64.49 0 01-14.6-9.58A48 48 0 0045 139.6c-2.18-1.36-4.47-2.57-6.74-3.8a4.87 4.87 0 00-1.89-.72c-4.89-.37-8-3.71-12-6.23a3.94 3.94 0 014.41-.2c.88.5 1.75 1.33 2.67 1.4 4.75.36 8.49 3 12.5 5 2.89 1.4 5.42 3.5 8.06 5.35 1.91 1.33 3.63 2.95 5.63 4.13 4.06 2.41 8.25 4.61 12.39 6.9a1.93 1.93 0 00.61.3c5.22.78 8.27 4.67 12 7.63a45.71 45.71 0 004.36 2.82c3.63 2.25 7.37 4.36 10.87 6.77a90.38 90.38 0 018.11 6.49 25.7 25.7 0 012.77 3.42zM81 186.75a9.79 9.79 0 01-6.79-2.46 7 7 0 00-3.17-1.8c-4.46-.71-7.77-3.5-11.57-5.42-1.69-.86-3.42-1.66-5.14-2.49-.1 0-.23 0-.33-.08-5.85-2.9-11.8-5.64-17.51-8.78-4.83-2.66-9.34-5.86-14.08-8.69-2.7-1.62-5.6-2.92-8.34-4.48-1.33-.76-2.51-1.76-4.38-3.09 1.35-.2 2-.52 2.47-.33 5 2.19 10.2 4.21 15 6.78 3.73 2 6.93 4.86 10.55 7 4.51 2.73 9.15 5.25 13.84 7.68 6.51 3.38 13.3 6.28 19.59 10 3.3 1.93 7.29 3 9.74 6.24zM12.19 140.12c1.74-1.62 3-1.84 4.73-1.06a41.26 41.26 0 0111.16 6.79c2.2 2 5 3.35 7.59 4.93C40.75 153.89 45.86 157 51 160a12.13 12.13 0 002 1.17 13 13 0 017.55 6.46c-1.14-.6-2.28-1.18-3.41-1.79-4.06-2.21-8.18-4.32-12.16-6.67-6.29-3.7-12.46-7.6-18.73-11.35-2.12-1.26-4.34-2.38-6.57-3.44a32.06 32.06 0 01-7.49-4.26zM29.64 141.4c2-1 3.33 0 4.63.69 3.26 1.75 6.17 4.09 9.89 5 2.92 3.3 8.2 3.95 10.1 8.34-6.26-.28-21.99-9.15-24.62-14.03zM72.88 165.13a22.61 22.61 0 013 1.3c4.18 2.59 8.26 5.35 12.5 7.86 2.88 1.71 6 3.12 9 4.61 1.39.69 3 1.14 3.46 3.29-3.34-1.1-6.64-1.58-9.1-3.8-3.71-3.34-8.1-5.63-12.49-8-1.8-1-3.55-2-5.26-3.07a9.73 9.73 0 01-1.56-1.58zM80.94 186.85a45.47 45.47 0 0110.28 5.53c2.78 1.85 5.64 3.6 8.54 5.45-.3 1.55-1.28 1.64-2.44 1-2.25-1.28-4.47-2.62-6.67-4s-4.47-3-6.79-4.31c-1.54-.89-2.7-1.93-2.83-3.75zM84.53 180.57l-7.72-4.91a15.88 15.88 0 017.72 4.91zM89.22 184.31c1.27.13 2.73 0 2.64 2.42zM86.3 181.23l1.77 1.4-.3.36L86 181.6zM103.13 125.68a6.65 6.65 0 01-4.13 3.16l-.45-.53 3.92-3.41zM39.64 205.61c-2.36-.87-4.42-1.74-6.56-2.38-3.34-1-7.3 0-9 2.34-1.28 1.8-1.65 3.94-1.95 6.94a53.18 53.18 0 004.87-4.36c1.34-1.56 2.73-1.82 4.76-1.46a11.3 11.3 0 017.65 4.95 6.36 6.36 0 01.59 6.79c-1.86 4.09-6.72 7.53-13.51 4.67-3.11-1.31-4.57-3.8-6.47-5.9-1.14-1.26-1.35-3.75-1.13-5.6.45-3.74 1-7.67 4.68-10a11.41 11.41 0 014.89-2 15.86 15.86 0 0110.9 2.9c1.09.8 1.46 1.76.28 3.11zm-15 11.07c3.83 3.43 6.41 3.68 9.35 1.24 1.42-1.18 1.7-2.71.4-4a13.8 13.8 0 00-3.39-2.07c-2.28-1.2-4.32-.33-4.08 2 .21 1.79-.64 2.28-2.26 2.83zM133.84 197.9c-2.7 1.15-3.75-.81-5.15-1.74l-1.06 1.08a7.72 7.72 0 00.58.79c.85 1 2.28 1.83 2.45 2.88a6.4 6.4 0 01-1.51 5.84c-1.26 1.24-2.71 2.29-3.92 3.56a4.14 4.14 0 01-4.74.83c-4.41-1.6-8.45-5.58-6.66-11a22.25 22.25 0 013-6.14c1.68-2.26 4.53-2.41 7.17-2.19s5.24.33 6.62 3.19c.48 1.08 1.85 1.74 3.22 2.9zm-6.84 4.47c-1.28.15-2.41.36-3.54.38-.93 0-2.32.55-2.49-.88a2.78 2.78 0 011.23-2 49.63 49.63 0 014.4-2.63c0-.25-.1-.5-.16-.75a40.51 40.51 0 00-4.53-.21c-3.11.19-4.69 2.11-4.34 5.06.3 2.45 1.89 3.88 4.15 4.73 2.42.93 4.63-.48 5.28-3.7zM50.87 190.8l2.21 1.84c-1.75.93-1.75.93-2.21-1.84z"/></g></g></symbol><symbol viewBox="0 0 380 80" id="logo" xmlns="http://www.w3.org/2000/svg"><text font-size="80" font-weight="700"><tspan x="0" y="50">Site</tspan></text></symbol><symbol viewBox="0 0 16 16" id="menu" xmlns="http://www.w3.org/2000/svg"><path fill-rule="evenodd" d="M1 2.75A.75.75 0 011.75 2h12.5a.75.75 0 110 1.5H1.75A.75.75 0 011 2.75zm0 5A.75.75 0 011.75 7h12.5a.75.75 0 110 1.5H1.75A.75.75 0 011 7.75zM1.75 12a.75.75 0 100 1.5h12.5a.75.75 0 100-1.5H1.75z"/></symbol><symbol viewBox="0 0 24 24" id="open" xmlns="http://www.w3.org/2000/svg"><path d="M18.984 12.984h-6v6h-1.969v-6h-6v-1.969h6v-6h1.969v6h6v1.969z"/></symbol><symbol viewBox="0 0 217.78 192.03" id="wheel" xmlns="http://www.w3.org/2000/svg"><defs><style>.kcls-1{fill:#0b242b}</style></defs><g id="kLayer_2" data-name="Layer 2"><g id="kLayer_1-2" data-name="Layer 1"><path class="kcls-1" d="M56.54 24.71a8.71 8.71 0 019.33-8c2.62.27 3.82-.85 5.54-2.34a114.25 114.25 0 0110.3-7.54 4.72 4.72 0 012.75-.65c3.53.18 7 .53 11.21.87a2.8 2.8 0 001.08-.77C99.34 2.91 103 1.75 106.93.61A13 13 0 01119.31 3c2.6 2.17 5 2 7.57 1.64 3.26-.42 6.45-1.42 9.7-2 3.46-.58 6.54 0 8.64 3.32a11.14 11.14 0 009.85 5.51 14 14 0 0110.43 5.11 6.87 6.87 0 011 3c.47 2.38 1.66 4.06 4.08 4.72.66.18 1.29.49 2 .65 7.18 1.7 10.16 7 11.7 13.56a3.48 3.48 0 01-.17 2c-1.26 2.91.16 4.73 2.36 6.33 4.91 3.57 6 8.52 4.38 14-1.19 4.13-1 4.42 3.19 5.81 4.75 1.55 6.94 4.65 7.2 10.36l-.92-.56c-1.13 3.61-.93 3.5 1 7 1.73 3.11 2.59 6.65 0 9.7s-2.24 6-.31 9.33a14.9 14.9 0 011.84 6.27c.33 4.87-4.16 10.85-8.94 12.47-2 .67-3.45 2-3.51 4.15-.15 5.38-3.86 8.27-7.59 11.16a13 13 0 01-2.43 1.52c-4.83 2.23-7.15 5.93-7.45 11.29-.08 1.44-1.66 3.22-3 4.07a21 21 0 01-7.21 2.92 10.62 10.62 0 00-6.22 3.69c-4.85 5.26-10.47 8.33-18 6.57a25.07 25.07 0 00-7.4-.23c-.95.06-1.93 1-2.76 1.62-5.08 4.11-10.12 3.87-14.43.76-2.65-1.91-5.81-3-9.3-1.32-6.35 3-11.91 1.25-16.56-3.52a8.91 8.91 0 00-6.17-2.72 28.36 28.36 0 00-2.9-.17c-5.51.2-9-2.7-11.56-7.25-.2-.36-.48-.67-.93-1.29-1.77.07-3.66.24-5.54.18a6.69 6.69 0 01-3-.75 19.33 19.33 0 01-8-9.19 9.22 9.22 0 00-4.63-4.87c-4.06-2.1-6.32-6-7-10.65a13.77 13.77 0 01-.32-2.39c.27-5.44-2.93-9.1-6.69-12.19-1.33-1.09-2.1-2-2.21-3.58a13.83 13.83 0 01-.29-3.29c1.18-6.31-1.66-11.51-4.19-16.9-.72-1.54-.46-3.71-.18-5.52a13 13 0 011.76-4.18C28 76 29.09 72.84 28 69c-.8-2.87.42-5.92 2.44-8.08 2.21-2.36 2.64-5 2.58-8-.08-3.61 1.83-6.74 4-9.18a14.89 14.89 0 003.78-7.56c.66-3.86 2.79-5.12 6.93-6.6a44.39 44.39 0 005.7-3.18c1-.57 2.05-1.12 3.11-1.69zm-27.31 63A42.8 42.8 0 0030.58 92c1.88 4.41 4.35 8.59 3.57 13.77a6.18 6.18 0 002.45 5.85 14.76 14.76 0 015 7.93c.74 2.93 1.38 5.89 2.22 8.79.76 2.6 1.43 5 4.89 5.84 2.94.73 5.65 2.68 6.13 6.44.19 1.43 1.18 2.77 1.87 4.12.95 1.88 2.59 3.09 4.63 2.8 5-.72 8.49 2 11 5.32s5.23 3.92 8.92 3.7a10.24 10.24 0 018.74 3.55c3.53 4 7.78 6.3 13 3.18 4.5-2.65 8.41-1.12 12.32 1.23a3.94 3.94 0 01.64.52c2.61 2.35 5.32 1.59 8 .18 1-.51 1.81-1.26 2.75-1.83a13.88 13.88 0 0110.71-2c5.48 1.47 9.5-.74 13.09-4.09 3.22-3 6.58-5.33 11-6.22 4.22-.86 7.23-3.3 8.42-7.64 1-3.57 3.55-5.82 6.46-7.8a53 53 0 006.38-4.56c1.34-1.24 3-3.12 3-4.7 0-4.1 2-6.39 5.12-8.34a17.09 17.09 0 002.56-2.11c4.62-4.33 5.12-7.11 2.35-12.81-.42-.87-.84-1.74-1.23-2.62a7.2 7.2 0 01.64-7.46c.55-.8.93-1.71 1.51-2.47a3.78 3.78 0 00.3-4.65c-1.92-2.9-1.84-5.91-1.32-9.15.63-4-.76-6.09-4.51-7.76-2.94-1.32-3.75-3.39-3.39-6.64.28-2.51.47-5.34-.43-7.58a14.13 14.13 0 00-5-6c-3.47-2.4-4.42-5.26-3.76-9.22.51-3.08-1.29-5.62-2.94-8a8.3 8.3 0 00-6.08-3.57 9.93 9.93 0 01-8.38-7c-1.45-4.3-4.12-6-8.92-6-3.53 0-6.52-.7-9-3.77C141 8.4 138 6.31 133.81 7.74c-2.32.79-4.89.82-7.33 1.3A11.9 11.9 0 01116 6.8c-4.39-3.42-10.71-3.31-14.29.66-3.39 3.77-7.27 5.13-12.27 3.47a10.18 10.18 0 00-9.15 1.3 39.36 39.36 0 00-5.84 4.57 10.09 10.09 0 01-6.59 3.11 9.34 9.34 0 00-8.68 6.32c-1.48 3.56-4.76 5.28-8.34 6s-5.67 2.49-6.2 5.89c-.62 4-2.11 7.48-5.59 9.76-2.55 1.72-3.58 3.67-3.05 6.96.63 3.92.52 7.92-2.4 11.36a5.89 5.89 0 00-.79 4.29 20.55 20.55 0 01-2.17 12.85 35.28 35.28 0 00-1.41 4.39z"/><path class="kcls-1" d="M62.38 162.22a15.63 15.63 0 00-3.1.7c-5.22 2.46-9.82.59-11.61-4.77-.75-2.23-1.6-4.43-2.34-6.66a5.16 5.16 0 00-7.45-3c-2 1.2-3.83 2.77-5.92 3.78-4.22 2.05-8.57 3.83-12.85 5.74-2.53 1.13-5 2.31-7.53 3.47l-7 3.28c-.06 2.69 2.42 2.42 3.62 3.51-.59 4-1.53 4.49-4.88 2.58-4.37-2.49-4.28-6.36-.51-9.41 7.34-5.93 16-9.06 24.5-12.55a45.31 45.31 0 008.13-4.84c4.82-3.32 8.51-2.8 11.43 2.19A109.5 109.5 0 0152.14 157c1 2.15 1.85 2.73 4.07 1.9 1-.38 2-1 3-1.31 4.51-1.46 9.13 1.54 8.68 7.72-.05.67-.25 1.33-.44 2.36 3.68.48 7.19 1.13 10.73 1.37 6 .42 11.69 1.55 16.82 4.87 1.15.74 2.49 1.2 3.65 1.93 3 1.93 2.93 5.31-.31 6.8-2.68 1.23-5.4 3-8.62 1.25-.51-.28-1.35 0-2 .06a26.25 26.25 0 01-4.11.46c-2.44-.14-4.87-.53-7.3-.81-1.26 2.86-4.1 1.83-6.05 2a56.13 56.13 0 01-13.59-.46c-5.53-1-11-.52-16.41-.08a29.36 29.36 0 01-12.83-2.21 9.91 9.91 0 00-9 .82 42.23 42.23 0 01-5.23 2.46c-2.91 1.09-4.88.07-5.75-2.81-1.51-5-.3-9.52 2.29-13.83.91-1.5 2-1.11 3.44-.27l-.71 8.77c.9 1.31 2.23 1.3 4 .25a18.91 18.91 0 0111.42-3.1c2.71.21 5.38.93 8.07 1.37s5.14.86 7.72 1.15c6.45.75 12.9 1.53 19.37 2.06a51.43 51.43 0 009.45-.11 17.55 17.55 0 016.91.47c4.18 1.21 8.3-.26 13.27-.62-3.38-3.09-6.84-3.34-10.09-3.9-4.76-.81-9.59-1.22-14.38-1.9a7.06 7.06 0 01-5.45-5.51c-.28-1.83-.25-3.62-.38-5.93zM111.29 178.31c1.41-.68 2.56-1.15 3.64-1.76 2-1.14 4-2.41 6-3.54 3.64-2 7.39-1.67 11.15-.32 3.59 1.29 7.43 2 10.61 4.31 1.1.81 2.33 1.46 3.39 2.32a3.6 3.6 0 011.3 4.39 4.35 4.35 0 01-4 3.12 8.15 8.15 0 01-2.47-.17c-4.55-1.24-8.36.48-12.09 2.78-1.71 1.06-3.67 2.75-5.35 2.57a23.37 23.37 0 01-8.91-2.9c-3.8-2.21-4.56-5.97-3.27-10.8zm2.52 4.54c1.73 1.15 3 2.06 4.41 2.92 2.55 1.61 4.8 1.65 7.54-.23 3.39-2.32 6.5-5.68 11.33-5-6.45-2.93-12.74-3.15-18.83.83-.27-1.2-.43-1.92-.75-3.4zM183.06 172.45l-2.68-1.92c-.57-2-1-3.81-1.61-5.6-2.54-8.16-.81-12.09 6.08-16.89 4.8-3.34 9.53-1.78 14.11.73 1.21.66 2.36 1.42 3.51 2.18 6.14 4.1 7.54 11.7-.39 16.16-3.8 2.13-7.62 4.35-12.39 4-2.11-.11-4.3.83-6.63 1.34zm1.79-5.54c4.87-1.63 9.84-2.28 13.87-5.52 3.88-3.12 3.87-5.91-.28-8.39a6.39 6.39 0 00-2.34-.67 12.17 12.17 0 00-9.6 3c-4.11 3.45-4.6 6.78-1.65 11.58zM199.86 176.9c-.45 3.59-1.94 5.06-4.62 5.36-3.14.36-6.32.56-9.42 1.13-5.56 1-11.07 2.25-16.6 3.42-3.41.73-5.64-.15-8.22-3.41 6.45-1.38 12.8-3 19.25-4.06s12.75-1.61 19.61-2.44zM203.3 63.72a28.48 28.48 0 01-.24-3.55 10.74 10.74 0 00-4.06-9.46c-.75-.61-1.46-1.27-2.17-1.92a10.87 10.87 0 01-3.83-7.52c-.14-2.46-.31-4.91-.53-7.35-.16-1.79-.49-3.47-2.12-4.69a25.51 25.51 0 01-3-3.37c6 1.11 7.23 2.09 8.08 6.57a52.84 52.84 0 01.86 7.73 8.55 8.55 0 002.65 6.27 59.11 59.11 0 014.61 4.76c2.52 3 3.7 6.47 2.38 10.37a10.13 10.13 0 01-1.8 2.44zM18.09 99.21c.6 1.45 1.28 2.3 1.23 3.11-.21 3 1.54 5.57 1.37 8.66a20 20 0 006 15.32c.92 1 1.69 2.06 2.75 3.37-6.86-1.17-10.75-4.68-12-10.87a39.7 39.7 0 01.65-19.59zM202.68 30.43c1.94-.21 3.1.41 3.18 2.11.14 2.83 1.66 3.79 4.28 4.58a9.11 9.11 0 016.72 7.68c.27 1.77.69 3.53.9 5.3a2.31 2.31 0 01-2.11 2.62c-1.43.33-2-.65-2.32-1.78a29.54 29.54 0 01-1.61-5.56 4.3 4.3 0 00-2.72-3.73c-4.54-2.25-6.77-5.88-6.32-11.22zM5.6 91.5c.16.77.27 1.56.5 2.31.92 2.9 2.1 5.73 2.77 8.69 1.15 5.11.62 10.25-.59 15.4-3.08-8.53-3.2-17.41-2.68-26.4zM155.67 172.62l14.22-6.37a12.41 12.41 0 01-.14 1.58c-.33 1.52-.22 3.63-1.18 4.4-1.75 1.41-4.12 2.08-6.28 2.94-.81.32-5.58-1.47-6.62-2.55zM53.18 79c1.77-5.65 3.51-11.3 5.33-16.94.5-1.57 1.23-3.07 1.84-4.6A38.12 38.12 0 0177 38.09c3.58-2.08 7-4.4 10.77-6.19A58.56 58.56 0 01116 26.4c3 .12 6.07.18 9.1.33 5.38.26 10.31 2.36 14.75 5 4 2.37 8.32 4.18 12.13 6.67 4.35 2.83 8.45 6.12 10.37 11.79 2.14 6.32 6 12 8.67 18.2 1.9 4.39 4.26 8.74 4.36 13.71 0 2.2 2.07 4.35.19 6.59.43.31 1.2.57 1.25.93a19.45 19.45 0 01.46 5.7c-1.21 7.65-3 15.18-6.31 22.24-1.18 2.47-2.1 5.08-3.49 7.43-.76 1.28-2.29 3.06-3.38 3-2.05-.13-2.11 1.69-3.3 2.27a24.58 24.58 0 00-4.08 2.76c-2.14 1.64-4.19 3.38-6.32 5a6.85 6.85 0 01-2.08 1.19c-5.91 1.89-11.85 3.73-17.78 5.55a6 6 0 01-2.45.39c-3.86-.57-7.36 1.39-11.11 1.44a39.18 39.18 0 01-6.5-.34 66.89 66.89 0 01-7.63-1.76c-4.47-1.24-9.14-2.1-13.29-4.06-4.38-2.07-8-5.61-13.2-6.14-.67-.07-1.32-.91-1.86-1.51-1.64-1.85-3.22-3.77-4.83-5.65-3-3.52-6.26-6.89-9.07-10.59a25.34 25.34 0 01-5-13.42c-.63-7.3-1.34-14.58-2-21.88a13.07 13.07 0 01.15-2.06zm3.73-1a14.14 14.14 0 002.76.46 16.09 16.09 0 018.51 1 6.12 6.12 0 002 .17c7.7.59 15.41 1.15 23.1 1.81 2.12.18 4.21.65 6.39 1l1.62-4.11c-2.65-2.66-4.95-5-7.31-7.34-3-3-5.83-6.3-9.22-8.8-4.35-3.21-8.53-6.41-11.51-11-.83-1.28-2.36-2.11-4-3.48C62.84 57.1 59.66 67.19 56.91 78zm14.93-33.11c1.28 1 1.85 1.39 2.38 1.84 4 3.49 7.52 7.61 12.33 10.23a25.42 25.42 0 016.3 4.59c3.84 4.08 7.35 8.46 11.24 13l4.78-3.11c-.93-4.49-1.84-8.8-2.7-13.11s-1.89-8.9-2.56-13.4c-.64-4.25-.93-8.56-1.38-12.92C90.82 33.35 81.9 39 71.84 44.89zm85.64 3.32c-5.69 5-11.29 9.94-16.79 14.94a48.15 48.15 0 00-4.69 5.13c-1.56 1.93-2.85 4-5.36 5a2.77 2.77 0 00-1.32 2.19c.13 2.26.61 4.49 1 6.79 13.68-1.36 26.38-6.93 40.53-6.57-1.06-2.93-1.88-5.4-2.84-7.81-1.07-2.69-2.54-5.24-3.33-8-1.33-4.64-4.14-8.25-7.2-11.67zm-25.07-16.13c-7.33-2.75-18-3-26.41-.68-.6 4.56 1 8.87 1.84 13.27 1.57 8.22 3.25 16.43 5 25l6.45-1.7c3.71-12.42 10.02-23.58 13.12-35.89zm24 95.11c5.92-2.08 10.61-14.14 12.55-22.58-5-1.47-10.15-2.54-14.91-4.54a65.66 65.66 0 00-10.51-3.47c-4.64-1.1-9.21-2.51-14.07-3.85-.67 1.62-1.27 3.06-1.92 4.6 2.21 1 4.24.92 5.58 3a57.92 57.92 0 0012.4 13.19A9.56 9.56 0 01147 115c3.15 4.11 6.33 8.2 9.43 12.19zm-79.21 2.14c10.42-9.24 18.52-20.32 27.32-31.09l-3.21-2.31C88 101 74.91 106.42 61.39 112.06c1.86 2.68 3.08 5 4.86 6.89 3.43 3.56 7.17 6.82 10.97 10.38zm33.62-27.09l-1.19-.5c-10.77 9.15-20.12 19.64-29.11 30.42 7.37 5.34 15.43 7.64 24.4 8.43 2.01-12.94 3.97-25.65 5.92-38.35zm-51.15 5.46l40.2-17.42c-.37-2-.71-3.88-1-5.68a33.07 33.07 0 01-5.57 1.22 93.72 93.72 0 01-11.49 0c-6.18-.48-12.34-1.32-18.51-2-1.56-.16-3.14-.12-5.21-.19 1.47 8.24-.41 16.02 1.58 24.07zm67.5-35.1l27-28a9.33 9.33 0 00-6.09-5.85 68.76 68.76 0 01-6.2-3.21c-1.43-.71-2.93-1.25-4.66-2-.79 1.82-1.41 3.18-2 4.58-1.6 3.95-2.49 8.4-4.92 11.74-3 4.11-4.18 8.88-6.51 13.19a40 40 0 00-2.14 6zm6.52 65.67c8-1.73 14.8-4.87 18.44-8.59-7.77-11.15-17.69-20.5-26.12-31l-5.23 2.32c1.39 4 2.6 7.67 3.93 11.26a27.2 27.2 0 001.73 3.11 19.17 19.17 0 011.72 3.64c1.41 5.18 2.66 10.4 4.05 15.59a31.39 31.39 0 001.48 3.67zM170 100.43c2.21-4.53 2.5-16.5.42-21.41l-38.74 6.72c-.76 3.89-.56 4.21 3 4.71a47.33 47.33 0 016.55.88c6 1.71 12.43 2.38 17.92 5.81a6.3 6.3 0 001.56.56zm-40.59 39.16a31.2 31.2 0 01-1.67-3.85c-2.71-10.05-5.33-20.12-8-30.17a32.73 32.73 0 00-1.77-4.12c-2.16 1.41-2.15 3.16-2.37 4.71-.8 5.45-1.38 10.94-2.3 16.37-.4 2.38-1.83 4.61-2.08 7-.43 4-.29 8.09-.39 12.35 6.41.48 12.39-.99 18.58-2.29zM127 85.5c.08-5-.16-9-4.83-10.82-.61-.24-1-1-1.62-1.25-1.49-.52-3.09-1.32-4.57-1.17-6.64.65-10.51 4-12.23 10.41a15.89 15.89 0 00-.77 6.07c.83 5.88 8.24 10.78 14 9.18 3-.85 6.68-1.4 7.86-5.27.8-2.65 1.58-5.3 2.16-7.15z"/><path class="kcls-1" d="M169.69 58.25c1.22.46 1.43.47 1.47.56 3.68 7 7.57 14 10.4 21.46a7.09 7.09 0 01.67 2.8c-.47 7.33 2 14.7-.65 22-1 2.89-.86 6.2-1.57 9.23-1.88 8-7.53 13.31-13.4 18.4-2.59 2.26-5.48 4.18-8.12 6.39-1.08.91-2.52 1.51-2.74 3.38-.1.83-1.36 1.74-2.3 2.23-4 2.09-8 4.22-12.19 6a17.37 17.37 0 01-10.57 1.11c-5.24-1.11-10.39.53-15.6.52q-5.57 0-11.13-.15c-7.61-.2-14.49-3.23-21.2-6.28-3.76-1.71-6.85-4.9-10.19-7.5-1.26-1-2.36-2.15-3.58-3.27 2.31.1 2.28.13 3.69 1.24 2.76 2.18 5.38 4.62 8.4 6.36 2 1.19 4.68 1.36 7.06 2 3.56 1 7.07 2.45 10.68 2.78 7.85.71 15.69 1.69 23.64 0 3.36-.72 7.07.22 10.62.45a15.29 15.29 0 0010-2.94 7.36 7.36 0 012.48-1.46c6.05-1.14 10.19-5.35 14.62-9 3.05-2.54 6.06-5.16 8.84-8 5.46-5.54 7.82-12.63 8.92-20.06a170.8 170.8 0 001.81-20.57c.07-2.9-1.24-5.91-2.28-8.74-1.51-4.13-3.34-8.14-5-12.2-.86-1.99-1.65-3.99-2.78-6.74zM89.06 27a44.55 44.55 0 0121.68-7.09c3.59-.23 7.18-.47 10.78-.56 5.61-.14 10.82 2 16.11 3.36 6.7 1.78 12.25 5.61 17.08 10.76 2.53 2.7 5.47 5 7.29 8.33a13.31 13.31 0 01.54 1.9c-1.47-1.09-2.71-1.57-3.22-2.47-1.3-2.3-3.31-3.63-5.47-4.91a9.74 9.74 0 01-2.8-2.42c-2.29-3.07-5.55-4.9-8.58-7s-6.66-2.36-10.21-2.81c-1.62-.2-3.19-.73-4.8-1a24.49 24.49 0 00-4.35-.44c-5.77.07-11.53.2-17.3.42a18.39 18.39 0 00-3.59.81c-.27.07-.5.3-.76.33-2.17.21-4.44.07-6.48.68s-3.73 1.92-5.57 2.93zM70.4 36.06c-.09.25-.1.62-.28.74-8.62 5.6-12.38 14.67-16.27 23.47-2.15 4.86-3.21 10.22-4.57 15.41a32.82 32.82 0 00-1.57 8.85c.08 4.38.95 8.75 1.44 13.13 0 .19-.32.42-1 1.27-.89-4.51-2.2-8.51-2.31-12.55a80.06 80.06 0 01.29-13.56c1.28-9.09 5.27-16.9 10-24.29 2.67-4.16 6.91-7.34 10.59-10.8.92-.87 2.43-1.13 3.66-1.67zM51.72 108l8.4 14.51-1 .63c-1.58-2.4-3.27-4.74-4.72-7.23s-3.66-4.58-3.75-7.58zM166.74 48.86l1.26 2.36-.77.42-1.23-2.37zM70.4 36.06l2.75-2.38.57.88-3.32 1.5zM115.09 90.86c-3.91.17-6-3.19-5.73-7 .18-2.8 4.25-5.14 8-4.67 2.46.3 4.74 3.31 4.47 5.9-.3 3-3.91 6.07-6.74 5.77zm.59-2.8c2.63-3.31 2.87-4.49 1.3-5.69s-3.4-1.12-4.23.35c-1.07 1.9-.09 3.81 2.93 5.34z"/></g></g></symbol><symbol viewBox="0 0 162.36 169.38" id="ying-yang" xmlns="http://www.w3.org/2000/svg"><defs><style>.lcls-1{fill:#cc6032}</style></defs><g id="lLayer_2" data-name="Layer 2"><g id="lLayer_1-2" data-name="Layer 1"><path class="lcls-1" d="M103.51 4.27C99.26 1 94.65-.58 90.93.19 80.27 1.15 71.27 2 62.69 5.12c-2.41.88-4.54 3.07-6.94 3.32-6.53.7-11.1 5.12-16 8.37-3.41 2.24-6.42 5.33-9.86 7.85-3.94 2.88-8.25 5.9-10.77 10.69-1.9 3.63-5.1 6.55-7.35 10-4.51 7-6.38 15-8.44 22.93C1.37 75.74-.47 83.26.11 91c.62 8.21 2.22 16.19 5.95 23.7 2.87 5.77 5.2 11.85 9.67 16.65 4.89 5.24 6 13 11.88 17.56a36.93 36.93 0 016.13 5.56c3.28 4 6.87 4.38 11.44 2.37 3.81-1.68 6.07-4.93 5-8.9a30.9 30.9 0 00-2.18-5.29c-1.85-3.84-3.32-7.84-2.67-12.12a50.8 50.8 0 018.49-21.7C58 102.92 62.66 97.25 69 93.13a56.34 56.34 0 0010.8-9.68A27.16 27.16 0 0192.53 75a15.61 15.61 0 006.11-3.63 20.7 20.7 0 006.52-14.92c.25-7.65 1.83-15.28 1.77-22.9-.06-7.24-1.26-14.45.17-21.7.65-3.25-1.02-5.62-3.59-7.58zM57.42 64.6a13.12 13.12 0 01-14.91-7.75c-.18-.28-.36-.56-.52-.86-2.31-4.19-1.61-7.41.56-9.64 1.69-4.43 5.16-7.79 9.2-8 14.42-4.96 21.36 23.18 5.67 26.25z"/><path class="lcls-1" d="M94.1 169.33c-3.79 0-8.29.15-12.76-.05-3.63-.16-7.58 0-10.77-1.34-4.28-1.85-8-5-11.85-7.79-1-.73-1.4-2.35-1.85-3.65-2-5.76-1.52-11.69-.93-17.6.48-4.85 1-9.69 1.54-14.53.61-5.31 3.24-9.81 6.5-13.8 6.79-8.31 16-13.89 24.06-20.8 7-6 14.47-11.46 20.23-18.74C112 66.37 112.6 60.45 114 54.9c.43-1.68.27-3.52.78-5.17 1.28-4.18.25-7.92-1.73-11.56a37.3 37.3 0 01-2.48-4.61c-1.59-4.25.05-7.65 4.31-9.06 2.47-.81 5-1.4 7.5-2.14 5-1.48 8.19 1.4 11.16 4.65 3.37 3.68 6.77 7.35 9.91 11.22 2.49 3.09 5.46 6.19 6.69 9.81 1.53 4.53 4.59 7.84 7.24 11.39a21.19 21.19 0 013.86 10.1c.62 4.71 1.82 9.54.5 14.42-.34 1.27.14 2.74.1 4.12q-.1 3.06-.42 6.11c-.14 1.38-.72 2.76-.62 4.11.59 8.23-2 15.69-5 23.17a127.26 127.26 0 01-6.86 14c-4 7.36-9.79 13-15.68 18.67-4.18 4.06-9.27 6.53-14 9.7-1.89 1.28-4.71 1.12-6.84 2.16-5.57 2.72-11.68 2.29-18.32 3.34zm59.56-87.1c.45-5.22-.84-12.41-3.56-19.15-2-5.07-5.21-9.7-8-14.48a25.5 25.5 0 00-3.46-5.07c-4.42-4.59-8.92-9.1-13.61-13.39a4.58 4.58 0 00-4.18-.67c-.88.46-1.4 2.64-1.18 3.9.32 1.83 1.69 3.45 2.17 5.28.79 3 2.11 6.22 1.64 9.1-1.12 7-3.07 13.9-4.84 20.8a9.23 9.23 0 01-2.13 4c-4.51 4.79-8.41 10.25-14.27 13.66a13.71 13.71 0 00-1.9 1.77c-4 3.6-7.83 7.45-12.09 10.74-8.49 6.57-16.13 13.67-20.23 24-4 10.09-5.88 20.36-4.06 31.15.75 4.49 1.55 5.11 5.79 6.15 9.31 2.27 18.63 1.85 28.06.88a53.35 53.35 0 0019.81-5.9 60.76 60.76 0 0030.51-36.71c3.46-11.01 5.23-22.29 5.53-36.06z"/><path class="lcls-1" d="M99.44 112.8a21.6 21.6 0 0112.26 3.9c2.74 1.87 3.16 5.25 3.45 8.2a15.31 15.31 0 01-5.15 13c-1.65 1.55-3.45 2.94-5 4.54a6.52 6.52 0 01-5.79 1.7c-6.83-.87-12.83-2.93-17.71-8.48-2.7-3.07-3-5.64-1.79-8.9a36.49 36.49 0 013.29-7.34c2.11-3.22 5.76-4.4 9.22-5.48a47.39 47.39 0 017.22-1.14z"/></g></g></symbol></svg>