<svg xmlns="http://www.w3.org/2000/svg" xmlns:xlink="http://www.w3.org/1999/xlink"><symbol viewBox="0 0 32 32" id="arrow-back" xmlns="http://www.w3.org/2000/svg"><path d="M12.586 27.414l-10-10a2 2 0 010-2.828l10-10a2 2 0 112.828 2.828L8.828 14H28a2 2 0 110 4H8.828l6.586 6.586c.39.39.586.902.586 1.414s-.195 1.024-.586 1.414a2 2 0 01-2.828 0z"/></symbol><symbol viewBox="0 0 32 32" id="arrow-forward" xmlns="http://www.w3.org/2000/svg"><path d="M19.414 27.414l10-10a2 2 0 000-2.828l-10-10a2 2 0 10-2.828 2.828L23.172 14H4a2 2 0 100 4h19.172l-6.586 6.586c-.39.39-.586.902-.586 1.414s.195 1.024.586 1.414a2 2 0 002.828 0z"/></symbol><symbol viewBox="0 0 24 24" id="close" xmlns="http://www.w3.org/2000/svg"><path d="M18.984 6.422L13.406 12l5.578 5.578-1.406 1.406L12 13.406l-5.578 5.578-1.406-1.406L10.594 12 5.016 6.422l1.406-1.406L12 10.594l5.578-5.578z"/></symbol><symbol viewBox="0 0 380 80" id="logo" xmlns="http://www.w3.org/2000/svg"><text font-size="80" font-weight="700"><tspan x="0" y="50">Site</tspan></text></symbol><symbol viewBox="0 0 89.81 66.9" id="noun_Tent_743996" xmlns="http://www.w3.org/2000/svg"><path d="M89.03 53.52a.77.77 0 01-.6-.28L53.9 11.11 19.38 53.24a.78.78 0 11-1.19-1L53.25 9.48a.77.77 0 01.6-.28 1 1 0 01.72.28l35.06 42.78a.77.77 0 01-.6 1.26z"/><path d="M77.48 53.52H30.34a.77.77 0 01-.77-.76v-14a.77.77 0 111.54 0v13.22h45.6V38.76a.77.77 0 111.54 0v14a.77.77 0 01-.77.76zM53.97 28.16a.77.77 0 01-.77-.77V9.97a.77.77 0 011.54 0v17.41a.77.77 0 01-.76.78z"/><path d="M53.372 32.518l1.182-.988 17.335 20.74-1.182.987z"/><path d="M53.97 53.52a.77.77 0 01-.77-.76V27.38a.77.77 0 111.54 0v25.38a.77.77 0 01-.77.76zM29.38 32.1a.77.77 0 01-.77-.77V.76a.77.77 0 011.54 0v30.56a.77.77 0 01-.76.78z"/><path d="M22.58 8.23a.77.77 0 01-.55-1.32L28.69.25a.77.77 0 111.09 1.09L23.12 8a.77.77 0 01-.54.23zM22.58 14.41a.77.77 0 01-.55-1.32l6.66-6.66a.77.77 0 011.09 1.09l-6.66 6.66a.77.77 0 01-.54.23zM22.58 20.58a.77.77 0 01-.55-1.32l6.66-6.66a.77.77 0 111.09 1.09l-6.66 6.66a.77.77 0 01-.54.23z"/><path d="M36.18 8.23a.77.77 0 01-.55-.23l-6.66-6.66A.77.77 0 1130.06.25l6.66 6.66a.77.77 0 01-.54 1.32zM36.18 14.41a.77.77 0 01-.55-.23l-6.66-6.66a.77.77 0 011.09-1.09l6.66 6.66a.77.77 0 01-.54 1.32zM36.18 20.58a.77.77 0 01-.55-.23l-6.66-6.66a.77.77 0 111.09-1.09l6.66 6.66a.77.77 0 01-.54 1.32zM12.12 39.76a.77.77 0 01-.77-.77V14.48a.77.77 0 011.54 0v24.56a.77.77 0 01-.77.72z"/><path d="M7.15 20.13a.77.77 0 01-.55-1.37l4.86-4.86a.77.77 0 111.09 1.09l-4.86 4.87a.77.77 0 01-.54.27zM7.15 26.18a.77.77 0 01-.55-1.32L11.46 20a.77.77 0 011.09 1.09l-4.86 4.86a.77.77 0 01-.54.23z"/><path d="M17.08 20.13a.77.77 0 01-.55-.23l-4.86-4.86a.77.77 0 011.09-1.09l4.87 4.81a.77.77 0 01-.55 1.37zM17.08 26.18a.77.77 0 01-.55-.23l-4.86-4.86A.77.77 0 0112.76 20l4.86 4.86a.77.77 0 01-.54 1.32zM29.38 39.76H.77a.77.77 0 010-1.54h28.61a.77.77 0 010 1.54zM53.97 31.44v20.73h16.75L53.97 31.44z"/><text y="68.52" font-size="5" font-weight="bold" font-family="'Helvetica Neue', Helvetica, Arial-Unicode, Arial, Sans-serif">Created by Simone Fernandes</text><text y="73.52" font-size="5" font-weight="bold" font-family="'Helvetica Neue', Helvetica, Arial-Unicode, Arial, Sans-serif">from the Noun Project</text></symbol><symbol viewBox="0 0 24 24" id="open" xmlns="http://www.w3.org/2000/svg"><path d="M18.984 12.984h-6v6h-1.969v-6h-6v-1.969h6v-6h1.969v6h6v1.969z"/></symbol></svg>