<?xml version="1.0" encoding="utf-8"?>
<!-- Generator: Adobe Illustrator 23.0.2, SVG Export Plug-In . SVG Version: 6.00 Build 0)  -->
<svg version="1.1" id="Layer_1" xmlns="http://www.w3.org/2000/svg" xmlns:xlink="http://www.w3.org/1999/xlink" x="0px" y="0px"
	 viewBox="0 0 2560 1683" style="enable-background:new 0 0 2560 1683;" xml:space="preserve">
<style type="text/css">
	.st0{fill-rule:evenodd;clip-rule:evenodd;fill:#50545D;}
	.st1{fill-rule:evenodd;clip-rule:evenodd;fill:#FFFFFF;}
</style>
<path class="st0" d="M2347.2,1259.7c-1.1-1.6-2.5-6.9-3-8.9c-0.4-1.5-6.2-10.8-9.1-14c-4.4-1.1-8.9-4-13.2-7.4
	c-0.7-1.7-1.4-3.3-2.4-4.5c-2.2-2.9-4-6.4-5.9-9.5c-2-3.3-3-3.5-4.8-7.5c-4.5-9.7-10.2-17-15.8-25.9c-3.1-5-6.5-8.6-9.3-14.2
	c-0.5-1-6-9.4-7.8-9.3c-4.1,0.3-6.4-6.4-8.4-9c-3.7-4.9-7.7-14.6-12-17c-3-1.6-6-12.4-8-15.9c-1.6-2.8-3.1-5.7-4.7-8.1
	c-2.7-4-4-8.2-5.9-13c-2.1-5.2-6.8-8.1-8.1-13.5c-0.4-1.9-9.1-15.4-10.5-15.1c-1.7-4.1-6-10.4-9.2-13.2c0-3.3-4.2-4.9-5.2-7.8
	c-1-2.8-2.1-4-3.5-6.3c-0.5-0.8-0.1-3.4-1.8-4.6c-1,0.2-3.5-5.7-4.2-6.7c-2.1-3-3.8-6.3-5.5-9.5c-1.7-3.3-1.5-5.7-3.2-8.8
	c-1.9,0.2-4.8-9.7-5.1-11.1c-0.4-1.9-3.8-9.9-5.3-10.7c-1.5-1-0.6-4-1.3-5.6c-1.6-3.3-3.4-6.5-5.6-9.3c-1.5-6.4-6.9-11.2-10.1-16.3
	c-1.6-2.6-14.2-24-13.4-24.4c-1.3-5.4-4.6-10.2-5.6-15.1c-0.5-2.8-4.2-10.3-5.4-10.8c-1.8-0.8,0.1-4.7-1.8-6
	c-1.4-1.9-2.1-4.4-3.6-6.2c-2.3-2.8-5.2-8.6-6.8-12.6c-3.2-8.1-9.1-16-12.8-24.8c-4-9.4-10.2-16.8-14.6-25.9c-2.4-5-4-9.4-7.3-13.7
	c-3.1-4-7-7.7-8.7-12.7c-2.6-7.3-9.8-13.1-13.4-19.9c-3.8-7-9.2-13.4-14.5-19.4c-11.1-12.5-18.5-31.2-27.3-44.9
	c-0.6-0.9-0.2-5.5-2-4.8c-0.3-2.6-1.9-3.1-2.9-5.1c-0.7-3.5-3.9-8.8-6.3-11.2c-4-4-6-11.2-9.5-16c-1.9-2.5-3.9-4.9-6.1-7.1
	c-0.5-2.8-1.5-5.5-2.9-7.8c-6.3-10.1-14-21.1-18.7-32.4c-1.2-3-2.8-16.3-6.4-17.7c-1.8-0.7-4.8-8.9-7.5-8.1
	c-4.3-4.1-9.1-8.7-10.3-15.2c-0.9-4.7-1.8-9.1-6.8-10c-2.1-0.4-11.5-1.3-13-3c-0.9-1-2.1,0.3-3.1,0.3c-1.6-2.2-4-2.4-4.8-5.5
	c-2.1,0.4-2.7-6.9-6.1-4.2c-5.9,2.6-11.7,11.3-18.2,10.8c-4.7-0.4-5.1,4.9-9,7.2c-0.5,1.4-1.3,2.8-2.2,4.1c-0.2-0.6-0.5-1.2-0.7-1.8
	c-3,4.6-7.1,9-10.6,13.3c-0.1,3.7-6.4,8.9-8.4,12.5c-1.8,3.2-6.6,6.5-7.6,10c-0.7,2.5-8.3,7.9-8.1,10.1c0.3,2.7-10.8,10.8-11.7,12.3
	c-1.4,2.3-4.4,5.7-6.2,7.4c-0.8,0.7-1.5,2.6-2.5,2.9c-1,0.2-4.3,5.2-5.5,6.7c-7.8,9.8-14.5,16.4-23.2,25.4c-3.1,3.2-6,6.2-7.4,9.8
	c-1.1,3.3-4,8.7-5.8,10.5c-2.4,2.4-4.3,11.4-7,12.2c-0.4,0.1-2.1,2.2-2,3c0.1,1.1-3.5,4.7-4.4,6.3c-0.1,1.1-2.1,5.9-2.6,7.4
	c0,5.6-7.7,15.2-10.1,18.3c-2.6,3.3-4.8,6.3-7.8,9.4c-10.6,11-17.3,26.2-27,38.2c-7.9,9.7-14.8,17.4-22.2,29.4
	c-2.6,4.3-24.5,29.8-23.8,31.2c0.1,0.3-7.1,9.7-8,11c-1,1.4-10.4,12.1-10,14.1c0.4,2.3-8.3,11-9.7,13c-3.8,5.8-10,10.7-14,16.6
	c-3.3,5-10.1,10.5-12.5,15c-1.8,3.1-4.2,4.6-6.6,7c-4.1,4.1-7.6,10.1-11.5,14.7c-5.1,6-8.7,10.2-12.2,14.4
	c-11.4,13.6-22.5,27.8-33.2,41.8c-2.4,3.2-10.1,14.4-13.2,15.3c-4.4,1.4-7.1,10.2-11.3,11.5c-2.9,0.9-8.6,8.6-9,10.5
	c-0.3,1.3-4,4.3-5.1,5.5c-2,2.3-6.9,7.1-7.5,10.1c-1.2,5.7-10.1,11.3-13.3,15.3c-1.4,1.7,0.9,1-1.6,2.9c-0.4,0.2-3.6,3.6-3.5,4.2
	c0,0.4-3.8,5.2-4.3,5.7c-2.5,2.7-9,10.9-11.6,11.8c-4.2,1.4-7.9,8.4-12.9,11.1c-3.2,1.7-5.9,6.6-9,8.7c-4.2,2.9-8.1,6.9-12,10.1
	c-3.3,2.7-6.6,6.8-10.5,9.4c-1.3,0.9-14.8,15.3-14.6,15.7c0.4,0.8-11.2,12.5-13.4,13.7c-2.6,1.4-15.7,15.5-16.2,19.5
	c-6.2,3.3-8.9,12.1-14.8,15.3c-0.5,0.3-4.8,4.7-4.7,5.8c0.1,1.5-7.8,9-9.2,10.6c-2.5,2.9-3.8,4.4-6.1,7.5c1.5,2.8,2.7,5.1,3.8,7.1
	c93.5,178,280.1,299.5,495.1,299.5c208.7,0,390.6-114.4,486.6-283.8h0.5V1259.7z"/>
<path class="st1" d="M1993.6,716.4c3.8,5.4-7.7,10.9-10.3,12.9c-2.8,2.1-6.3,4.9-9.8,5.7c-4.1,3.4-11.3,4.4-14.7,7.9
	c-2.8,2.9-4.3,3.1-8.1,3.3c-2.3,0.1-7.4,3.8-10,3c-0.7-0.2-6.1-1.5-6.1-1.7c-2,0.3-9.2,6.1-7.4-0.7c0.8-3,5.3-4.9,7.4-7
	c3.6-3.7,7.6-6.5,11.4-9.8c3.5-3,7.9-3.9,11.6-6.6c1.9-1.4,4.6-3.8,7.3-4.7c3.3-1.1,5.4-2.8,8.1-4.2c2.8-1.5,4.8,0.1,6.9-1.1
	C1980.8,712.7,1993.2,715.8,1993.6,716.4C1995.4,719,1992.8,715.3,1993.6,716.4"/>
<path class="st1" d="M1834.4,717c-2.6-2-2.2-4-3.4-5.5c-1.7-2-1.4-2.4-2.6-4.2c-2.4-3.4-0.4-3.1-2.7-6.6c5.8-0.1,10.5,1,15.4,3.2
	c2.4,1.1,6.6,4.1,10.8,6c2.4,1.8,5.4,5.6,6.2,5.5c3.4-0.7,6.8,7.1,9.6,7.9c1.6,2.3,2.7,2,4.3,3.8c2,2.2,3.9,4,5.9,6.3
	c3.4,3.8,8.8,5.9,11.1,10.5c1.3,2.6,1.4,5.5,0,8.2c-1.6,3.2-3,1.1-5.7,1.8c-3.6,0.9-12.9-4.9-15-7c-0.5-0.5-7-4.8-7.8-6
	c0.2,0.3-1.2-0.8-2.9-2.2c-1.7-1.9-2.9-2.9-3.3-3.4c-0.1-0.2-3.4-5-5.5-6.5c-1.6-1.1-1.5-3.4-3.3-4.6
	C1842.3,722.2,1835.9,719.4,1834.4,717"/>
<path class="st0" d="M1858.4,738.5c-0.2-0.3-1.6-0.2-1.7-0.4c-0.3,0.3-1.2,0.2-1.7-0.2c-1-0.7-1.1-1.6-2-2.4
	c0.5-0.2-0.6-1.1-0.9-1.3c0.5-0.2-2.4-3-2.3-3.1c-0.4-0.4-0.2-1.3,0-1.7c0,0,0.2-1.7,0.5-1.4c-0.2-0.2,2-1.9,2.1-2
	c1.1-1,2.3-1.4,3.8-1.7c0.1,0,0.7-0.2,0.8,0c0.4-0.3,0.2,0.1,0.7-0.4c0.2,0.2,0.3,0.4,0.5,0.2c0.2-0.1,0.9,0.1,1,0.2h1
	c0.4,0,1.1,0.5,1.4,0.4c0.6-0.3,1.5,1,2.1,1c0.8-0.1,4.6,3.3,4.1,3.5c0.8,0.4-0.4,2-0.4,2.2c0.3,0.6-0.7,1.3-1,1.7
	c-0.7,0.7-1.5,1-2.2,1.7c-0.1,0.2-2.3,1.7-2.5,1.5c-0.1-0.1-1.7,1.5-1.8,1.6C1859.5,738.2,1858.8,738.1,1858.4,738.5
	C1858.2,738.3,1858.5,738.3,1858.4,738.5"/>
<path class="st0" d="M1985.1,727c-0.4,0.2-0.5,1.7-0.8,1.9c0.3,0.3,0,1.3-0.5,1.8c-1,1.1-2,1.2-3.1,2.1c-0.1-0.6-1.4,0.7-1.6,0.9
	c-0.1-0.5-3.8,2.6-4,2.5c-0.6,0.5-1.5,0.2-1.8,0c0,0-1.8-0.3-1.5-0.6c-0.3,0.2-1.7-2.3-1.8-2.4c-0.9-1.3-1.1-2.6-1.1-4.2
	c0-0.1-0.1-0.8,0.2-0.9c-0.2-0.4,0.1-0.2-0.3-0.7c0.3-0.2,0.5-0.3,0.4-0.6c-0.1-0.2,0.3-1,0.5-1.1l0.2-1.1c0.1-0.5,0.8-1.2,0.7-1.5
	c-0.2-0.7,1.4-1.6,1.5-2.3c0.1-0.9,4.7-5,4.8-4.4c0.6-0.8,2.1,0.5,2.3,0.4c0.8-0.3,1.4,0.8,1.7,1.2c0.6,0.8,0.8,1.7,1.4,2.4
	c0.2,0.1,1.4,2.5,1.2,2.8c-0.1,0.1,1.3,1.9,1.3,2C1985,725.8,1984.7,726.6,1985.1,727C1984.8,727.2,1984.9,726.9,1985.1,727"/>
</svg>
