<?xml version="1.0" encoding="utf-8"?>
<!-- Generator: Adobe Illustrator 23.0.1, SVG Export Plug-In . SVG Version: 6.00 Build 0)  -->
<svg version="1.1" id="Layer_1" xmlns="http://www.w3.org/2000/svg" xmlns:xlink="http://www.w3.org/1999/xlink" x="0px" y="0px"
	 viewBox="0 0 500 265.6" style="enable-background:new 0 0 500 265.6;" xml:space="preserve">
<style type="text/css">
	.st0{display:none;}
	.st1{display:inline;fill:#C62A2A;}
	.st2{fill:#503557;}
	.st3{enable-background:new    ;}
	.st4{clip-path:url(#SVGID_2_);enable-background:new    ;}
	.st5{clip-path:url(#SVGID_4_);enable-background:new    ;}
	.st6{clip-path:url(#SVGID_6_);enable-background:new    ;}
	.st7{clip-path:url(#SVGID_8_);enable-background:new    ;}
	.st8{clip-path:url(#SVGID_10_);enable-background:new    ;}
	.st9{clip-path:url(#SVGID_12_);enable-background:new    ;}
	.st10{clip-path:url(#SVGID_14_);enable-background:new    ;}
	.st11{clip-path:url(#SVGID_16_);enable-background:new    ;}
	.st12{clip-path:url(#SVGID_18_);enable-background:new    ;}
	.st13{clip-path:url(#SVGID_20_);enable-background:new    ;}
	.st14{clip-path:url(#SVGID_22_);enable-background:new    ;}
	.st15{clip-path:url(#SVGID_24_);enable-background:new    ;}
	.st16{clip-path:url(#SVGID_26_);enable-background:new    ;}
	.st17{clip-path:url(#SVGID_28_);enable-background:new    ;}
	.st18{clip-path:url(#SVGID_30_);enable-background:new    ;}
	.st19{clip-path:url(#SVGID_32_);enable-background:new    ;}
	.st20{clip-path:url(#SVGID_34_);enable-background:new    ;}
	.st21{clip-path:url(#SVGID_36_);enable-background:new    ;}
	.st22{clip-path:url(#SVGID_38_);enable-background:new    ;}
	.st23{clip-path:url(#SVGID_40_);enable-background:new    ;}
	.st24{clip-path:url(#SVGID_42_);enable-background:new    ;}
	.st25{fill:#FFFFFF;}
</style>
<g class="st0">
	<rect y="0" class="st1" width="500" height="265.6"/>
</g>
<g>
	<g id="XMLID_23242_">
		<g id="XMLID_39035_">
			<polygon id="XMLID_39036_" class="st2" points="468.1,196.5 456.1,207.4 434.4,200 446.4,189.2 			"/>
		</g>
		<g id="XMLID_39033_">
			<polygon id="XMLID_39034_" class="st2" points="446.4,189.2 434.4,200 440.3,104.9 452.3,94 			"/>
		</g>
		<g id="XMLID_39026_" class="st3">
			<g>
				<path id="XMLID_39029_" class="st2" d="M464.2,234.1l-12,10.9c-2.4,2.1-5.4,3.2-8.6,2.7c-1-0.1-2.1-0.4-3.1-0.9
					c-7.4-3.1-12-12.9-10.5-21.9c0.7-3.7,2.3-6.7,4.5-8.7l12-10.9c-2.2,2-3.8,5-4.5,8.7c-1.6,8.9,3.1,18.7,10.5,21.9
					c1.1,0.4,2.1,0.7,3.1,0.9C458.8,237.3,461.9,236.3,464.2,234.1z"/>
			</g>
			<g>
				<defs>
					<path id="SVGID_1_" d="M464.2,234.1l-12,10.9c-2.4,2.1-5.4,3.2-8.6,2.7c-1-0.1-2.1-0.4-3.1-0.9c-7.4-3.1-12-12.9-10.5-21.9
						c0.7-3.7,2.3-6.7,4.5-8.7l12-10.9c-2.2,2-3.8,5-4.5,8.7c-1.6,8.9,3.1,18.7,10.5,21.9c1.1,0.4,2.1,0.7,3.1,0.9
						C458.8,237.3,461.9,236.3,464.2,234.1z"/>
				</defs>
				<clipPath id="SVGID_2_">
					<use xlink:href="#SVGID_1_"  style="overflow:visible;"/>
				</clipPath>
				<g id="XMLID_39027_" class="st4">
					<path id="XMLID_39028_" class="st2" d="M464.2,234.1l-12,10.9c-2.4,2.1-5.4,3.2-8.6,2.7c-1-0.1-2.1-0.4-3.1-0.9
						c-7.4-3.1-12-12.9-10.5-21.9c0.7-3.7,2.3-6.7,4.5-8.7l12-10.9c-2.2,2-3.8,5-4.5,8.7c-1.6,8.9,3.1,18.7,10.5,21.9
						c1.1,0.4,2.1,0.7,3.1,0.9C458.8,237.3,461.9,236.3,464.2,234.1"/>
				</g>
			</g>
		</g>
		<g id="XMLID_39021_" class="st3">
			<g>
				<path id="XMLID_39024_" class="st2" d="M388.1,137.1l12-10.9c1.4-1.3,2.9-1.8,4.5-1.6c0.1,0,0.2,0,0.4,0.1
					c5.9,1.2,7.7,11,5.4,29.5l-12,10.9c2.3-18.5,0.5-28.3-5.4-29.5c-0.1,0-0.2,0-0.4-0.1C391,135.3,389.5,135.8,388.1,137.1z"/>
			</g>
			<g>
				<defs>
					<path id="SVGID_3_" d="M388.1,137.1l12-10.9c1.4-1.3,2.9-1.8,4.5-1.6c0.1,0,0.2,0,0.4,0.1c5.9,1.2,7.7,11,5.4,29.5l-12,10.9
						c2.3-18.5,0.5-28.3-5.4-29.5c-0.1,0-0.2,0-0.4-0.1C391,135.3,389.5,135.8,388.1,137.1z"/>
				</defs>
				<clipPath id="SVGID_4_">
					<use xlink:href="#SVGID_3_"  style="overflow:visible;"/>
				</clipPath>
				<g id="XMLID_39022_" class="st5">
					<path id="XMLID_39023_" class="st2" d="M410.4,154.2l-12,10.9c2.3-18.5,0.5-28.3-5.4-29.5c-0.1,0-0.2,0-0.4-0.1
						c-1.6-0.2-3.1,0.3-4.5,1.6l12-10.9c1.4-1.3,2.9-1.8,4.5-1.6c0.1,0,0.2,0,0.4,0.1C410.8,125.9,412.6,135.7,410.4,154.2"/>
				</g>
			</g>
		</g>
		<g id="XMLID_39017_" class="st3">
			<g>
				<path id="XMLID_39020_" class="st2" d="M402.4,177.4l-12,10.9c1.1-1,2-2.4,3-4.2c2.3-4.3,3.9-10.7,4.9-19l12-10.9
					c-1,8.3-2.7,14.7-4.9,19C404.5,175,403.5,176.4,402.4,177.4z"/>
			</g>
			<g>
				<defs>
					<path id="SVGID_5_" d="M402.4,177.4l-12,10.9c1.1-1,2-2.4,3-4.2c2.3-4.3,3.9-10.7,4.9-19l12-10.9c-1,8.3-2.7,14.7-4.9,19
						C404.5,175,403.5,176.4,402.4,177.4z"/>
				</defs>
				<clipPath id="SVGID_6_">
					<use xlink:href="#SVGID_5_"  style="overflow:visible;"/>
				</clipPath>
				<g id="XMLID_39018_" class="st6">
					<path id="XMLID_39019_" class="st2" d="M402.4,177.4l-12,10.9c1.1-1,2-2.4,3-4.2c2.3-4.3,3.9-10.7,4.9-19l12-10.9
						c-1,8.3-2.7,14.7-4.9,19C404.5,175,403.5,176.4,402.4,177.4"/>
				</g>
			</g>
		</g>
		<g id="XMLID_39013_" class="st3">
			<g>
				<path id="XMLID_39016_" class="st2" d="M419.4,197.2l-12,10.9c-6.4,5.8-13.8,8.2-22,7.1c-0.7-0.1-1.4-0.2-2.2-0.4
					c-9.1-1.8-16.4-7.1-22-15.8c-7-11-9.4-25.7-7.1-44.3c2.1-16.7,7.4-28.9,16.1-36.7l12-10.9c-8.6,7.8-14,20.1-16.1,36.7
					c-2.3,18.6,0,33.4,7.1,44.3c5.6,8.7,12.9,13.9,22,15.8c0.7,0.1,1.5,0.3,2.2,0.4C405.7,205.4,413,203.1,419.4,197.2z"/>
			</g>
			<g>
				<defs>
					<path id="SVGID_7_" d="M419.4,197.2l-12,10.9c-6.4,5.8-13.8,8.2-22,7.1c-0.7-0.1-1.4-0.2-2.2-0.4c-9.1-1.8-16.4-7.1-22-15.8
						c-7-11-9.4-25.7-7.1-44.3c2.1-16.7,7.4-28.9,16.1-36.7l12-10.9c-8.6,7.8-14,20.1-16.1,36.7c-2.3,18.6,0,33.4,7.1,44.3
						c5.6,8.7,12.9,13.9,22,15.8c0.7,0.1,1.5,0.3,2.2,0.4C405.7,205.4,413,203.1,419.4,197.2z"/>
				</defs>
				<clipPath id="SVGID_8_">
					<use xlink:href="#SVGID_7_"  style="overflow:visible;"/>
				</clipPath>
				<g id="XMLID_39014_" class="st7">
					<path id="XMLID_39015_" class="st2" d="M419.4,197.2l-12,10.9c-6.4,5.8-13.8,8.2-22,7.1c-0.7-0.1-1.4-0.2-2.2-0.4
						c-9.1-1.8-16.4-7.1-22-15.8c-7-11-9.4-25.7-7.1-44.3c2.1-16.7,7.4-28.9,16.1-36.7l12-10.9c-8.6,7.8-14,20.1-16.1,36.7
						c-2.3,18.6,0,33.4,7.1,44.3c5.6,8.7,12.9,13.9,22,15.8c0.7,0.1,1.5,0.3,2.2,0.4C405.7,205.4,413,203.1,419.4,197.2"/>
				</g>
			</g>
		</g>
		<g id="XMLID_39006_">
			<polygon id="XMLID_39007_" class="st2" points="337.1,87.9 325.1,98.8 323.8,98.2 335.8,87.4 			"/>
		</g>
		<g id="XMLID_39002_" class="st3">
			<g>
				<path id="XMLID_39005_" class="st2" d="M342.4,103.3l-12,10.9c1-6.3,0.2-14.4-5.3-15.4l12-10.9C342.6,88.9,343.3,97,342.4,103.3
					z"/>
			</g>
			<g>
				<defs>
					<path id="SVGID_9_" d="M342.4,103.3l-12,10.9c1-6.3,0.2-14.4-5.3-15.4l12-10.9C342.6,88.9,343.3,97,342.4,103.3z"/>
				</defs>
				<clipPath id="SVGID_10_">
					<use xlink:href="#SVGID_9_"  style="overflow:visible;"/>
				</clipPath>
				<g id="XMLID_39003_" class="st8">
					<path id="XMLID_39004_" class="st2" d="M342.4,103.3l-12,10.9c1-6.3,0.2-14.4-5.3-15.4l12-10.9
						C342.6,88.9,343.3,97,342.4,103.3"/>
				</g>
			</g>
		</g>
		<g id="XMLID_38998_" class="st3">
			<g>
				<path id="XMLID_39001_" class="st2" d="M338.7,110.8l-12,10.9c0.1-0.1,0.2-0.2,0.3-0.3c1.8-1.7,2.9-4.2,3.4-7.2l12-10.9
					c-0.5,3.1-1.6,5.5-3.4,7.2C338.9,110.6,338.8,110.7,338.7,110.8z"/>
			</g>
			<g>
				<defs>
					<path id="SVGID_11_" d="M338.7,110.8l-12,10.9c0.1-0.1,0.2-0.2,0.3-0.3c1.8-1.7,2.9-4.2,3.4-7.2l12-10.9
						c-0.5,3.1-1.6,5.5-3.4,7.2C338.9,110.6,338.8,110.7,338.7,110.8z"/>
				</defs>
				<clipPath id="SVGID_12_">
					<use xlink:href="#SVGID_11_"  style="overflow:visible;"/>
				</clipPath>
				<g id="XMLID_38999_" class="st9">
					<path id="XMLID_39000_" class="st2" d="M338.7,110.8l-12,10.9c0.1-0.1,0.2-0.2,0.3-0.3c1.8-1.7,2.9-4.2,3.4-7.2l12-10.9
						c-0.5,3.1-1.6,5.5-3.4,7.2C338.9,110.6,338.8,110.7,338.7,110.8"/>
				</g>
			</g>
		</g>
		<g id="XMLID_38994_" class="st3">
			<g>
				<path id="XMLID_38997_" class="st2" d="M353.7,122.6l-12,10.9c-1.9,1.7-4.2,3.1-6.9,4l12-10.9
					C349.5,125.7,351.8,124.3,353.7,122.6z"/>
			</g>
			<g>
				<defs>
					<path id="SVGID_13_" d="M353.7,122.6l-12,10.9c-1.9,1.7-4.2,3.1-6.9,4l12-10.9C349.5,125.7,351.8,124.3,353.7,122.6z"/>
				</defs>
				<clipPath id="SVGID_14_">
					<use xlink:href="#SVGID_13_"  style="overflow:visible;"/>
				</clipPath>
				<g id="XMLID_38995_" class="st10">
					<path id="XMLID_38996_" class="st2" d="M353.7,122.6l-12,10.9c-1.9,1.7-4.2,3.1-6.9,4l12-10.9
						C349.5,125.7,351.8,124.3,353.7,122.6"/>
				</g>
			</g>
		</g>
		<g id="XMLID_38992_">
			<polygon id="XMLID_38993_" class="st2" points="249.5,45.9 237.5,56.8 237.2,56.7 249.2,45.9 			"/>
		</g>
		<g id="XMLID_38988_" class="st3">
			<g>
				<path id="XMLID_38991_" class="st2" d="M330.4,128.8l-12,10.9c0-0.5-0.1-1.2-0.2-2.1c-0.1-0.9-0.2-1.9-0.4-3.1l12-10.9
					c0.1,1.2,0.3,2.3,0.4,3.1C330.3,127.6,330.4,128.3,330.4,128.8z"/>
			</g>
			<g>
				<defs>
					<path id="SVGID_15_" d="M330.4,128.8l-12,10.9c0-0.5-0.1-1.2-0.2-2.1c-0.1-0.9-0.2-1.9-0.4-3.1l12-10.9
						c0.1,1.2,0.3,2.3,0.4,3.1C330.3,127.6,330.4,128.3,330.4,128.8z"/>
				</defs>
				<clipPath id="SVGID_16_">
					<use xlink:href="#SVGID_15_"  style="overflow:visible;"/>
				</clipPath>
				<g id="XMLID_38989_" class="st11">
					<path id="XMLID_38990_" class="st2" d="M330.4,128.8l-12,10.9c0-0.5-0.1-1.2-0.2-2.1c-0.1-0.9-0.2-1.9-0.4-3.1l12-10.9
						c0.1,1.2,0.3,2.3,0.4,3.1C330.3,127.6,330.4,128.3,330.4,128.8"/>
				</g>
			</g>
		</g>
		<g id="XMLID_38986_">
			<polygon id="XMLID_38987_" class="st2" points="288.3,109.8 276.3,120.6 286.3,68.7 298.3,57.8 			"/>
		</g>
		<g id="XMLID_38982_" class="st3">
			<g>
				<path id="XMLID_38985_" class="st2" d="M250.5,78.7l-12,10.9c5.3-4.8,4.7-18.8,4.6-20.6c-0.1-2.4-1.3-7.2-2.1-8.7
					s-2.8-3.3-3.6-3.5l12-10.9c0.8,0.1,2.8,1.9,3.6,3.5c0.8,1.5,2,6.3,2.1,8.7C255.2,59.9,255.8,73.9,250.5,78.7z"/>
			</g>
			<g>
				<defs>
					<path id="SVGID_17_" d="M250.5,78.7l-12,10.9c5.3-4.8,4.7-18.8,4.6-20.6c-0.1-2.4-1.3-7.2-2.1-8.7s-2.8-3.3-3.6-3.5l12-10.9
						c0.8,0.1,2.8,1.9,3.6,3.5c0.8,1.5,2,6.3,2.1,8.7C255.2,59.9,255.8,73.9,250.5,78.7z"/>
				</defs>
				<clipPath id="SVGID_18_">
					<use xlink:href="#SVGID_17_"  style="overflow:visible;"/>
				</clipPath>
				<g id="XMLID_38983_" class="st12">
					<path id="XMLID_38984_" class="st2" d="M250.5,78.7l-12,10.9c5.3-4.8,4.7-18.8,4.6-20.6c-0.1-2.4-1.3-7.2-2.1-8.7
						s-2.8-3.3-3.6-3.5l12-10.9c0.8,0.1,2.8,1.9,3.6,3.5c0.8,1.5,2,6.3,2.1,8.7C255.2,59.9,255.8,73.9,250.5,78.7"/>
				</g>
			</g>
		</g>
		<g id="XMLID_38978_" class="st3">
			<g>
				<path id="XMLID_38981_" class="st2" d="M286.9,113.6l-12,10.9c0.6-0.7,1.1-1.9,1.5-3.9l12-10.9C288,111.7,287.5,113,286.9,113.6
					z"/>
			</g>
			<g>
				<defs>
					<path id="SVGID_19_" d="M286.9,113.6l-12,10.9c0.6-0.7,1.1-1.9,1.5-3.9l12-10.9C288,111.7,287.5,113,286.9,113.6z"/>
				</defs>
				<clipPath id="SVGID_20_">
					<use xlink:href="#SVGID_19_"  style="overflow:visible;"/>
				</clipPath>
				<g id="XMLID_38979_" class="st13">
					<path id="XMLID_38980_" class="st2" d="M286.9,113.6l-12,10.9c0.6-0.7,1.1-1.9,1.5-3.9l12-10.9
						C288,111.7,287.5,113,286.9,113.6"/>
				</g>
			</g>
		</g>
		<g id="XMLID_38974_" class="st3">
			<g>
				<path id="XMLID_38977_" class="st2" d="M286.8,113.7l-12,10.9l0.1-0.1l12-10.9C286.8,113.7,286.8,113.7,286.8,113.7z"/>
			</g>
			<g>
				<defs>
					<path id="SVGID_21_" d="M286.8,113.7l-12,10.9l0.1-0.1l12-10.9C286.8,113.7,286.8,113.7,286.8,113.7z"/>
				</defs>
				<clipPath id="SVGID_22_">
					<use xlink:href="#SVGID_21_"  style="overflow:visible;"/>
				</clipPath>
				<g id="XMLID_38975_" class="st14">
					<path id="XMLID_38976_" class="st2" d="M286.8,113.7l-12,10.9l0.1-0.1l12-10.9C286.8,113.7,286.8,113.7,286.8,113.7"/>
				</g>
			</g>
		</g>
		<g id="XMLID_38955_">
			<polygon id="XMLID_38973_" class="st2" points="335.5,161.5 323.5,172.3 318.4,139.7 330.4,128.8 			"/>
		</g>
		<g id="XMLID_38953_">
			<polygon id="XMLID_38954_" class="st2" points="356,164.1 344,174.9 323.5,172.3 335.5,161.5 			"/>
		</g>
		<g id="XMLID_38951_">
			<polygon id="XMLID_38952_" class="st2" points="266.1,108.6 254.1,119.5 265.3,60.4 277.3,49.5 			"/>
		</g>
		<g id="XMLID_38947_" class="st3">
			<g>
				<path id="XMLID_38950_" class="st2" d="M258.8,88.4l-12,10.9c-2.9,2.6-7.5,5.1-12.4,5l12-10.9C251.3,93.5,255.9,91,258.8,88.4z"
					/>
			</g>
			<g>
				<defs>
					<path id="SVGID_23_" d="M258.8,88.4l-12,10.9c-2.9,2.6-7.5,5.1-12.4,5l12-10.9C251.3,93.5,255.9,91,258.8,88.4z"/>
				</defs>
				<clipPath id="SVGID_24_">
					<use xlink:href="#SVGID_23_"  style="overflow:visible;"/>
				</clipPath>
				<g id="XMLID_38948_" class="st15">
					<path id="XMLID_38949_" class="st2" d="M258.8,88.4l-12,10.9c-2.9,2.6-7.5,5.1-12.4,5l12-10.9C251.3,93.5,255.9,91,258.8,88.4"
						/>
				</g>
			</g>
		</g>
		<g id="XMLID_38945_">
			<polygon id="XMLID_38946_" class="st2" points="324.3,159.8 312.3,170.7 293.3,168.5 305.4,157.6 			"/>
		</g>
		<g id="XMLID_38939_">
			<polygon id="XMLID_38940_" class="st2" points="305.4,157.6 293.3,168.5 307.9,75.9 319.9,65 			"/>
		</g>
		<g id="XMLID_38931_" class="st3">
			<g>
				<path id="XMLID_38935_" class="st2" d="M296.7,127.1l-12,10.9c-1.2,1.1-2.7,2-4.5,2.7c-2.6,1-5.5,1.3-8.6,0.9
					c-0.9-0.1-1.8-0.3-2.7-0.5c-4.8-1.2-8.5-3.3-11.3-6.3c-3.5-3.9-4.7-9-3.4-15.2l12-10.9c-1.2,6.3-0.1,11.4,3.4,15.2
					c2.8,3,6.5,5.1,11.3,6.3c0.9,0.2,1.8,0.4,2.7,0.5c3.1,0.4,6,0.1,8.6-0.9C294,129.1,295.5,128.2,296.7,127.1z"/>
			</g>
			<g>
				<defs>
					<path id="SVGID_25_" d="M296.7,127.1l-12,10.9c-1.2,1.1-2.7,2-4.5,2.7c-2.6,1-5.5,1.3-8.6,0.9c-0.9-0.1-1.8-0.3-2.7-0.5
						c-4.8-1.2-8.5-3.3-11.3-6.3c-3.5-3.9-4.7-9-3.4-15.2l12-10.9c-1.2,6.3-0.1,11.4,3.4,15.2c2.8,3,6.5,5.1,11.3,6.3
						c0.9,0.2,1.8,0.4,2.7,0.5c3.1,0.4,6,0.1,8.6-0.9C294,129.1,295.5,128.2,296.7,127.1z"/>
				</defs>
				<clipPath id="SVGID_26_">
					<use xlink:href="#SVGID_25_"  style="overflow:visible;"/>
				</clipPath>
				<g id="XMLID_38933_" class="st16">
					<path id="XMLID_38934_" class="st2" d="M296.7,127.1l-12,10.9c-1.2,1.1-2.7,2-4.5,2.7c-2.6,1-5.5,1.3-8.6,0.9
						c-0.9-0.1-1.8-0.3-2.7-0.5c-4.8-1.2-8.5-3.3-11.3-6.3c-3.5-3.9-4.7-9-3.4-15.2l12-10.9c-1.2,6.3-0.1,11.4,3.4,15.2
						c2.8,3,6.5,5.1,11.3,6.3c0.9,0.2,1.8,0.4,2.7,0.5c3.1,0.4,6,0.1,8.6-0.9C294,129.1,295.5,128.2,296.7,127.1"/>
				</g>
			</g>
		</g>
		<g id="XMLID_38927_">
			<polygon id="XMLID_38928_" class="st2" points="246.4,93.3 234.4,104.2 224.1,103.8 236.1,93 			"/>
		</g>
		<g id="XMLID_38921_">
			<polygon id="XMLID_38922_" class="st2" points="236.1,93 224.1,103.8 226,42.1 238,31.2 			"/>
		</g>
		<g id="XMLID_38916_" class="st3">
			<g>
				<path id="XMLID_38919_" class="st2" d="M212,50.7l-12,10.9c-1-3.1-4.8-22.7-4.9-23.7L207,27C207.2,28,210.9,47.6,212,50.7z"/>
			</g>
			<g>
				<defs>
					<path id="SVGID_27_" d="M212,50.7l-12,10.9c-1-3.1-4.8-22.7-4.9-23.7L207,27C207.2,28,210.9,47.6,212,50.7z"/>
				</defs>
				<clipPath id="SVGID_28_">
					<use xlink:href="#SVGID_27_"  style="overflow:visible;"/>
				</clipPath>
				<g id="XMLID_38917_" class="st17">
					<path id="XMLID_38918_" class="st2" d="M212,50.7l-12,10.9c-1-3.1-4.8-22.7-4.9-23.7L207,27C207.2,28,210.9,47.6,212,50.7"/>
				</g>
			</g>
		</g>
		<g id="XMLID_38914_">
			<polygon id="XMLID_38915_" class="st2" points="232.9,90.8 220.9,101.7 208.3,103.5 220.3,92.6 			"/>
		</g>
		<g id="XMLID_38910_" class="st3">
			<g>
				<path id="XMLID_38913_" class="st2" d="M220.3,92.6l-12,10.9c-0.8-1.7-16-33.1-16.2-34.3l12-10.9
					C204.3,59.5,219.5,91,220.3,92.6z"/>
			</g>
			<g>
				<defs>
					<path id="SVGID_29_" d="M220.3,92.6l-12,10.9c-0.8-1.7-16-33.1-16.2-34.3l12-10.9C204.3,59.5,219.5,91,220.3,92.6z"/>
				</defs>
				<clipPath id="SVGID_30_">
					<use xlink:href="#SVGID_29_"  style="overflow:visible;"/>
				</clipPath>
				<g id="XMLID_38911_" class="st18">
					<path id="XMLID_38912_" class="st2" d="M220.3,92.6l-12,10.9c-0.8-1.7-16-33.1-16.2-34.3l12-10.9
						C204.3,59.5,219.5,91,220.3,92.6"/>
				</g>
			</g>
		</g>
		<g id="XMLID_38908_">
			<polygon id="XMLID_38909_" class="st2" points="196.4,96.4 184.4,107.2 171,38 183,27.1 			"/>
		</g>
		<g id="XMLID_38904_">
			<polygon id="XMLID_38905_" class="st2" points="211.3,94.1 199.3,105 184.4,107.2 196.4,96.4 			"/>
		</g>
		<g id="XMLID_38900_" class="st3">
			<g>
				<path id="XMLID_38903_" class="st2" d="M127.1,48.3l-12,10.9c-0.3,0-0.5-0.1-0.5-0.1l12-10.9C126.6,48.2,126.8,48.2,127.1,48.3z
					"/>
			</g>
			<g>
				<defs>
					<path id="SVGID_31_" d="M127.1,48.3l-12,10.9c-0.3,0-0.5-0.1-0.5-0.1l12-10.9C126.6,48.2,126.8,48.2,127.1,48.3z"/>
				</defs>
				<clipPath id="SVGID_32_">
					<use xlink:href="#SVGID_31_"  style="overflow:visible;"/>
				</clipPath>
				<g id="XMLID_38901_" class="st19">
					<path id="XMLID_38902_" class="st2" d="M127.1,48.3l-12,10.9c-0.3,0-0.5-0.1-0.5-0.1l12-10.9C126.6,48.2,126.8,48.2,127.1,48.3
						"/>
				</g>
			</g>
		</g>
		<g id="XMLID_38896_" class="st3">
			<g>
				<path id="XMLID_38899_" class="st2" d="M140.7,76.9l-12,10.9c4.3-6.9,0.3-16-0.4-18c-2.8-8.7-11.1-10.3-13.2-10.6l12-10.9
					c2.1,0.3,10.4,1.9,13.2,10.6C141,60.9,145,70,140.7,76.9z"/>
			</g>
			<g>
				<defs>
					<path id="SVGID_33_" d="M140.7,76.9l-12,10.9c4.3-6.9,0.3-16-0.4-18c-2.8-8.7-11.1-10.3-13.2-10.6l12-10.9
						c2.1,0.3,10.4,1.9,13.2,10.6C141,60.9,145,70,140.7,76.9z"/>
				</defs>
				<clipPath id="SVGID_34_">
					<use xlink:href="#SVGID_33_"  style="overflow:visible;"/>
				</clipPath>
				<g id="XMLID_38897_" class="st20">
					<path id="XMLID_38898_" class="st2" d="M140.7,76.9l-12,10.9c4.3-6.9,0.3-16-0.4-18c-2.8-8.7-11.1-10.3-13.2-10.6l12-10.9
						c2.1,0.3,10.4,1.9,13.2,10.6C141,60.9,145,70,140.7,76.9"/>
				</g>
			</g>
		</g>
		<g id="XMLID_38892_" class="st3">
			<g>
				<path id="XMLID_38895_" class="st2" d="M138.8,79.1l-12,10.9c0.7-0.6,1.3-1.3,1.8-2.2l12-10.9C140.1,77.8,139.5,78.5,138.8,79.1
					z"/>
			</g>
			<g>
				<defs>
					<path id="SVGID_35_" d="M138.8,79.1l-12,10.9c0.7-0.6,1.3-1.3,1.8-2.2l12-10.9C140.1,77.8,139.5,78.5,138.8,79.1z"/>
				</defs>
				<clipPath id="SVGID_36_">
					<use xlink:href="#SVGID_35_"  style="overflow:visible;"/>
				</clipPath>
				<g id="XMLID_38893_" class="st21">
					<path id="XMLID_38894_" class="st2" d="M138.8,79.1l-12,10.9c0.7-0.6,1.3-1.3,1.8-2.2l12-10.9
						C140.1,77.8,139.5,78.5,138.8,79.1"/>
				</g>
			</g>
		</g>
		<g id="XMLID_38890_">
			<polygon id="XMLID_38891_" class="st2" points="190.5,111.2 178.5,122.1 160.8,124.2 172.8,113.3 			"/>
		</g>
		<g id="XMLID_38888_">
			<polygon id="XMLID_38889_" class="st2" points="172.8,113.3 160.8,124.2 148.2,48.5 160.2,37.6 			"/>
		</g>
		<g id="XMLID_38884_">
			<polygon id="XMLID_38885_" class="st2" points="132.2,155.7 120.2,166.5 91.2,40.9 103.2,30 			"/>
		</g>
		<g id="XMLID_38882_">
			<polygon id="XMLID_38883_" class="st2" points="100.3,48.8 88.3,59.7 66.4,68.9 78.4,58 			"/>
		</g>
		<g id="XMLID_38878_" class="st3">
			<g>
				<path id="XMLID_38881_" class="st2" d="M54,62.3l12-10.9c0.6-0.5,1.3-0.8,2-0.9c0.8,0,1.6,0,2.3,0.1c2.6,0.3,4.8,1.9,8.1,7.4
					l-12,10.9c-3.4-5.5-5.5-7-8.1-7.4c-0.7-0.1-1.5-0.1-2.3-0.1C55.2,61.5,54.6,61.8,54,62.3z"/>
			</g>
			<g>
				<defs>
					<path id="SVGID_37_" d="M54,62.3l12-10.9c0.6-0.5,1.3-0.8,2-0.9c0.8,0,1.6,0,2.3,0.1c2.6,0.3,4.8,1.9,8.1,7.4l-12,10.9
						c-3.4-5.5-5.5-7-8.1-7.4c-0.7-0.1-1.5-0.1-2.3-0.1C55.2,61.5,54.6,61.8,54,62.3z"/>
				</defs>
				<clipPath id="SVGID_38_">
					<use xlink:href="#SVGID_37_"  style="overflow:visible;"/>
				</clipPath>
				<g id="XMLID_38879_" class="st22">
					<path id="XMLID_38880_" class="st2" d="M78.4,58l-12,10.9c-3.4-5.5-5.5-7-8.1-7.4c-0.7-0.1-1.5-0.1-2.3-0.1
						c-0.7,0-1.4,0.3-2,0.9l12-10.9c0.6-0.5,1.3-0.8,2-0.9c0.8,0,1.6,0,2.3,0.1C72.9,51,75.1,52.5,78.4,58"/>
				</g>
			</g>
		</g>
		<g id="XMLID_38876_">
			<polygon id="XMLID_38877_" class="st2" points="177.4,146 165.4,156.9 148,160.6 160,149.7 			"/>
		</g>
		<g id="XMLID_38874_">
			<polygon id="XMLID_38875_" class="st2" points="160,149.7 148,160.6 126.1,109.1 138.1,98.3 			"/>
		</g>
		<g id="XMLID_38868_">
			<polygon id="XMLID_38869_" class="st2" points="150.4,151.7 138.4,162.6 120.2,166.5 132.2,155.7 			"/>
		</g>
		<g id="XMLID_38866_">
			<polygon id="XMLID_38867_" class="st2" points="89.4,127.3 77.4,138.2 63.6,138.9 75.6,128 			"/>
		</g>
		<g id="XMLID_38864_">
			<polygon id="XMLID_38865_" class="st2" points="75.6,128 63.6,138.9 61.1,118.1 73.1,107.2 			"/>
		</g>
		<g id="XMLID_38860_" class="st3">
			<g>
				<path id="XMLID_38863_" class="st2" d="M87.2,162.3l-12,10.9c7.3-6.6,2.3-33.3,2.2-35l12-10.9C89.6,128.9,94.5,155.7,87.2,162.3
					z"/>
			</g>
			<g>
				<defs>
					<path id="SVGID_39_" d="M87.2,162.3l-12,10.9c7.3-6.6,2.3-33.3,2.2-35l12-10.9C89.6,128.9,94.5,155.7,87.2,162.3z"/>
				</defs>
				<clipPath id="SVGID_40_">
					<use xlink:href="#SVGID_39_"  style="overflow:visible;"/>
				</clipPath>
				<g id="XMLID_38861_" class="st23">
					<path id="XMLID_38862_" class="st2" d="M87.2,162.3l-12,10.9c7.3-6.6,2.3-33.3,2.2-35l12-10.9
						C89.6,128.9,94.5,155.7,87.2,162.3"/>
				</g>
			</g>
		</g>
		<g id="XMLID_38856_" class="st3">
			<g>
				<path id="XMLID_38859_" class="st2" d="M104.2,183.1l-12,10.9c-4.5,4.1-10.4,6.9-17.3,7.1c-1.3,0-2.7,0-4.2-0.2
					c-11.4-1.5-27.5-10.5-36.3-36.1c-5.6-16.4-11.2-45-12.6-62.5c-1.3-17.5,0.7-43.7,6-52.4c2.4-3.9,4.9-7.1,7.8-9.7l12-10.9
					c-2.8,2.5-5.4,5.8-7.8,9.7c-5.3,8.7-7.4,34.9-6,52.4c1.3,17.6,7,46.2,12.6,62.5c8.8,25.7,24.9,34.6,36.3,36.1
					c1.5,0.2,2.9,0.3,4.2,0.2C93.9,190,99.7,187.2,104.2,183.1z"/>
			</g>
			<g>
				<defs>
					<path id="SVGID_41_" d="M104.2,183.1l-12,10.9c-4.5,4.1-10.4,6.9-17.3,7.1c-1.3,0-2.7,0-4.2-0.2c-11.4-1.5-27.5-10.5-36.3-36.1
						c-5.6-16.4-11.2-45-12.6-62.5c-1.3-17.5,0.7-43.7,6-52.4c2.4-3.9,4.9-7.1,7.8-9.7l12-10.9c-2.8,2.5-5.4,5.8-7.8,9.7
						c-5.3,8.7-7.4,34.9-6,52.4c1.3,17.6,7,46.2,12.6,62.5c8.8,25.7,24.9,34.6,36.3,36.1c1.5,0.2,2.9,0.3,4.2,0.2
						C93.9,190,99.7,187.2,104.2,183.1z"/>
				</defs>
				<clipPath id="SVGID_42_">
					<use xlink:href="#SVGID_41_"  style="overflow:visible;"/>
				</clipPath>
				<g id="XMLID_38857_" class="st24">
					<path id="XMLID_38858_" class="st2" d="M104.2,183.1l-12,10.9c-4.5,4.1-10.4,6.9-17.3,7.1c-1.3,0-2.7,0-4.2-0.2
						c-11.4-1.5-27.5-10.5-36.3-36.1c-5.6-16.4-11.2-45-12.6-62.5c-1.3-17.5,0.7-43.7,6-52.4c2.4-3.9,4.9-7.1,7.8-9.7l12-10.9
						c-2.8,2.5-5.4,5.8-7.8,9.7c-5.3,8.7-7.4,34.9-6,52.4c1.3,17.6,7,46.2,12.6,62.5c8.8,25.7,24.9,34.6,36.3,36.1
						c1.5,0.2,2.9,0.3,4.2,0.2C93.9,190,99.7,187.2,104.2,183.1"/>
				</g>
			</g>
		</g>
	</g>
	<g id="XMLID_23246_">
		<g id="XMLID_23247_">
			<g id="XMLID_39037_">
				<polygon id="XMLID_39038_" class="st25" points="452.3,94 478.6,108.7 468.1,196.5 446.4,189.2 				"/>
			</g>
			<g id="XMLID_39030_">
				<path id="XMLID_39031_" class="st25" d="M455.1,202.7c1,0.1,2.1,0.4,3.1,0.9c7.4,3.1,12,12.9,10.5,21.9
					c-1.4,7.7-6.9,12.2-13.1,11.4c-1-0.1-2.1-0.4-3.1-0.9c-7.4-3.1-12-12.9-10.5-21.9C443.4,206.5,448.9,201.9,455.1,202.7z"/>
			</g>
			<g id="XMLID_39009_">
				<path id="XMLID_39010_" class="st25" d="M431.6,119c5.1,10.8,6.7,24.1,4.7,40.2c-1.9,15.3-6.7,27.2-14.3,35.5
					c-7,7.7-15.2,10.9-24.6,9.7c-0.7-0.1-1.4-0.2-2.2-0.4c-9.1-1.8-16.4-7.1-22-15.8c-7-11-9.4-25.7-7.1-44.3
					c2.2-17.8,8.2-30.6,17.9-38.3c6.6-5.2,13.8-7.3,21.7-6.3c0.7,0.1,1.4,0.2,2.2,0.4C418.6,101.8,426.5,108.3,431.6,119z
					 M410.4,154.2c2.3-18.5,0.5-28.3-5.4-29.5c-0.1,0-0.2,0-0.4-0.1c-2.8-0.4-5.3,1.6-7.6,5.9c-2.3,4.2-4,10.6-5,19.3
					c-1.1,8.6-1.1,15.4-0.1,20.5s3,7.9,5.8,8.5c0.1,0,0.3,0,0.4,0.1c2.8,0.4,5.2-1.5,7.3-5.7C407.7,168.9,409.3,162.5,410.4,154.2"
					/>
			</g>
		</g>
		<g id="XMLID_38941_">
			<path id="XMLID_38942_" class="st25" d="M360.9,107.4c-1.6,10.1-6.3,16.5-14.1,19.1L356,164l-20.5-2.6l-5.1-32.6
				c0-0.5-0.1-1.2-0.2-2.1s-0.2-1.9-0.4-3.1l-0.7,5.6l-4.8,30.6l-18.9-2.2L319.9,65l19.5,6.9c8.9,3.6,13.2,7.4,16.8,12.2
				C360.9,90.2,362.4,98,360.9,107.4z M342.4,103.3c1-6.3,0.2-14.4-5.3-15.4l-1.3-0.6l-4,25l1.3,0.2c0.1,0,0.2,0,0.3,0
				c2.1,0.3,3.9-0.4,5.6-2.1C340.7,108.8,341.9,106.4,342.4,103.3"/>
		</g>
		<g id="XMLID_38929_">
			<path id="XMLID_38930_" class="st25" d="M277.3,49.5l13.8,5.5l-9.7,53.1c-0.4,1.9-0.4,3.3-0.1,4.2c0.3,0.9,1.8,1.7,2.9,2
				c0.2,0,0.4,0.1,0.5,0.1c0.9,0.1,1.6-0.1,2.1-0.6c0.6-0.7,1.1-1.9,1.5-3.9l10-52l13.9,4.8l-11.6,56.6c-0.6,2.9-1.5,5.1-2.8,6.7
				s-3.2,3-5.7,3.9c-2.6,1-5.5,1.3-8.6,0.9c-0.9-0.1-1.8-0.3-2.7-0.5c-4.8-1.2-8.5-3.3-11.3-6.3c-3.5-3.9-4.7-9-3.4-15.2L277.3,49.5
				z"/>
		</g>
		<g id="XMLID_38923_">
			<path id="XMLID_38924_" class="st25" d="M267.2,59.9c0.3,5.9,0.2,18.8-7.1,27.1c-2.6,3-8,6.5-13.7,6.3L236.1,93l1.9-61.8l9.5,1.7
				c5.4,0.9,9.6,3.5,12.5,6.5C263.9,43.5,266.8,52.3,267.2,59.9z M248.2,80.1c7.8-2.4,7.1-19.9,7-22c-0.1-2.4-1.3-7.2-2.1-8.7
				s-2.8-3.3-3.6-3.5l-0.3-0.1L248.2,80.1"/>
		</g>
		<g id="XMLID_38906_">
			<path id="XMLID_38907_" class="st25" d="M220.9,27.2l12,63.6l-12.7,1.8c-0.8-1.7-16-33.1-16.2-34.3c0.7,3.7,4.9,23.5,5.2,25
				l2.1,10.8l-14.9,2.3L183,27.1l14.9-0.2L212,50.7c-1-3.1-4.8-22.7-4.9-23.7L220.9,27.2z"/>
		</g>
		<g id="XMLID_38886_">
			<polygon id="XMLID_38887_" class="st25" points="178.2,37.5 190.5,111.2 172.8,113.3 160.2,37.6 			"/>
		</g>
		<g id="XMLID_38870_">
			<path id="XMLID_38871_" class="st25" d="M177.4,146l-17.4,3.7l-21.9-51.5l12.3,53.5l-18.2,3.9L103.2,30l19.5-0.4c1,0,2,0.1,3,0.2
				c6.4,0.8,12.1,4.5,15.9,6.8c5.6,3.4,12,12.1,14.2,19.5c2,6.9,6.2,19.9-3.7,33.2L177.4,146z M140.7,76.9c4.3-6.9,0.3-16-0.4-18
				c-2.8-8.7-11.1-10.3-13.2-10.6c-0.3,0-0.5-0.1-0.5-0.1l7.7,33.4C134.5,81.6,138.4,80.5,140.7,76.9"/>
		</g>
		<g id="XMLID_38854_">
			<path id="XMLID_38855_" class="st25" d="M70,22.4c13.3,1.8,22.1,11.3,30.2,26.4L78.4,58c-3.4-5.5-5.5-7-8.1-7.4
				c-0.7-0.1-1.5-0.1-2.3-0.1c-8.1,0.3-8.1,34.6-3.2,67.7c2,13.4,9.9,44.4,17.9,45.4c13.5,1.2,6.9-34.5,6.7-36.4L75.6,128l-2.5-20.8
				l39.7-3.5l0.5,4c2.3,18.5,5.5,45.5-0.4,62.3c-3.5,9.9-12.8,19.9-26,20.2c-1.3,0-2.7,0-4.2-0.2c-11.4-1.5-27.5-10.5-36.3-36.1
				c-5.6-16.4-11.2-45-12.6-62.5c-1.3-17.5,0.7-43.7,6-52.4c6.9-11.4,15.6-17.1,27-16.7C67.9,22.2,69,22.3,70,22.4z"/>
		</g>
	</g>
</g>
</svg>
