<svg xmlns="http://www.w3.org/2000/svg" viewBox="0 0 89.8 53.5"><path d="M89 53.5c-.2 0-.5-.1-.6-.3L53.9 11.1 19.4 53.2c-.2.4-.7.4-1.1.2s-.4-.7-.2-1.1l.1-.1 35-42.7c.1-.2.4-.3.6-.3.3 0 .5.1.7.3l35.1 42.8c.3.3.2.8-.1 1.1-.1.1-.3.1-.5.1z"/><path d="M77.5 53.5H30.3c-.4 0-.8-.3-.8-.8v-14c0-.4.3-.8.8-.8s.8.3.8.8V52h45.6V38.8c0-.4.3-.8.8-.8.4 0 .8.3.8.8v14c-.1.4-.4.7-.8.7zM54 28.2c-.4 0-.8-.3-.8-.8V10c0-.4.3-.8.8-.8s.8.3.8.8v17.4c-.1.4-.4.8-.8.8z"/><path d="M53.417 32.51l1.151-.962 17.315 20.718-1.15.962z"/><path d="M54 53.5c-.4 0-.8-.3-.8-.8V27.4c0-.4.3-.8.8-.8s.8.3.8.8v25.4c-.1.4-.4.7-.8.7zM29.4 32.1c-.4 0-.8-.3-.8-.8V.8c0-.5.4-.8.8-.8s.8.3.8.8v30.6c0 .3-.4.7-.8.7z"/><path d="M22.6 8.2c-.4 0-.8-.3-.8-.8 0-.2.1-.4.2-.6L28.7.1c.3-.3.8-.3 1.1 0s.3.8 0 1.1L23.1 8c-.1.1-.3.2-.5.2zm0 6.2c-.4 0-.8-.3-.8-.8 0-.2.1-.4.2-.6l6.7-6.7c.3-.3.8-.3 1.1 0s.3.8 0 1.1l-6.7 6.7c-.1.2-.3.3-.5.3zm0 6.2c-.4 0-.8-.3-.8-.8 0-.2.1-.4.2-.6l6.7-6.7c.3-.3.8-.3 1.1 0s.3.8 0 1.1l-6.7 6.7c-.1.2-.3.3-.5.3z"/><path d="M36.2 8.2c-.2 0-.4-.1-.5-.2L29 1.3c-.3-.3-.3-.8 0-1.1s.8-.3 1.1 0l6.7 6.7c.2.3.2.8-.1 1.1-.1.1-.3.2-.5.2zm0 6.2c-.2 0-.4-.1-.5-.2L29 7.5c-.3-.3-.3-.8 0-1.1s.8-.3 1.1 0l6.7 6.7c.3.3.3.8 0 1.1-.2.1-.4.2-.6.2zm0 6.2c-.2 0-.4-.1-.5-.2L29 13.7c-.3-.3-.3-.8 0-1.1s.8-.3 1.1 0l6.7 6.7c.3.3.3.8 0 1.1-.2.1-.4.2-.6.2zM12.1 39.8c-.4 0-.8-.3-.8-.8V14.5c0-.4.3-.8.8-.8.4 0 .8.3.8.8V39c0 .4-.4.8-.8.8z"/><path d="M7.2 20.1c-.4 0-.8-.3-.8-.7 0-.3.1-.5.3-.7l4.9-4.9c.3-.3.8-.3 1.1 0s.3.8 0 1.1l-4.9 4.9c-.2.2-.4.3-.6.3zm0 6.1c-.4 0-.8-.3-.8-.8 0-.2.1-.4.2-.6l4.9-4.9c.3-.3.8-.3 1.1 0s.3.8 0 1.1l-4.9 4.9c-.2.2-.3.3-.5.3z"/><path d="M17.1 20.1c-.2 0-.4-.1-.5-.2L11.7 15c-.3-.3-.3-.8 0-1.1s.8-.3 1.1 0l4.9 4.8c.3.3.4.7.1 1.1-.2.2-.5.4-.7.3zm0 6.1c-.2 0-.4-.1-.5-.2l-4.9-4.9c-.3-.3-.3-.8 0-1.1s.8-.3 1.1 0l4.9 4.9c.3.3.3.8 0 1.1-.2.1-.4.2-.6.2zm12.3 13.6H.8c-.5 0-.8-.4-.8-.8s.3-.8.8-.8h28.6c.4 0 .8.3.8.8-.1.4-.4.8-.8.8zM54 31.4v20.8h16.7z"/></svg>