<svg version="1.1" id="Layer_1" xmlns="http://www.w3.org/2000/svg" x="0" y="0" viewBox="0 0 74.8 29.9" xml:space="preserve"><style>.st1{fill:#1d1d1b}.st2{fill:#fff}</style><path fill="#476a5c" d="M1.2 1.2h72.5v27.6H1.2z"/><path class="st1" d="M74.8 0H0v29.9h74.8V0zM1.2 28.8V1.2h72.5v27.6H1.2z"/><path class="st1" d="M42.8 25.5v-6.7h-.5v-.7h-5.7v-13h-.5v-.7h-7.8V25h.7v.5zm9.5 0V5.1h-.5v-.7H44V25h.7v.5zm10.9 0v-7.1h5.4V13h-.5v-.7h-4.9v-1.2h6.2v-6h-.5v-.7h-14V25h.7v.5h7.6zm-43.2.4c2.9 0 6-1.4 7.6-3.4l-3.7-5.7c-.1.2-.2.3-.4.4l-.5-.8c-.7 1-1.8 1.7-3 1.7-.3 0-.7 0-1-.1-1.2-.5-2-1.5-2-2.9 0-1.7 1.2-3.4 3.3-3.4 1 0 2.2.5 2.8 1.3l3.5-5.6c-.1-.1-.3-.2-.4-.3l.3-.4c-1.9-1.7-4.4-2.6-7-2.6-5.9 0-10.6 4.8-10.6 10.6 0 3.5 1.7 6.6 4.3 8.5 1.7 1.7 4.1 2.7 6.8 2.7z"/><path class="st2" d="M55.3 4.8v19.8h6.9v-7.1h5.5v-4.8h-5.5v-2.6h6.2V4.8zm-10.8 0h6.9v19.7h-6.9zm-15.7 0v19.8h13.1v-6h-6.3V4.8zm-3 2c-1.8-1.5-4.1-2.3-6.4-2.3-5.6 0-10.2 4.6-10.2 10.2s4.6 10.2 10.2 10.2c2.5 0 5-.9 6.9-2.7-.3-.5-2.4-3.7-3.1-4.8l-.2-.2c-.8.9-1.9 1.4-3 1.4-2.2 0-4-1.8-4-4s1.8-4 4-4c1 0 2 .4 2.7 1.1.2-.3 1-1.5 1.7-2.6.6-1.1 1.2-2 1.4-2.3z"/><path class="st1" d="M3.3 15l3.4-3.4v6.8L3.3 15z"/><path class="st2" d="M6.2 13l-2.1 2 2.1 2z"/></svg>