<?xml version="1.0" encoding="utf-8"?>
<!-- Generator: Adobe Illustrator 24.2.3, SVG Export Plug-In . SVG Version: 6.00 Build 0)  -->
<svg version="1.1" id="Layer_1" xmlns="http://www.w3.org/2000/svg" xmlns:xlink="http://www.w3.org/1999/xlink" x="0px" y="0px"
	 viewBox="0 0 89.8 53.5" style="enable-background:new 0 0 89.8 53.5;" xml:space="preserve">
<path d="M89,53.5c-0.2,0-0.5-0.1-0.6-0.3L53.9,11.1L19.4,53.2c-0.2,0.4-0.7,0.4-1.1,0.2s-0.4-0.7-0.2-1.1c0,0,0.1-0.1,0.1-0.1
	L53.2,9.5c0.1-0.2,0.4-0.3,0.6-0.3c0.3,0,0.5,0.1,0.7,0.3l35.1,42.8c0.3,0.3,0.2,0.8-0.1,1.1C89.4,53.5,89.2,53.5,89,53.5z"/>
<path d="M77.5,53.5H30.3c-0.4,0-0.8-0.3-0.8-0.8v-14c0-0.4,0.3-0.8,0.8-0.8s0.8,0.3,0.8,0.8l0,0l0,0V52h45.6V38.8
	c0-0.4,0.3-0.8,0.8-0.8c0.4,0,0.8,0.3,0.8,0.8l0,0l0,0v14C78.2,53.2,77.9,53.5,77.5,53.5z"/>
<path d="M54,28.2c-0.4,0-0.8-0.3-0.8-0.8l0,0l0,0V10c0-0.4,0.3-0.8,0.8-0.8s0.8,0.3,0.8,0.8v17.4C54.7,27.8,54.4,28.2,54,28.2
	C54,28.2,54,28.2,54,28.2L54,28.2L54,28.2z"/>
<rect x="61.9" y="28.9" transform="matrix(0.7673 -0.6413 0.6413 0.7673 -12.6124 50.0319)" width="1.5" height="27"/>
<path d="M54,53.5c-0.4,0-0.8-0.3-0.8-0.8V27.4c0-0.4,0.3-0.8,0.8-0.8s0.8,0.3,0.8,0.8v25.4C54.7,53.2,54.4,53.5,54,53.5z"/>
<path d="M29.4,32.1c-0.4,0-0.8-0.3-0.8-0.8l0,0l0,0V0.8C28.6,0.3,29,0,29.4,0s0.8,0.3,0.8,0.8v30.6C30.2,31.7,29.8,32.1,29.4,32.1
	C29.4,32.1,29.4,32.1,29.4,32.1L29.4,32.1L29.4,32.1z"/>
<path d="M22.6,8.2c-0.4,0-0.8-0.3-0.8-0.8c0-0.2,0.1-0.4,0.2-0.6l6.7-6.7c0.3-0.3,0.8-0.3,1.1,0s0.3,0.8,0,1.1L23.1,8
	C23,8.1,22.8,8.2,22.6,8.2z"/>
<path d="M22.6,14.4c-0.4,0-0.8-0.3-0.8-0.8c0-0.2,0.1-0.4,0.2-0.6l6.7-6.7c0.3-0.3,0.8-0.3,1.1,0s0.3,0.8,0,1.1l-6.7,6.7
	C23,14.3,22.8,14.4,22.6,14.4z"/>
<path d="M22.6,20.6c-0.4,0-0.8-0.3-0.8-0.8c0-0.2,0.1-0.4,0.2-0.6l6.7-6.7c0.3-0.3,0.8-0.3,1.1,0s0.3,0.8,0,1.1l-6.7,6.7
	C23,20.5,22.8,20.6,22.6,20.6z"/>
<path d="M36.2,8.2c-0.2,0-0.4-0.1-0.5-0.2L29,1.3c-0.3-0.3-0.3-0.8,0-1.1s0.8-0.3,1.1,0l6.7,6.7C37,7.2,37,7.7,36.7,8
	C36.6,8.1,36.4,8.2,36.2,8.2z"/>
<path d="M36.2,14.4c-0.2,0-0.4-0.1-0.5-0.2L29,7.5c-0.3-0.3-0.3-0.8,0-1.1s0.8-0.3,1.1,0l6.7,6.7c0.3,0.3,0.3,0.8,0,1.1
	C36.6,14.3,36.4,14.4,36.2,14.4z"/>
<path d="M36.2,20.6c-0.2,0-0.4-0.1-0.5-0.2L29,13.7c-0.3-0.3-0.3-0.8,0-1.1s0.8-0.3,1.1,0l6.7,6.7c0.3,0.3,0.3,0.8,0,1.1
	C36.6,20.5,36.4,20.6,36.2,20.6z"/>
<path d="M12.1,39.8c-0.4,0-0.8-0.3-0.8-0.8l0,0l0,0V14.5c0-0.4,0.3-0.8,0.8-0.8c0.4,0,0.8,0.3,0.8,0.8V39
	C12.9,39.4,12.5,39.8,12.1,39.8z"/>
<path d="M7.2,20.1c-0.4,0-0.8-0.3-0.8-0.7c0-0.3,0.1-0.5,0.3-0.7l4.9-4.9c0.3-0.3,0.8-0.3,1.1,0s0.3,0.8,0,1.1l-4.9,4.9
	C7.6,20,7.4,20.1,7.2,20.1z"/>
<path d="M7.2,26.2c-0.4,0-0.8-0.3-0.8-0.8c0-0.2,0.1-0.4,0.2-0.6l4.9-4.9c0.3-0.3,0.8-0.3,1.1,0s0.3,0.8,0,1.1l-4.9,4.9
	C7.5,26.1,7.4,26.2,7.2,26.2z"/>
<path d="M17.1,20.1c-0.2,0-0.4-0.1-0.5-0.2L11.7,15c-0.3-0.3-0.3-0.8,0-1.1s0.8-0.3,1.1,0l0,0l4.9,4.8c0.3,0.3,0.4,0.7,0.1,1.1
	C17.6,20,17.3,20.2,17.1,20.1z"/>
<path d="M17.1,26.2c-0.2,0-0.4-0.1-0.5-0.2l-4.9-4.9c-0.3-0.3-0.3-0.8,0-1.1s0.8-0.3,1.1,0l0,0l4.9,4.9c0.3,0.3,0.3,0.8,0,1.1
	C17.5,26.1,17.3,26.2,17.1,26.2z"/>
<path d="M29.4,39.8H0.8C0.3,39.8,0,39.4,0,39c0-0.4,0.3-0.8,0.8-0.8h28.6c0.4,0,0.8,0.3,0.8,0.8C30.1,39.4,29.8,39.8,29.4,39.8z"/>
<polygon points="54,31.4 54,52.2 70.7,52.2 "/>
</svg>
