<?xml version="1.0" encoding="utf-8"?>
<!-- Generator: Adobe Illustrator 24.3.0, SVG Export Plug-In . SVG Version: 6.00 Build 0)  -->
<svg version="1.1" id="Layer_1" xmlns="http://www.w3.org/2000/svg" xmlns:xlink="http://www.w3.org/1999/xlink" x="0px" y="0px"
	 viewBox="0 0 74.8 29.9" style="enable-background:new 0 0 74.8 29.9;" xml:space="preserve">
<style type="text/css">
	.st0{fill:#476A5C;}
	.st1{fill:#1D1D1B;}
	.st2{fill:#FFFFFF;}
	.st3{display:none;fill:#1D1D1B;}
</style>
<g>
	<g>
		<g>
			<g>
				<rect x="1.2" y="1.2" class="st0" width="72.5" height="27.6"/>
				<path class="st1" d="M74.8,0H0v29.9h74.8V0z M1.2,28.8V1.2h72.5v27.6C73.7,28.8,1.2,28.8,1.2,28.8z"/>
			</g>
		</g>
		<g>
			<g>
				<g>
					<polygon class="st1" points="42.8,25.5 42.8,18.8 42.3,18.8 42.3,18.1 36.6,18.1 36.6,5.1 36.1,5.1 36.1,4.4 28.3,4.4 28.3,25 
						29,25 29,25.5 					"/>
					<polygon class="st1" points="52.3,25.5 52.3,5.1 51.8,5.1 51.8,4.4 44,4.4 44,25 44.7,25 44.7,25.5 					"/>
					<path class="st1" d="M63.2,25.5v-7.1h5.4V13c0,0-0.2,0-0.5,0v-0.7c0,0-3.5,0-4.9,0c0-0.5,0-1.1,0-1.2c0.2,0,6.2,0,6.2,0v-6
						h-0.5V4.4h-14V25h0.7v0.5H63.2z"/>
					<path class="st1" d="M20,25.9c2.9,0,6-1.4,7.6-3.4l-3.7-5.7c-0.1,0.2-0.2,0.3-0.4,0.4L23,16.4c-0.7,1-1.8,1.7-3,1.7
						c-0.3,0-0.7,0-1-0.1c-1.2-0.5-2-1.5-2-2.9c0-1.7,1.2-3.4,3.3-3.4c1,0,2.2,0.5,2.8,1.3l3.5-5.6c-0.1-0.1-0.3-0.2-0.4-0.3
						l0.3-0.4c-1.9-1.7-4.4-2.6-7-2.6c-5.9,0-10.6,4.8-10.6,10.6c0,3.5,1.7,6.6,4.3,8.5C14.9,24.9,17.3,25.9,20,25.9z"/>
				</g>
				<g>
					<polygon class="st2" points="55.3,4.8 55.3,24.6 62.2,24.6 62.2,17.5 67.7,17.5 67.7,12.7 62.2,12.7 62.2,10.1 68.4,10.1 
						68.4,4.8 					"/>
					<rect x="44.5" y="4.8" class="st2" width="6.9" height="19.7"/>
					<polygon class="st2" points="28.8,4.8 28.8,24.6 41.9,24.6 41.9,18.6 35.6,18.6 35.6,4.8 					"/>
					<path class="st2" d="M25.8,6.8c-1.8-1.5-4.1-2.3-6.4-2.3c-5.6,0-10.2,4.6-10.2,10.2s4.6,10.2,10.2,10.2c2.5,0,5-0.9,6.9-2.7
						c-0.3-0.5-2.4-3.7-3.1-4.8L23,17.2c-0.8,0.9-1.9,1.4-3,1.4c-2.2,0-4-1.8-4-4s1.8-4,4-4c1,0,2,0.4,2.7,1.1
						c0.2-0.3,1-1.5,1.7-2.6C25,8,25.6,7.1,25.8,6.8z"/>
				</g>
			</g>
			<g>
				<g>
					<g>
						<g>
							<g>
								<path class="st1" d="M3.3,15l3.4-3.4v6.8L3.3,15z"/>
								<polygon class="st2" points="6.2,13 4.1,15 6.2,17 								"/>
							</g>
						</g>
					</g>
				</g>
			</g>
		</g>
	</g>
	<path class="st3" d="M77.6,29.6c-0.2,0.2-0.4,0.3-0.7,0.3c-0.3,0-0.5-0.1-0.7-0.3c-0.2-0.2-0.3-0.4-0.3-0.7c0-0.3,0.1-0.6,0.3-0.8
		c0.2-0.2,0.4-0.3,0.7-0.3c0.3,0,0.5,0.1,0.7,0.3c0.2,0.2,0.3,0.4,0.3,0.7C78,29.2,77.9,29.4,77.6,29.6z M76.3,28.3
		c-0.2,0.2-0.3,0.4-0.3,0.6s0.1,0.4,0.3,0.6c0.2,0.2,0.4,0.2,0.6,0.2s0.4-0.1,0.6-0.3c0.2-0.2,0.3-0.4,0.3-0.6s-0.1-0.4-0.3-0.6
		c-0.2-0.2-0.4-0.3-0.6-0.3C76.7,28,76.5,28.1,76.3,28.3z M76.5,29.5v-1.1c0.1,0,0.2,0,0.3,0c0.1,0,0.2,0,0.2,0c0.1,0,0.2,0,0.2,0.1
		c0.1,0.1,0.2,0.1,0.2,0.3c0,0.1,0,0.2-0.1,0.2s-0.1,0.1-0.2,0.1c0.1,0,0.1,0,0.2,0.1s0.1,0.1,0.1,0.3v0.1l0,0l0,0l0,0h-0.3
		c0,0,0-0.1,0-0.2s0-0.1,0-0.1s0-0.1-0.1-0.1h-0.1h-0.1h-0.1v0.4L76.5,29.5L76.5,29.5z M77,28.5c0,0-0.1,0-0.2,0h-0.1v0.3h0.1
		c0.1,0,0.1,0,0.2,0l0.1-0.1C77.1,28.6,77.1,28.6,77,28.5z"/>
</g>
</svg>
